<svg width="27" height="43" viewBox="0 0 27 43" fill="none" xmlns="http://www.w3.org/2000/svg">
<g id="Group">
<g id="Group 1">
<path id="Vector" d="M23.3134 29.8668L23.763 23.2692C23.8714 21.6769 23.9798 20.054 23.6777 18.4958C23.5465 17.875 23.3822 17.261 23.1855 16.6563L22.6418 14.8833C22.3042 13.7803 21.9648 12.5665 22.2971 11.4601C21.8315 11.7669 21.6218 12.5392 21.1172 12.9194C21.2851 12.2312 21.3751 11.5275 21.3855 10.8208C21.4012 10.5817 21.3711 10.3419 21.2967 10.1133L21.2114 10.8276C21.1368 11.4584 21.0337 12.1369 20.657 12.5835C20.7993 11.9326 20.856 11.2671 20.8258 10.6026C20.5522 11.4737 20.1008 12.2494 19.6531 13.0132C19.7514 12.2892 19.829 11.5612 19.8858 10.8293C19.6833 11.0828 19.4964 11.3475 19.3261 11.622L18.7931 12.4403C18.915 11.8373 18.9969 11.2275 19.0382 10.6145C18.955 10.899 18.815 11.1653 18.626 11.3987C18.3062 11.8488 17.9561 12.321 17.4799 12.4881C17.7066 11.9102 17.8309 11.2999 17.8477 10.6827C17.6454 11.1812 17.4153 11.6689 17.1583 12.1437C16.7384 11.3958 16.5914 10.5346 16.7407 9.69731C16.3597 10.3558 16.2049 11.1129 16.2983 11.8607C15.9901 11.1995 15.8095 10.4902 15.7652 9.76721C15.6142 10.3912 15.5005 11.0833 15.385 11.7738C15.2952 11.3807 15.2358 10.9818 15.2073 10.5804C15.17 10.3758 15.1575 10.3008 15.1451 10.2258C15.0296 9.76891 14.9479 9.445 14.8679 9.11938L14.5179 11.114C14.2963 10.6594 14.092 10.198 13.9048 9.72971C14.0434 10.5037 13.7947 11.3015 13.4784 11.9988C13.4969 11.5603 13.4106 11.1235 13.2261 10.7219C13.0478 10.3409 12.8318 9.97726 12.5811 9.63594C12.4802 10.1946 12.3395 10.746 12.1599 11.2862C12.0569 10.7747 11.9823 10.2633 11.9236 9.74164C11.3526 10.4226 10.9842 11.239 10.8575 12.1045L10.7153 10.473C10.7473 10.9691 10.4879 11.4175 10.2409 11.8198L9.9104 12.3585C9.97929 11.6374 9.95003 10.9107 9.82333 10.1968L9.44132 12.2937C9.09621 11.553 8.8278 10.7816 8.63994 9.99053C8.28305 10.8079 8.2059 11.7129 8.41961 12.575C7.96695 12.0623 7.72105 11.4108 7.72662 10.7389C7.58765 11.1448 7.49412 11.5637 7.44764 11.9886C7.33392 11.5283 7.22732 11.1021 7.10471 10.6827C6.73053 11.4673 6.585 12.3345 6.68359 13.1922C6.33212 12.5154 6.14961 11.7695 6.15053 11.0134C5.97779 11.6239 5.90701 12.2569 5.94085 12.8887C5.73434 12.4576 5.60347 11.9968 5.5535 11.5249L5.33317 13.4905C5.24788 12.8887 5.13238 12.2971 4.97779 11.7073L4.99022 13.2024C4.78173 12.7034 4.562 12.2108 4.331 11.7243C4.6082 12.4437 4.59397 13.2774 4.4536 14.048C4.31322 14.8185 4.05026 15.5516 3.84236 16.3034C3.46388 17.6673 3.2631 19.0976 3.06409 20.5194C3.009 20.9149 2.9539 21.3104 2.91481 21.7127C2.83845 22.469 2.81886 23.2296 2.85618 23.9887C2.27337 22.9249 2.36221 21.503 1.8327 20.3898C1.73457 20.1506 1.57209 19.9406 1.36182 19.7812C1.26593 19.71 1.14812 19.6714 1.02687 19.6714C0.90563 19.6714 0.787816 19.71 0.69193 19.7812C0.525635 19.9479 0.434929 20.171 0.439627 20.4017C0.441956 20.6387 0.479654 20.8741 0.551571 21.1007C0.809219 22.0384 1.17348 22.9317 1.44001 23.8642C1.70654 24.7967 1.89311 25.794 1.76517 26.7624C1.68699 27.359 1.49864 27.9932 1.71719 28.5388C1.83287 28.8255 2.05769 29.0595 2.34622 29.1934C2.60093 29.2962 2.87181 29.3573 3.14759 29.3741C3.24888 30.7789 3.43012 32.199 3.93121 33.4793C4.16786 34.0595 4.44815 34.6224 4.76989 35.1636C5.57657 36.5678 6.49685 37.909 7.52228 39.175C8.46225 40.3343 9.5497 41.4475 10.8984 41.7322C10.7517 41.7104 10.6137 41.6516 10.4986 41.5617C10.7838 41.8734 11.1699 42.0841 11.5949 42.1601C13.5672 42.6494 15.7048 42.1345 17.3555 40.7707C17.7566 40.43 18.1369 40.0674 18.4945 39.6847C19.6886 38.4454 20.8542 37.1275 21.6822 35.5301C22.5954 33.7587 23.149 31.8367 23.3134 29.8668Z" fill="#FDC499"/>
<path id="Vector_2" d="M23.3894 29.3825C23.8194 29.4728 24.3009 29.553 24.6652 29.2649C24.9726 29.0211 25.1165 28.5659 25.1521 28.1295C25.1876 27.693 25.1396 27.2532 25.1521 26.8151C25.1645 26.527 25.2036 26.2423 25.2445 25.9627C25.4051 24.6502 25.6424 23.3474 25.9552 22.0604C26.0956 21.5251 26.2662 20.9761 26.2129 20.4204C26.2079 20.3114 26.1795 20.2046 26.1293 20.1067C26.0954 20.0513 26.05 20.0032 25.9959 19.9654C25.9418 19.9276 25.8802 19.9008 25.8148 19.8868C25.6805 19.8572 25.5402 19.8649 25.4103 19.909C25.2803 19.9531 25.1661 20.0317 25.081 20.1357C24.5817 20.9727 24.0717 21.8405 23.8567 22.8258C23.7804 23.2118 23.7282 23.6017 23.7004 23.9936C23.5369 25.8058 23.4214 27.63 23.3894 29.3825Z" fill="#FDC499"/>
<path id="Vector_3" d="M23.836 22.4832L23.8467 20.9846C23.8467 19.9191 23.8609 18.8349 23.5979 17.8154C23.4359 17.2559 23.2432 16.7051 23.0204 16.1652C22.8587 15.7304 22.7113 15.2906 22.562 14.8491C22.3781 14.3433 22.2355 13.8246 22.1355 13.2977C22.0357 12.7622 22.0673 12.2118 22.2279 11.6901C21.7068 12.1527 21.2664 12.6926 20.9237 13.2892C21.1938 12.6073 21.2631 11.8589 21.3271 11.1173C21.3688 10.8387 21.3586 10.5553 21.2969 10.2802C21.3109 10.7528 21.2418 11.2242 21.0925 11.6747C20.9546 12.0672 20.7698 12.4431 20.5417 12.7948C20.745 12.0937 20.8378 11.3674 20.8171 10.6399L19.6639 13.1971C19.6673 12.4075 19.747 11.6199 19.902 10.8445C19.4596 11.2946 19.2268 11.9867 18.7684 12.4129C18.9049 11.8049 18.9757 11.1851 18.9798 10.5632C18.7133 11.4156 18.0914 12.0191 17.5032 12.5885C17.63 11.9714 17.7324 11.3463 17.8106 10.7132C17.6189 11.2057 17.381 11.6804 17.0999 12.1316C16.7406 11.4035 16.6168 10.5888 16.7445 9.79263C16.3303 10.4585 16.1825 11.2462 16.3287 12.0089C15.945 11.2579 15.7618 10.4272 15.7956 9.59147C15.7546 9.84374 15.6989 10.0936 15.6286 10.3399L15.4509 10.986L15.2839 11.6185C15.282 11.312 15.2329 11.0076 15.1382 10.7149C15.0923 10.5914 15.0555 10.4649 15.028 10.3365C15.0083 10.1746 14.9977 10.0118 14.996 9.84889C14.9854 9.6628 14.952 9.47854 14.8965 9.29994C14.6602 9.81138 14.6833 10.4353 14.5305 10.9928C14.3528 10.7729 14.2995 10.4558 14.1893 10.1813C14.1209 10.021 14.0407 9.86545 13.9495 9.71591C13.8695 10.4677 13.786 11.2349 13.5035 11.9151C13.5469 11.3632 13.4149 10.8116 13.125 10.3331C12.9473 10.0654 12.7394 9.84207 12.5706 9.57441C12.4201 10.1836 12.291 10.8002 12.1832 11.4241C12.0819 10.9383 12.0055 10.4439 11.9522 9.94776C11.9522 9.96652 11.8385 9.76365 11.8403 9.76706C11.262 10.4494 10.9154 11.2853 10.847 12.1623L10.6693 10.403C10.6391 11.1378 10.3546 11.842 9.86085 12.4044C10.0242 11.6618 10.0084 10.8933 9.81465 10.1575C9.74992 10.8652 9.61847 11.5659 9.42194 12.2509C9.04178 11.5445 8.77975 10.7851 8.64544 10.0006C8.31101 10.8407 8.21954 11.752 8.38069 12.6379C7.96524 12.0731 7.71158 11.4135 7.64506 10.7252C7.65059 11.1814 7.57734 11.6353 7.42828 12.0685L7.05158 10.6723C6.74288 11.4526 6.61376 12.2877 6.67311 13.1204C6.35596 12.5033 6.17451 11.8301 6.14004 11.1428C6.0027 11.7628 5.96615 12.3994 6.03166 13.03L5.47549 11.6662L5.35999 13.4835C5.21429 12.8743 5.09583 12.2566 5.00461 11.6304C4.94771 12.1825 4.95666 12.739 5.03127 13.2892L4.39338 11.6935C4.74875 12.967 4.4147 14.3513 4.05754 15.6248C3.55113 17.437 2.99142 19.2628 2.92745 21.1705C2.89191 22.1695 2.98964 23.1872 2.79418 24.1624L2.14562 21.2046C2.05677 20.8005 1.94838 20.3522 1.65342 20.1271C1.48994 19.9959 1.27671 19.9379 1.16122 19.747C1.12745 19.6924 1.08659 19.6174 1.02973 19.6327C0.972867 19.6481 1.05283 19.7691 1.05639 19.7009C0.741877 16.6323 0.827175 13.4665 1.66409 10.5393C1.9324 9.59658 2.27711 8.68792 2.62183 7.77926C2.96654 6.87061 3.33258 5.92785 4.1073 5.3431C3.68464 5.72051 3.38108 6.20433 3.23129 6.73934C4.20616 4.73911 5.79608 3.07327 7.78722 1.9659C9.65472 0.932789 11.723 0.474199 13.7842 0.38555C15.1358 0.303214 16.492 0.452143 17.7893 0.825386C21.3733 1.92157 24.3496 5.42835 25.19 9.59317C25.1458 9.24554 25.0661 8.90293 24.9519 8.57029C25.636 10.3058 25.7924 12.2612 25.8528 14.174C25.9132 16.0595 25.8812 18.0081 25.2433 19.7384C25.0574 20.2231 24.8457 20.6982 24.609 21.1619C24.3691 21.6512 24.1203 22.1592 23.836 22.4832Z" fill="#896E56"/>
<path id="Vector_4" d="M14.8076 19.2355C14.7804 19.6575 14.8483 20.0802 15.0066 20.4748C15.0207 20.5284 15.0557 20.5748 15.1043 20.6044C15.1356 20.6138 15.169 20.6138 15.2003 20.6044C16.2771 20.3998 17.3325 19.96 18.4235 20.0129C18.678 20.0294 18.9313 20.0596 19.1823 20.1032L19.8699 20.2089C20.1474 20.2406 20.4211 20.2977 20.6873 20.3794C21.0355 20.518 21.3658 20.6948 21.6717 20.9062C21.5589 20.5901 21.3481 20.3147 21.0675 20.1168C19.8131 19.1161 18.2512 18.7888 16.7373 18.7803C16.0816 18.7854 15.3886 18.8536 14.8076 19.2355Z" fill="#896E56"/>
<path id="Vector_5" d="M4.30103 20.3524C4.79144 20.0114 5.38314 19.9432 5.93753 19.7761C6.15608 19.7114 6.37287 19.6278 6.59321 19.5716C7.11728 19.4532 7.66015 19.4324 8.1924 19.5102C8.47907 19.5431 8.76336 19.5892 9.04529 19.6483C9.52841 19.7499 10.0012 19.8925 10.4579 20.0745C10.5383 20.1196 10.6337 20.1336 10.7245 20.1137C10.8151 20.0676 10.8856 19.992 10.9235 19.9006C11.1176 19.5431 11.2314 19.1505 11.2575 18.7481C11.2637 18.7275 11.2637 18.7057 11.2575 18.6851C11.246 18.6681 11.2282 18.6559 11.2078 18.651C10.2581 18.3228 9.24291 18.2068 8.23945 18.3116C7.23599 18.4165 6.27068 18.7395 5.41691 19.2562C4.94206 19.5101 4.55437 19.8909 4.30103 20.3524Z" fill="#896E56"/>
<path id="Vector_6" d="M16.8954 20.8841C16.4227 21.0427 16.0709 21.5115 15.8292 22.0144C15.6463 22.3755 15.5297 22.7642 15.4845 23.1634C15.4358 23.7299 15.5592 24.2978 15.8399 24.7983C16.0975 25.2529 16.4821 25.6295 16.9504 25.886C17.1112 25.9762 17.2848 26.0434 17.4657 26.0855C17.923 26.1559 18.3915 26.0683 18.7877 25.8383C18.9676 25.7506 19.1314 25.6354 19.2728 25.4973C19.6282 25.1563 19.7899 24.6142 19.9427 24.1045C20.0411 23.822 20.0973 23.5275 20.1097 23.2299C20.0943 22.8998 20.0109 22.576 19.8645 22.2769C19.6424 21.7655 19.3439 21.2898 18.9192 21.0205C18.7015 20.8897 18.4606 20.7984 18.2085 20.7511C17.7664 20.6776 17.3117 20.7236 16.8954 20.8841Z" fill="#D39C76"/>
<path id="Vector_7" d="M7.5825 20.2107C7.037 20.5192 6.45242 20.8926 6.21965 21.5455C6.13613 21.7825 6.10413 22.0416 6.02773 22.282C5.96504 22.4403 5.91398 22.6027 5.87492 22.7679C5.85123 22.9528 5.86146 23.1404 5.90513 23.3219C6.02291 24.0114 6.37085 24.6456 6.89663 25.129C7.12899 25.3411 7.41686 25.4889 7.72969 25.5568C8.04253 25.6246 8.36866 25.6099 8.67351 25.5143C8.97358 25.3953 9.2496 25.2269 9.48909 25.0165C9.75447 24.8139 9.98062 24.5681 10.1572 24.2903C10.3562 23.9377 10.4703 23.5468 10.4913 23.1463C10.5556 22.3904 10.3501 21.6359 9.90846 21.0068C9.71947 20.7316 9.46266 20.5053 9.16079 20.348C8.85891 20.1907 8.52127 20.1072 8.17775 20.105C7.7975 20.1169 7.42791 20.2482 7.5825 20.2107Z" fill="#D39C76"/>
<path id="Vector_8" d="M6.19489 21.3428C7.22114 21.1392 8.27017 21.0612 9.31686 21.111C9.61893 21.1246 9.96365 21.1758 10.1378 21.4673C10.1916 21.5668 10.231 21.6729 10.2551 21.7827C10.4754 22.6129 10.5483 23.5642 10.1716 24.3126C8.89467 23.8591 7.49445 23.8387 6.20376 24.2546C5.85702 23.313 5.8539 22.2864 6.19489 21.3428Z" fill="#F4F4F4"/>
<path id="Vector_9" d="M15.8506 21.8406C16.4748 21.7097 17.1099 21.6327 17.7483 21.6104C18.3507 21.578 18.9922 21.5712 19.5252 21.8951C19.5501 21.9105 19.5785 21.9275 19.6052 21.9139C19.6318 21.9002 19.6336 21.844 19.6052 21.8423C19.8301 22.0988 19.9628 22.418 19.9836 22.7527C20.0864 23.4884 19.9821 24.2371 19.6816 24.9212C19.6669 24.8585 19.6341 24.8011 19.587 24.7556C19.5398 24.7101 19.4802 24.6782 19.415 24.6637C19.0415 24.5524 18.651 24.5022 18.2601 24.5154C17.464 24.5035 16.6342 24.5154 15.9217 24.9416C15.6356 24.6143 15.5556 24.1131 15.5148 23.6443C15.493 23.4174 15.493 23.1892 15.5148 22.9623C15.5732 22.5755 15.6862 22.1982 15.8506 21.8406Z" fill="#F4F4F4"/>
<path id="Vector_10" d="M8.42991 32.7649C8.63442 33.6268 9.1436 34.3942 9.87096 34.9368C10.5313 35.4071 11.3193 35.6842 12.14 35.7347C14.1621 35.8898 16.2269 34.8533 17.5364 33.0257C16.8861 33.5644 16.083 33.7622 15.3047 33.948C16.0328 33.8608 16.728 33.6051 17.3303 33.203C16.3353 33.4144 15.294 33.6241 14.3291 33.2627C14.0573 33.1604 13.7961 33.0121 13.5029 33.007C13.3467 33.0039 13.1945 33.0552 13.0746 33.1514C12.9548 33.2476 12.8752 33.3822 12.8508 33.5303C12.7957 33.3975 12.7015 33.283 12.5797 33.2006C12.4579 33.1183 12.3138 33.0717 12.1649 33.0666C11.8852 33.0761 11.6085 33.1255 11.344 33.2133C10.4791 33.4202 9.56662 33.3403 8.75507 32.9865C8.59337 32.9166 8.41036 32.7956 8.42991 32.7649Z" fill="#E59466"/>
<g id="Clip path group">
<mask id="mask0_217_6" style="mask-type:luminance" maskUnits="userSpaceOnUse" x="9" y="20" width="8" height="12">
<g id="clip-path">
<path id="Vector_11" d="M14.4468 20.7034C14.198 22.4627 13.9493 24.2596 14.1838 26.0223C14.2496 26.5116 14.3615 27.0265 14.6867 27.3487C14.9514 27.6146 15.3175 27.7067 15.5876 27.9658C15.8453 28.2384 15.9983 28.5872 16.0211 28.9546C16.0483 29.3328 15.9914 29.7123 15.8541 30.0678C15.7664 30.3323 15.6155 30.5734 15.4134 30.7719C15.3247 30.8634 15.2115 30.9298 15.0862 30.9638C14.9608 30.9977 14.8282 30.998 14.7027 30.9646C14.7801 30.9209 14.8442 30.8586 14.8888 30.7839C14.9334 30.7091 14.9568 30.6245 14.9568 30.5384C14.9568 30.4522 14.9334 30.3676 14.8888 30.2928C14.8442 30.2181 14.7801 30.1558 14.7027 30.1122C14.5037 30.0252 14.2851 30.1446 14.1092 30.2826C13.8391 30.4991 13.601 30.7685 13.322 30.9646C13.0431 31.1606 12.6966 31.2799 12.3892 31.1572C12.1501 31.0327 11.952 30.8468 11.817 30.6202C11.6993 30.4427 11.5502 30.2864 11.3763 30.1582C11.172 29.9877 10.8237 29.7541 10.607 29.8956C10.3902 30.0371 10.3138 30.4412 10.5021 30.6287C10.1377 30.219 9.95634 29.6879 9.99751 29.1507C10.0437 28.6034 10.3635 28.0869 10.8078 27.9181C11.1276 27.7953 11.4741 27.8533 11.8117 27.8823C12.1493 27.9113 12.5118 27.8942 12.7819 27.6555C13.1728 27.3146 13.2208 26.6599 13.2705 26.0888C13.434 24.2511 13.9866 22.4849 14.4468 20.7034Z" fill="white"/>
</g>
</mask>
<g mask="url(#mask0_217_6)">
<g id="Group_2">
<path id="Vector_12" d="M9.94879 29.7783L16.0542 30.4483V31.2922H9.94879V29.7783Z" fill="#FAA870"/>
<path id="Vector_13" d="M9.94879 29.5688L16.0542 30.2388V30.4485L9.94879 29.7785V29.5688Z" fill="#FAA870"/>
<path id="Vector_14" d="M9.94916 29.3606L16.0545 30.0306V30.2386L9.94916 29.5686V29.3606Z" fill="#FAAB75"/>
<path id="Vector_15" d="M9.94879 29.1509L16.0542 29.8209V30.0306L9.94879 29.3606V29.1509Z" fill="#FBAE79"/>
<path id="Vector_16" d="M9.94879 28.9431L16.0542 29.6131V29.8211L9.94879 29.1511V28.9431Z" fill="#FBB17D"/>
<path id="Vector_17" d="M9.94916 28.7334L16.0545 29.4034V29.6131L9.94916 28.9431V28.7334Z" fill="#FBB381"/>
<path id="Vector_18" d="M9.94879 28.5251L16.0542 29.1951V29.4031L9.94879 28.7331V28.5251Z" fill="#FBB684"/>
<path id="Vector_19" d="M9.94879 28.3157L16.0542 28.9857V29.1954L9.94879 28.5254V28.3157Z" fill="#FCB887"/>
<path id="Vector_20" d="M9.94916 28.106L16.0545 28.7759V28.9856L9.94916 28.3156V28.106Z" fill="#FCB989"/>
<path id="Vector_21" d="M9.94879 27.8979L16.0542 28.5679V28.7759L9.94879 28.1059V27.8979Z" fill="#FCBB8B"/>
<path id="Vector_22" d="M9.94879 27.6882L16.0542 28.3582V28.5679L9.94879 27.8979V27.6882Z" fill="#FCBC8D"/>
<path id="Vector_23" d="M9.94879 27.4802L16.0542 28.1502V28.3582L9.94879 27.6882V27.4802Z" fill="#FCBD8F"/>
<path id="Vector_24" d="M9.94879 27.2705L16.0542 27.9405V28.1502L9.94879 27.4802V27.2705Z" fill="#FCBE91"/>
<path id="Vector_25" d="M9.94879 27.0627L16.0542 27.7327V27.9407L9.94879 27.2707V27.0627Z" fill="#FCBF92"/>
<path id="Vector_26" d="M9.94879 26.853L16.0542 27.523V27.7327L9.94879 27.0627V26.853Z" fill="#FDC093"/>
<path id="Vector_27" d="M9.94879 26.6436L16.0542 27.3152V27.5232L9.94879 26.8532V26.6436Z" fill="#FDC194"/>
<path id="Vector_28" d="M9.94879 26.4353L16.0542 27.1053V27.315L9.94879 26.6433V26.4353Z" fill="#FDC195"/>
<path id="Vector_29" d="M9.94879 26.3893L9.96833 26.229L16.0542 26.8956V27.1053L9.94879 26.4353V26.3893Z" fill="#FDC296"/>
<path id="Vector_30" d="M9.96796 26.2292L9.99284 26.0229L16.0538 26.6878V26.8958L9.96796 26.2292Z" fill="#FDC296"/>
<path id="Vector_31" d="M9.99268 26.0227L10.0158 25.8164L16.0536 26.4779V26.6876L9.99268 26.0227Z" fill="#FDC397"/>
<path id="Vector_32" d="M10.0166 25.8164L10.0415 25.6101L16.0544 26.2699V26.4778L10.0166 25.8164Z" fill="#FDC397"/>
<path id="Vector_33" d="M10.0417 25.6101L10.0665 25.4038L16.0547 26.0602V26.2698L10.0417 25.6101Z" fill="#FDC398"/>
<path id="Vector_34" d="M10.0664 25.404L10.0913 25.1978L16.0545 25.8524V26.0604L10.0664 25.404Z" fill="#FDC398"/>
<path id="Vector_35" d="M10.0907 25.1975L10.1156 24.9912L16.0539 25.6424V25.8521L10.0907 25.1975Z" fill="#FDC398"/>
<path id="Vector_36" d="M10.1161 24.9914L10.141 24.7852L16.0545 25.4347V25.6427L10.1161 24.9914Z" fill="#FDC498"/>
<path id="Vector_37" d="M10.1409 24.7851L10.164 24.5789L16.0543 25.225V25.4347L10.1409 24.7851Z" fill="#FDC499"/>
<path id="Vector_38" d="M10.1641 24.5788L10.1889 24.3726L16.0544 25.0153V25.225L10.1641 24.5788Z" fill="#FDC499"/>
<path id="Vector_39" d="M10.1887 24.3725L10.2136 24.1663L16.0542 24.8073V25.0152L10.1887 24.3725Z" fill="#FDC499"/>
<path id="Vector_40" d="M10.2139 24.1662L10.2387 23.96L16.0545 24.5976V24.8072L10.2139 24.1662Z" fill="#FDC499"/>
<path id="Vector_41" d="M10.2382 23.9599L10.263 23.7537L16.0539 24.3896V24.5975L10.2382 23.9599Z" fill="#FDC499"/>
<path id="Vector_42" d="M10.2632 23.7536L10.2881 23.5474L16.0541 24.1798V24.3895L10.2632 23.7536Z" fill="#FDC499"/>
<path id="Vector_43" d="M10.2879 23.5476L10.311 23.3413L16.0539 23.9721V24.1801L10.2879 23.5476Z" fill="#FDC499"/>
<path id="Vector_44" d="M10.3108 23.341L10.3357 23.1348L16.0537 23.7621V23.9718L10.3108 23.341Z" fill="#FDC499"/>
<path id="Vector_45" d="M10.3358 23.1347L10.3607 22.9285L16.0538 23.5541V23.7621L10.3358 23.1347Z" fill="#FDC499"/>
<path id="Vector_46" d="M10.361 22.9287L10.3858 22.7224L16.0541 23.3447V23.5544L10.361 22.9287Z" fill="#FDC499"/>
<path id="Vector_47" d="M10.3856 22.7224L10.4105 22.5161L16.0539 23.135V23.3446L10.3856 22.7224Z" fill="#FDC499"/>
<path id="Vector_48" d="M10.411 22.5159L10.4359 22.3096L16.0544 22.9267V23.1347L10.411 22.5159Z" fill="#FDC499"/>
<path id="Vector_49" d="M10.4357 22.3096L10.4606 22.1033L16.0542 22.717V22.9267L10.4357 22.3096Z" fill="#FDC499"/>
<path id="Vector_50" d="M10.4604 22.1035L10.4835 21.8972L16.0541 22.5092V22.7172L10.4604 22.1035Z" fill="#FDC499"/>
<path id="Vector_51" d="M10.4836 21.8972L10.5085 21.6909L16.0542 22.2995V22.5092L10.4836 21.8972Z" fill="#FDC499"/>
<path id="Vector_52" d="M10.5083 21.6909L10.5332 21.4846L16.0539 22.0915V22.2995L10.5083 21.6909Z" fill="#FDC499"/>
<path id="Vector_53" d="M10.5327 21.4846L10.5576 21.2783L16.0535 21.8818V22.0915L10.5327 21.4846Z" fill="#FDC499"/>
<path id="Vector_54" d="M10.5581 21.2781L10.6256 20.7036H16.054V21.8816L10.5581 21.2781Z" fill="#FDC499"/>
</g>
</g>
</g>
<path id="Vector_55" d="M14.6421 30.1702C14.1044 30.3428 13.639 30.6769 13.3148 31.1231C13.6833 31.018 14.0683 30.9765 14.452 31.0004C14.5431 31.0145 14.6365 31.0069 14.7238 30.9782C14.7873 30.9438 14.8407 30.8944 14.8789 30.8348C14.9171 30.7751 14.9389 30.7072 14.9424 30.6373C14.9708 30.414 14.8233 30.1753 14.6421 30.1702Z" fill="#E59466"/>
<path id="Vector_56" d="M10.891 29.9552C10.784 29.9476 10.6772 29.972 10.5853 30.0251C10.5347 30.0567 10.4917 30.0982 10.4592 30.1471C10.4267 30.1959 10.4055 30.2508 10.397 30.3081C10.386 30.3873 10.3965 30.4679 10.4277 30.542C10.4588 30.6161 10.5095 30.6812 10.5747 30.7309C10.6982 30.8078 10.8465 30.8392 10.9922 30.8196C11.1344 30.8076 11.2748 30.7701 11.4187 30.7582C11.5646 30.7385 11.713 30.772 11.8345 30.852C11.6586 30.3661 11.2623 29.9706 10.891 29.9552Z" fill="#E59466"/>
<path id="Vector_57" d="M13.3099 34.4407C12.6674 34.4346 12.0256 34.3959 11.3873 34.3248C10.757 34.2894 10.1376 34.1516 9.55534 33.9173C8.90608 33.6363 8.39627 33.124 8.13383 32.4887C8.12606 32.4692 8.12445 32.448 8.12919 32.4277C8.13393 32.4074 8.14482 32.3889 8.16049 32.3745C8.16779 32.3683 8.17639 32.3638 8.1857 32.3611C8.195 32.3584 8.20478 32.3577 8.21439 32.359C8.224 32.3603 8.23322 32.3636 8.2414 32.3686C8.24957 32.3736 8.25653 32.3803 8.26179 32.3881C8.49946 32.6825 8.80776 32.9175 9.16044 33.0731C9.51313 33.2286 9.89974 33.3001 10.2874 33.2814C10.5236 33.2559 10.7572 33.2114 10.9857 33.1484C11.1634 33.1058 11.3411 33.0615 11.5188 33.0342C11.7394 32.9891 11.9677 32.9924 12.1867 33.0437C12.4058 33.0951 12.6099 33.1932 12.7839 33.3309C12.893 33.1925 13.0393 33.0853 13.2071 33.0207C13.3749 32.9561 13.5579 32.9366 13.7363 32.9643C13.9751 32.9993 14.2084 33.0623 14.4311 33.1519C14.5377 33.1894 14.6479 33.2286 14.7545 33.261C15.8739 33.5917 16.9472 33.2269 17.6508 32.8637C17.6597 32.8596 17.6695 32.8572 17.6794 32.8569C17.6893 32.8566 17.6991 32.8582 17.7083 32.8617C17.7176 32.8653 17.7259 32.8706 17.7328 32.8774C17.7397 32.8842 17.7451 32.8923 17.7486 32.9012C17.7582 32.9208 17.7613 32.9428 17.7575 32.9641C17.7536 32.9855 17.7431 33.0052 17.7272 33.0206C16.8657 33.757 15.7899 34.2228 14.6443 34.3554C14.2021 34.4138 13.7562 34.4423 13.3099 34.4407ZM8.56563 32.92C8.83415 33.2782 9.19469 33.5636 9.61221 33.7485C10.1816 33.9766 10.7873 34.1104 11.4033 34.1441C12.4339 34.2498 13.5356 34.3265 14.6372 34.1747C15.498 34.0676 16.3226 33.7763 17.0502 33.3223C16.3106 33.6062 15.4935 33.6458 14.7279 33.4349C14.6159 33.4025 14.5057 33.3633 14.3973 33.324C14.1841 33.2388 13.961 33.1781 13.7328 33.1433C13.568 33.1178 13.399 33.1385 13.2461 33.2029C13.0932 33.2674 12.963 33.3727 12.871 33.5064C12.8657 33.5159 12.8584 33.5241 12.8495 33.5306C12.8406 33.537 12.8304 33.5416 12.8195 33.544C12.809 33.5454 12.7983 33.5446 12.7882 33.5416C12.7781 33.5387 12.7687 33.5337 12.7608 33.5269C12.6001 33.3849 12.406 33.2822 12.195 33.2276C11.984 33.173 11.7624 33.1681 11.549 33.2132C11.3713 33.2405 11.1936 33.2831 11.016 33.3257C10.7832 33.389 10.5455 33.434 10.3052 33.4604C9.67509 33.497 9.05381 33.304 8.56563 32.92Z" fill="#0D0D0D"/>
<path id="Vector_58" d="M23.7949 26.1742C23.6961 26.1746 23.6011 26.1379 23.5302 26.0719C23.5137 26.0549 23.5035 26.0333 23.5009 26.0103C23.4984 25.9872 23.5036 25.964 23.516 25.9441C23.5212 25.9352 23.5284 25.9276 23.5371 25.9219C23.5458 25.9161 23.5558 25.9124 23.5662 25.9109C23.5767 25.9094 23.5874 25.9103 23.5975 25.9133C23.6075 25.9164 23.6167 25.9217 23.6244 25.9287C23.6739 25.9693 23.7369 25.9916 23.802 25.9916C23.8672 25.9916 23.9302 25.9693 23.9797 25.9287C24.1009 25.8279 24.1834 25.691 24.2143 25.54C24.312 25.1684 24.2338 24.7575 24.1645 24.3944C24.1591 24.3727 24.162 24.3499 24.1728 24.3301C24.1836 24.3104 24.2015 24.2951 24.2232 24.287C24.264 24.2751 24.3049 24.3057 24.3138 24.3552C24.3849 24.72 24.4719 25.1752 24.3618 25.5929C24.3213 25.7844 24.2149 25.9573 24.0597 26.0839C23.9845 26.1417 23.8913 26.1735 23.7949 26.1742Z" fill="#0D0D0D"/>
<path id="Vector_59" d="M24.1145 27.3964C24.0741 27.3961 24.0343 27.3868 23.9983 27.3694C23.9622 27.3519 23.9308 27.3268 23.9066 27.2958C23.8977 27.2848 23.8913 27.2721 23.8876 27.2587C23.884 27.2452 23.8831 27.2312 23.8852 27.2174C23.8864 27.2041 23.8906 27.1912 23.8977 27.1797C23.9048 27.1681 23.9145 27.1583 23.9261 27.1509L23.9634 27.2242L24.0061 27.1731C24.0188 27.1866 24.0343 27.1975 24.0515 27.2053C24.0687 27.213 24.0874 27.2174 24.1064 27.2182C24.1254 27.219 24.1444 27.2162 24.1622 27.2099C24.1801 27.2036 24.1965 27.194 24.2104 27.1816C24.2859 27.1105 24.342 27.0227 24.3739 26.9259C24.7701 25.9933 24.8039 24.8801 24.8341 23.9033C24.8448 23.7653 24.8364 23.6266 24.8092 23.4907C24.7998 23.4368 24.7776 23.3857 24.7443 23.3414C24.711 23.297 24.6676 23.2606 24.6173 23.235C24.5855 23.2272 24.552 23.228 24.5207 23.2373C24.4893 23.2466 24.4613 23.2641 24.4396 23.2878C24.4126 23.3137 24.3914 23.3446 24.3774 23.3786C24.3633 23.4126 24.3567 23.449 24.3579 23.4856C24.361 23.5077 24.3552 23.53 24.3417 23.5481C24.3281 23.5662 24.3078 23.5786 24.285 23.5828C24.2626 23.5814 24.2415 23.5718 24.2263 23.5559C24.211 23.54 24.2028 23.5191 24.2033 23.4975C24.2003 23.4329 24.2112 23.3683 24.2353 23.3079C24.2595 23.2475 24.2964 23.1925 24.3437 23.1463C24.3827 23.104 24.4336 23.0732 24.4903 23.0578C24.547 23.0424 24.6071 23.0429 24.6635 23.0594C24.7409 23.0947 24.8083 23.1474 24.8599 23.2129C24.9116 23.2785 24.946 23.3551 24.9603 23.4362C24.9927 23.5921 25.0034 23.7514 24.9922 23.9101C24.962 24.9074 24.9265 26.0394 24.5143 27.0077C24.472 27.1326 24.3974 27.2452 24.2975 27.335C24.245 27.3739 24.1808 27.3954 24.1145 27.3964Z" fill="#0D0D0D"/>
<path id="Vector_60" d="M2.27711 27.006C2.26678 27.006 2.25659 27.0036 2.24735 26.9992C2.23811 26.9947 2.23007 26.9883 2.22382 26.9805C2.20911 26.9618 2.20115 26.9391 2.20115 26.9157C2.20115 26.8923 2.20911 26.8695 2.22382 26.8509C2.33342 26.693 2.37659 26.5011 2.34463 26.3139C2.31818 26.1348 2.27232 25.9588 2.20781 25.7888L2.18115 25.7104C1.80501 24.5687 1.66027 23.3685 1.75472 22.1746C1.75423 22.1639 1.75603 22.1532 1.76003 22.1432C1.76403 22.1331 1.77014 22.124 1.77797 22.1163C1.7858 22.1086 1.79517 22.1026 1.80554 22.0986C1.8159 22.0945 1.82704 22.0925 1.83822 22.0928C1.86052 22.0981 1.87997 22.1111 1.89278 22.1294C1.90559 22.1477 1.91084 22.1699 1.90753 22.1917C1.81644 23.3574 1.95816 24.5291 2.32509 25.6439L2.35175 25.7223C2.42108 25.9067 2.46991 26.0975 2.49744 26.2917C2.5367 26.5307 2.47814 26.7751 2.33398 26.9736C2.32795 26.9831 2.31962 26.9909 2.30971 26.9966C2.29981 27.0022 2.28861 27.0054 2.27711 27.006Z" fill="#0D0D0D"/>
<path id="Vector_61" d="M3.05676 26.1501C3.04185 26.1506 3.0273 26.1457 3.0159 26.1365C2.74221 25.9295 2.54582 25.643 2.45618 25.3199C2.35396 24.9767 2.35396 24.6129 2.45618 24.2697C2.45809 24.2594 2.46235 24.2496 2.46865 24.241C2.47495 24.2325 2.48312 24.2253 2.49262 24.2201C2.50211 24.2149 2.51269 24.2118 2.52359 24.2109C2.53449 24.2101 2.54545 24.2115 2.55569 24.2152C2.57603 24.2265 2.59169 24.2442 2.60009 24.2653C2.6085 24.2864 2.60912 24.3096 2.60187 24.3311C2.51304 24.635 2.51304 24.9564 2.60187 25.2602C2.68328 25.5449 2.85689 25.7975 3.09763 25.9814C3.11604 25.9962 3.12871 26.0165 3.13355 26.0391C3.13839 26.0617 3.13512 26.0852 3.12428 26.1058C3.11875 26.1187 3.10941 26.1298 3.09741 26.1376C3.08542 26.1455 3.07129 26.1499 3.05676 26.1501Z" fill="#0D0D0D"/>
<path id="Vector_62" d="M2.86518 24.2596C2.85101 24.2588 2.83736 24.2542 2.82575 24.2464C2.81413 24.2386 2.80502 24.2278 2.79944 24.2153C2.51869 23.6714 2.42983 23.0338 2.34454 22.4167C2.31434 22.2036 2.28414 21.982 2.24505 21.7706C2.11889 21.0716 1.80083 20.1442 1.00123 19.6839C0.987757 19.6757 0.976627 19.6644 0.96887 19.651C0.961113 19.6376 0.956974 19.6225 0.95681 19.6072C0.779122 16.3868 0.910603 13.8109 1.37082 11.4872C1.94297 8.601 3.05886 6.13586 4.59408 4.35946C6.12562 2.62932 8.14786 1.3631 10.4151 0.714596C13.2582 -0.12928 16.0479 -0.0508575 18.5035 0.939631C21.2204 2.03582 23.4432 4.27081 24.6 7.07691C25.4493 9.1329 25.7159 11.4327 25.8634 13.4119C26.041 15.6606 26.0677 18.2434 25.0478 20.3334C24.9465 20.5397 24.8381 20.7426 24.7226 20.9591C24.3388 21.6734 23.9425 22.4116 23.8857 23.2435C23.8857 23.2879 23.8857 23.3339 23.8857 23.3799C23.8864 23.3906 23.8849 23.4013 23.8812 23.4114C23.8776 23.4215 23.8719 23.4307 23.8644 23.4387C23.857 23.4466 23.8479 23.4531 23.8379 23.4576C23.8278 23.4622 23.8169 23.4647 23.8057 23.4652C23.7836 23.4618 23.7636 23.4503 23.75 23.4332C23.7365 23.416 23.7303 23.3945 23.7329 23.3731C23.7329 23.3236 23.7329 23.2759 23.7329 23.2299C23.8182 21.3546 23.8981 19.2407 23.3633 17.3449C23.2176 16.8335 23.0221 16.322 22.8302 15.8225C22.6703 15.3997 22.5033 14.9701 22.3665 14.5218C22.0502 13.4989 21.9596 12.5834 22.0982 11.7941C21.6522 12.3345 21.263 12.8664 20.8863 13.3847C20.8809 13.3928 20.8737 13.3997 20.8652 13.4049C20.8567 13.4101 20.8472 13.4135 20.8372 13.4148C20.8272 13.4161 20.8171 13.4153 20.8074 13.4125C20.7978 13.4096 20.789 13.4048 20.7815 13.3983C20.7655 13.3826 20.7551 13.3625 20.7516 13.3408C20.7481 13.3191 20.7517 13.2969 20.7619 13.2773C21.1229 12.5703 21.3113 11.7937 21.3128 11.0065C21.2058 11.7115 20.9203 12.3805 20.4812 12.9551C20.4758 12.9629 20.4688 12.9695 20.4604 12.9743C20.4521 12.9792 20.4428 12.9822 20.4331 12.9832C20.4234 12.9842 20.4136 12.9831 20.4044 12.98C20.3952 12.9769 20.3868 12.9719 20.3799 12.9653C20.364 12.9503 20.3533 12.9309 20.3495 12.9098C20.3457 12.8887 20.3488 12.8669 20.3586 12.8477C20.6504 12.2423 20.7886 11.5792 20.7619 10.9127L19.6958 13.2841C19.693 13.2928 19.6884 13.3008 19.6823 13.3078C19.6762 13.3147 19.6687 13.3204 19.6602 13.3246C19.6518 13.3287 19.6425 13.3312 19.6331 13.3318C19.6236 13.3325 19.6142 13.3313 19.6052 13.3284C19.5866 13.3199 19.5714 13.3058 19.5618 13.2883C19.5522 13.2708 19.5487 13.2508 19.5519 13.2312L19.7704 11.1309L18.8269 12.4845C18.8177 12.4991 18.8029 12.5098 18.7857 12.5142C18.7685 12.5187 18.7501 12.5166 18.7345 12.5084C18.7179 12.4982 18.7048 12.4836 18.6969 12.4663C18.689 12.449 18.6866 12.4298 18.6901 12.4112L18.8678 11.1565C18.5973 11.7614 18.1289 12.2652 17.5333 12.5919C17.52 12.5978 17.5051 12.5995 17.4907 12.5967C17.4764 12.594 17.4633 12.5869 17.4534 12.5766C17.4418 12.5647 17.4334 12.5502 17.4291 12.5344C17.4248 12.5186 17.4246 12.5021 17.4285 12.4862L17.679 11.2128L17.2313 12.1555C17.2259 12.1684 17.2169 12.1797 17.2053 12.1881C17.1937 12.1965 17.18 12.2018 17.1655 12.2032C17.1511 12.2033 17.137 12.1993 17.125 12.1917C17.113 12.1842 17.1036 12.1733 17.098 12.1606C16.7537 11.5025 16.6119 10.7639 16.6893 10.0313C16.3933 10.642 16.2978 11.3245 16.4157 11.9884C16.42 12.0088 16.4176 12.03 16.4087 12.049C16.3997 12.068 16.3848 12.0838 16.3659 12.0941C16.3568 12.0974 16.3472 12.0988 16.3375 12.0984C16.3278 12.098 16.3183 12.0958 16.3095 12.0918C16.3007 12.0879 16.2929 12.0822 16.2864 12.0753C16.2799 12.0684 16.2749 12.0603 16.2717 12.0515C15.9846 11.4188 15.8121 10.7436 15.7618 10.0552L15.4064 11.7378C15.404 11.756 15.395 11.7727 15.381 11.7852C15.3671 11.7976 15.349 11.805 15.33 11.806C15.3111 11.8041 15.2934 11.7959 15.2801 11.7828C15.2668 11.7697 15.2587 11.7526 15.2572 11.7344L14.868 9.59149L14.6352 11.0781C14.634 11.0954 14.6272 11.1119 14.6157 11.1254C14.6043 11.1388 14.5887 11.1485 14.5713 11.1531C14.5545 11.1551 14.5375 11.1514 14.5233 11.1427C14.509 11.134 14.4983 11.1208 14.4931 11.1054L14.0009 10.0177C14.0095 10.6859 13.8549 11.3468 13.5496 11.9475C13.5428 11.9633 13.5301 11.9761 13.514 11.9834C13.4979 11.9907 13.4795 11.9919 13.4625 11.9867C13.445 11.9791 13.4303 11.9665 13.4205 11.9507C13.4106 11.9349 13.4061 11.9165 13.4074 11.8981C13.4233 11.1052 13.1407 10.3335 12.6114 9.72446L12.2347 11.4787C12.2311 11.4966 12.2219 11.5129 12.2082 11.5254C12.1945 11.538 12.177 11.5461 12.1583 11.5486C12.1393 11.546 12.1218 11.5374 12.1086 11.5241C12.0954 11.5108 12.0872 11.4936 12.0854 11.4753L11.8118 9.94097C11.2839 10.5785 10.9842 11.3622 10.9571 12.176C10.9577 12.1963 10.9504 12.2161 10.9366 12.2316C10.9228 12.247 10.9035 12.257 10.8825 12.2595C10.8617 12.2582 10.8423 12.2494 10.8281 12.2348C10.8139 12.2202 10.806 12.201 10.8061 12.1811L10.6746 11.0116C10.5604 11.5161 10.316 11.9851 9.96381 12.3754C9.95303 12.388 9.93772 12.3961 9.92093 12.3984C9.90415 12.4006 9.8871 12.3966 9.87319 12.3874C9.85867 12.3757 9.84757 12.3606 9.84103 12.3435C9.83448 12.3265 9.83271 12.3081 9.83588 12.2902C9.93676 11.726 9.93676 11.1495 9.83588 10.5854L9.52315 12.2902C9.52118 12.3062 9.51441 12.3213 9.5037 12.3337C9.49298 12.3461 9.47877 12.3553 9.46274 12.3601C9.44724 12.3628 9.43122 12.3606 9.41713 12.3538C9.40303 12.3471 9.3916 12.3361 9.38455 12.3226C9.0148 11.6665 8.76536 10.9543 8.64714 10.2171C8.33187 10.9688 8.26974 11.7962 8.46945 12.5834C8.4748 12.6026 8.47412 12.6229 8.46748 12.6417C8.46084 12.6605 8.44854 12.677 8.43214 12.6891C8.42442 12.694 8.41573 12.6973 8.40661 12.6988C8.3975 12.7004 8.38815 12.7001 8.37915 12.698C8.37016 12.6959 8.36169 12.6921 8.3543 12.6868C8.34691 12.6814 8.34074 12.6747 8.33618 12.6669C8.02222 12.1968 7.80788 11.672 7.7054 11.1224L7.52772 12.0583C7.52617 12.0761 7.51824 12.0928 7.50527 12.1055C7.4923 12.1183 7.4751 12.1263 7.45664 12.1282C7.43771 12.1287 7.41929 12.1223 7.4051 12.1103C7.39091 12.0983 7.38202 12.0815 7.38022 12.0634L7.09415 10.9332C6.81891 11.6099 6.71537 12.3398 6.79208 13.0625C6.79436 13.0811 6.79104 13.1 6.78254 13.1169C6.77405 13.1338 6.76072 13.148 6.74411 13.1579C6.72801 13.1652 6.70963 13.1662 6.69276 13.1608C6.6759 13.1554 6.66183 13.144 6.65348 13.1289C6.36537 12.6795 6.18342 12.175 6.12042 11.6509C6.03988 12.1096 6.0303 12.5772 6.09198 13.0386C6.09629 13.0591 6.09319 13.0804 6.08318 13.099C6.07316 13.1176 6.05684 13.1324 6.03691 13.1409C6.02734 13.1434 6.01731 13.144 6.00748 13.1427C5.99764 13.1414 5.9882 13.1382 5.97971 13.1332C5.97123 13.1283 5.96388 13.1217 5.95813 13.1139C5.95238 13.1062 5.94835 13.0974 5.94629 13.088L5.56603 12.0259L5.45942 13.5211C5.46014 13.5409 5.45332 13.5603 5.44025 13.5756C5.42718 13.591 5.40873 13.6013 5.38834 13.6046C5.36843 13.6043 5.34932 13.597 5.33459 13.5841C5.31987 13.5713 5.31055 13.5537 5.30839 13.5347L5.09515 12.4794V13.2534C5.0962 13.2726 5.09094 13.2917 5.0801 13.3079C5.06926 13.3241 5.0534 13.3366 5.03475 13.3438C5.01621 13.347 4.99707 13.3436 4.981 13.3342C4.96493 13.3247 4.95307 13.3099 4.94768 13.2926L4.56743 12.3413C4.69097 13.1261 4.63457 13.9272 4.40217 14.6888C3.39989 17.7588 2.90701 20.9609 2.94157 24.1778C2.94292 24.1962 2.93838 24.2145 2.92854 24.2304C2.91869 24.2462 2.90402 24.2588 2.8865 24.2664L2.86518 24.2596ZM1.1025 19.5441C1.93409 20.0436 2.26459 21.0068 2.39608 21.7314C2.43517 21.9479 2.46537 22.1712 2.49557 22.3877C2.54532 22.8616 2.64292 23.3298 2.78699 23.7857C2.79201 20.674 3.28867 17.581 4.26003 14.6121C4.55854 13.7086 4.54433 12.5664 4.22094 11.4668C4.21459 11.4457 4.21548 11.4232 4.22348 11.4026C4.23148 11.382 4.24616 11.3645 4.26536 11.3526C4.27485 11.3485 4.28514 11.3465 4.29551 11.3467C4.30589 11.3469 4.31609 11.3493 4.3254 11.3537C4.33472 11.3581 4.3429 11.3644 4.34941 11.3721C4.35592 11.3799 4.36059 11.3889 4.36308 11.3986L4.93701 12.8272L4.9228 11.6509C4.92121 11.6304 4.92706 11.61 4.93937 11.5933C4.95169 11.5765 4.9697 11.5643 4.99032 11.5588C5.01126 11.5574 5.03193 11.5639 5.04789 11.577C5.06385 11.5901 5.0738 11.6087 5.07561 11.6287L5.33859 12.9295L5.43099 11.6321C5.43069 11.6136 5.4368 11.5955 5.44838 11.5807C5.45996 11.5659 5.47635 11.5552 5.49495 11.5503C5.51341 11.5481 5.53207 11.5524 5.54744 11.5624C5.56282 11.5725 5.57385 11.5876 5.57846 11.6049L5.88941 12.4777C5.88343 12.0003 5.95109 11.5246 6.0902 11.0661C6.09368 11.0472 6.10477 11.0304 6.12105 11.0192C6.13733 11.0081 6.15753 11.0035 6.17729 11.0065C6.19692 11.0129 6.21373 11.0255 6.22501 11.0422C6.23629 11.0589 6.24138 11.0787 6.23948 11.0985C6.22204 11.6611 6.34383 12.2196 6.59485 12.7283C6.57024 12.0091 6.71795 11.2941 7.02662 10.6382C7.03205 10.6238 7.0423 10.6114 7.0558 10.6031C7.06929 10.5947 7.08527 10.5909 7.10126 10.5922C7.11774 10.5954 7.13282 10.6033 7.14455 10.6148C7.15628 10.6264 7.16412 10.6411 7.167 10.657L7.42286 11.6696L7.62365 10.6178C7.62578 10.5986 7.63504 10.5808 7.64972 10.5677C7.66441 10.5545 7.68355 10.5469 7.70363 10.5462C7.72372 10.5497 7.74194 10.5598 7.75521 10.5747C7.76848 10.5896 7.776 10.6084 7.77648 10.628C7.81986 11.1658 7.97003 11.6906 8.21893 12.1743C8.11542 11.3929 8.25189 10.5995 8.61161 9.89154C8.61849 9.87692 8.63028 9.86494 8.6451 9.85752C8.65992 9.8501 8.67691 9.84768 8.69334 9.85062C8.71016 9.85629 8.72487 9.86659 8.73561 9.88024C8.74636 9.89388 8.75268 9.91026 8.75377 9.92733C8.84334 10.658 9.06332 11.3685 9.40409 12.0276L9.74526 10.1694C9.74705 10.1516 9.75502 10.1348 9.76791 10.1218C9.78079 10.1089 9.79785 10.1004 9.81634 10.0978C9.83509 10.0976 9.85329 10.1038 9.86764 10.1154C9.88199 10.127 9.89153 10.1431 9.89451 10.1609C10.0544 10.7735 10.0989 11.4085 10.026 12.0362C10.3772 11.5578 10.5805 10.9941 10.6124 10.4098C10.6117 10.3893 10.619 10.3692 10.6327 10.3535C10.6465 10.3378 10.6658 10.3275 10.687 10.3246C10.7082 10.3259 10.7281 10.3349 10.7426 10.3498C10.7572 10.3646 10.7652 10.3843 10.7652 10.4047L10.8896 11.5281C11.0096 10.8464 11.3302 10.2117 11.8136 9.69889C11.8224 9.68869 11.8345 9.68152 11.8479 9.67845C11.8614 9.67537 11.8755 9.67656 11.8882 9.68184C11.9017 9.68789 11.9134 9.6972 11.9221 9.70884C11.9308 9.72049 11.9363 9.73408 11.9379 9.74833L12.1707 11.0593L12.4977 9.54206C12.4996 9.52811 12.5052 9.51486 12.5139 9.50353C12.5226 9.49221 12.5341 9.48318 12.5474 9.47727C12.5599 9.4724 12.5736 9.47141 12.5867 9.47447C12.5998 9.47753 12.6115 9.48448 12.6202 9.49432C13.1713 10.0654 13.5007 10.801 13.5531 11.5776C13.8073 10.9541 13.9012 10.281 13.8268 9.61536C13.8234 9.59601 13.8266 9.57614 13.8359 9.55866C13.8452 9.54118 13.86 9.527 13.8783 9.51819C13.8964 9.51218 13.9163 9.51328 13.9336 9.52127C13.9509 9.52925 13.9643 9.54345 13.9707 9.56081L14.5286 10.7951L14.7898 9.11415C14.7914 9.09549 14.7997 9.07794 14.8133 9.06455C14.827 9.05116 14.845 9.04278 14.8644 9.04084C14.8837 9.04239 14.9018 9.05043 14.9154 9.06354C14.9291 9.07664 14.9375 9.09397 14.9391 9.11244L15.3389 11.3133L15.7476 9.34259C15.7485 9.33272 15.7514 9.32312 15.7562 9.31435C15.7609 9.30557 15.7675 9.29778 15.7754 9.29144C15.7833 9.2851 15.7925 9.28033 15.8024 9.27741C15.8122 9.27448 15.8226 9.27346 15.8329 9.2744C15.8535 9.28025 15.8713 9.29281 15.8833 9.30992C15.8953 9.32704 15.9007 9.34764 15.8986 9.36816C15.8686 10.086 15.9733 10.8032 16.2078 11.4855C16.1936 10.8108 16.3891 10.1473 16.7693 9.57956C16.7738 9.57207 16.7799 9.56554 16.7872 9.56035C16.7944 9.55516 16.8027 9.55142 16.8115 9.54935C16.8203 9.54728 16.8294 9.54693 16.8383 9.54831C16.8472 9.54969 16.8558 9.55278 16.8634 9.55739C16.8798 9.56917 16.8923 9.5853 16.8992 9.60378C16.9062 9.62226 16.9073 9.64228 16.9025 9.66138C16.7334 10.4265 16.8218 11.2234 17.1549 11.9373L17.8034 10.5735C17.8067 10.5646 17.8119 10.5565 17.8186 10.5497C17.8253 10.5428 17.8335 10.5374 17.8425 10.5337C17.8515 10.5301 17.8612 10.5282 17.871 10.5283C17.8808 10.5284 17.8904 10.5304 17.8994 10.5342C17.9178 10.5444 17.9323 10.56 17.9406 10.5788C17.949 10.5976 17.9507 10.6184 17.9456 10.6382L17.608 12.355C18.3216 11.8881 18.8135 11.1691 18.9762 10.3552C18.9775 10.3451 18.9809 10.3354 18.9862 10.3265C18.9914 10.3177 18.9985 10.31 19.0069 10.3038C19.0154 10.2976 19.025 10.2931 19.0353 10.2905C19.0456 10.2879 19.0563 10.2873 19.0668 10.2887C19.0877 10.2967 19.1051 10.3115 19.1158 10.3305C19.1265 10.3495 19.1299 10.3716 19.1254 10.3927L18.8873 12.1163L19.8184 10.7831C19.8273 10.7687 19.8417 10.758 19.8585 10.7532C19.8753 10.7485 19.8933 10.75 19.909 10.7576C19.9253 10.7677 19.9383 10.782 19.9465 10.7989C19.9546 10.8158 19.9577 10.8346 19.9552 10.853L19.7598 12.7692L20.7477 10.5632C20.753 10.5471 20.7642 10.5335 20.7793 10.5247C20.7943 10.5159 20.8121 10.5126 20.8295 10.5155C20.847 10.5208 20.8624 10.5312 20.8736 10.5452C20.8847 10.5593 20.891 10.5763 20.8916 10.5939C20.9516 11.133 20.9106 11.678 20.7708 12.2032C21.1184 11.4928 21.2684 10.7082 21.2062 9.92564C21.203 9.90456 21.2076 9.88308 21.2193 9.86499C21.231 9.8469 21.249 9.83336 21.2701 9.82675C21.2806 9.82532 21.2912 9.82598 21.3014 9.8287C21.3116 9.83142 21.321 9.83613 21.3292 9.84254C21.3374 9.84895 21.3441 9.85691 21.3489 9.86593C21.3538 9.87495 21.3566 9.88482 21.3572 9.89494C21.5497 10.8334 21.4885 11.8036 21.1795 12.713C21.4922 12.2919 21.8227 11.8606 22.1923 11.4293C22.1974 11.4223 22.204 11.4163 22.2115 11.4118C22.2191 11.4073 22.2276 11.4044 22.2364 11.4031C22.2452 11.4018 22.2541 11.4023 22.2628 11.4044C22.2714 11.4066 22.2795 11.4104 22.2865 11.4156C22.3019 11.4284 22.3132 11.4451 22.3192 11.4638C22.3252 11.4825 22.3256 11.5024 22.3203 11.5213C22.0964 12.3345 22.1603 13.3216 22.5122 14.457C22.6472 14.8934 22.8124 15.3264 22.9706 15.7458C23.1607 16.2436 23.3562 16.7568 23.5036 17.2801C23.9585 18.8929 23.9763 20.6471 23.9212 22.2871C24.1013 21.7922 24.3242 21.3127 24.5876 20.8534C24.7031 20.6403 24.8114 20.4391 24.9109 20.2363C25.9096 18.1905 25.874 15.6418 25.707 13.4171C25.5595 11.4548 25.2965 9.17551 24.4632 7.1451C23.3242 4.39014 21.1351 2.18925 18.4555 1.1084C16.0265 0.128145 13.2617 0.0531322 10.4596 0.888484C8.12653 1.58234 6.13464 2.82514 4.70247 4.4822C3.18679 6.23303 2.08689 8.66749 1.52007 11.5213C1.06163 13.8177 0.924817 16.3647 1.1025 19.5441Z" fill="#0D0D0D"/>
<path id="Vector_63" d="M8.13181 22.9775C8.36439 22.9775 8.55293 22.7547 8.55293 22.4797C8.55293 22.2048 8.36439 21.9819 8.13181 21.9819C7.89923 21.9819 7.71069 22.2048 7.71069 22.4797C7.71069 22.7547 7.89923 22.9775 8.13181 22.9775Z" fill="#302113"/>
<path id="Vector_64" d="M7.9678 22.2447C8.05809 22.2447 8.13128 22.1584 8.13128 22.052C8.13128 21.9456 8.05809 21.8594 7.9678 21.8594C7.87752 21.8594 7.80432 21.9456 7.80432 22.052C7.80432 22.1584 7.87752 22.2447 7.9678 22.2447Z" fill="#F4F4F4"/>
<path id="Vector_65" d="M13.0702 42.4518C12.6757 42.4523 12.2827 42.4077 11.8992 42.3188C10.7443 42.0477 9.58929 41.3454 8.47518 40.2321C7.48368 39.245 6.63788 38.0619 5.80986 36.918C5.05113 35.8593 4.26752 34.7631 3.78599 33.4607C3.15342 31.7439 3.11432 29.8363 3.07523 27.9917C3.0468 26.696 3.01837 25.3543 2.7856 24.086C2.78026 24.0641 2.78347 24.0411 2.7946 24.0213C2.80573 24.0015 2.82403 23.9863 2.84603 23.9786C2.85685 23.9769 2.86792 23.9774 2.87852 23.9801C2.88912 23.9828 2.89902 23.9876 2.90757 23.9941C2.91611 24.0007 2.92312 24.009 2.92813 24.0183C2.93314 24.0277 2.93603 24.038 2.93663 24.0485C3.17296 25.3339 3.20139 26.6824 3.22804 27.9865C3.26713 29.8141 3.30801 31.7047 3.92814 33.3874C4.39902 34.6677 5.17196 35.7519 5.92714 36.797C6.74273 37.9358 7.58496 39.1121 8.56402 40.0889C9.66214 41.1834 10.7905 41.8721 11.9206 42.1347C13.4469 42.4944 15.1634 42.1057 16.7554 41.0419C18.0259 40.1895 19.2218 38.9433 20.5189 37.1072C21.2098 36.1688 21.7852 35.1568 22.2336 34.0914C23.1043 31.9025 23.2357 29.6692 23.3743 27.3029C23.449 26.038 23.5254 24.7304 23.7173 23.3529C23.7177 23.3423 23.7204 23.3319 23.7252 23.3223C23.7299 23.3127 23.7367 23.3042 23.745 23.2971C23.7533 23.2901 23.763 23.2848 23.7735 23.2815C23.784 23.2782 23.7951 23.277 23.8061 23.2779C23.8284 23.2849 23.8472 23.2996 23.859 23.3191C23.8708 23.3386 23.8748 23.3615 23.8701 23.3836C23.68 24.7474 23.6036 26.055 23.5289 27.3166C23.3885 29.7033 23.2571 31.9485 22.3722 34.1699C21.9185 35.2483 21.3365 36.2728 20.6379 37.2232C19.3284 39.0763 18.1183 40.3395 16.8301 41.2004C15.6111 42.0256 14.3087 42.4518 13.0702 42.4518Z" fill="#0D0D0D"/>
<path id="Vector_66" d="M24.0719 29.5957C23.8189 29.5855 23.5695 29.5342 23.3345 29.444C23.3131 29.4343 23.296 29.4177 23.2863 29.3971C23.2765 29.3765 23.2747 29.3532 23.2811 29.3315C23.2823 29.3211 23.2859 29.3111 23.2914 29.3021C23.297 29.2932 23.3044 29.2854 23.3134 29.2795C23.3223 29.2735 23.3324 29.2694 23.3431 29.2675C23.3538 29.2656 23.3648 29.2659 23.3753 29.2684C23.6326 29.3738 23.9116 29.421 24.1909 29.4065C24.3302 29.3938 24.464 29.3476 24.5798 29.2722C24.6957 29.1968 24.7899 29.0947 24.8537 28.9752C24.9585 28.7187 25.0057 28.4439 24.9923 28.1688C25.0646 25.9137 25.3802 23.6719 25.934 21.4792V21.4536C26.0234 21.1709 26.0636 20.876 26.0531 20.5807C26.0282 20.3131 25.8754 20.0164 25.6426 19.9687C25.4099 19.921 25.2179 20.0966 25.0794 20.2483C25.0731 20.2567 25.0649 20.2636 25.0553 20.2684C25.0457 20.2731 25.0351 20.2756 25.0243 20.2756C25.0135 20.2756 25.0029 20.2731 24.9933 20.2684C24.9837 20.2636 24.9754 20.2567 24.9692 20.2483C24.9546 20.2299 24.9468 20.2075 24.9468 20.1844C24.9468 20.1613 24.9546 20.1388 24.9692 20.1204C25.2037 19.8613 25.4436 19.7488 25.664 19.7931C25.9731 19.8562 26.1686 20.2295 26.197 20.5654C26.209 20.8853 26.1664 21.2049 26.0709 21.5116V21.5371C25.5207 23.7124 25.2075 25.9366 25.1362 28.1739C25.1498 28.4821 25.0947 28.7896 24.9745 29.0758C24.8996 29.2169 24.7889 29.3378 24.6526 29.4271C24.5163 29.5165 24.3588 29.5715 24.1945 29.5872C24.1538 29.5922 24.1129 29.595 24.0719 29.5957Z" fill="#0D0D0D"/>
<path id="Vector_67" d="M2.99476 29.4284C2.75274 29.4374 2.51295 29.3811 2.30255 29.266C2.09215 29.1509 1.91952 28.9816 1.80423 28.7772C1.65311 28.4687 1.58587 28.1286 1.60878 27.7884C1.60878 27.5668 1.64254 27.3469 1.66919 27.1355C1.6834 27.0264 1.69764 26.919 1.7083 26.8116C1.84156 25.4784 1.56436 23.9936 0.880264 22.4013C0.857164 22.345 0.832282 22.2888 0.807406 22.2308C0.597352 21.8077 0.455366 21.3565 0.386285 20.8925C0.332979 20.3811 0.491121 19.7469 0.963772 19.4997C0.973426 19.495 0.984072 19.4926 0.994876 19.4924C1.00568 19.4923 1.01637 19.4946 1.02613 19.499C1.0359 19.5034 1.04448 19.5099 1.05123 19.518C1.05797 19.5261 1.06271 19.5356 1.06507 19.5457C1.07401 19.5671 1.075 19.5909 1.06789 19.6129C1.06077 19.6349 1.04596 19.654 1.02596 19.6668C0.62616 19.8748 0.492896 20.422 0.539095 20.8721C0.608155 21.3141 0.745294 21.7439 0.946008 22.1472C0.969107 22.2035 0.993988 22.2598 1.01709 22.3177C1.7154 23.9441 1.9997 25.4631 1.86111 26.832C1.85045 26.9429 1.83624 27.052 1.82202 27.1611C1.79537 27.3691 1.7687 27.5839 1.76159 27.7936C1.74192 28.0982 1.80306 28.4026 1.93928 28.6783C2.06189 28.8824 2.2471 29.0453 2.46968 29.1447C2.69225 29.2442 2.94137 29.2754 3.1831 29.2341C3.19421 29.2339 3.20527 29.2358 3.21561 29.2397C3.22595 29.2436 3.23536 29.2495 3.24331 29.257C3.25125 29.2644 3.25757 29.2733 3.26188 29.2832C3.26618 29.293 3.26839 29.3036 3.26838 29.3142C3.27218 29.3363 3.26716 29.3589 3.25431 29.3776C3.24146 29.3962 3.22175 29.4095 3.1991 29.4148C3.13138 29.4237 3.06311 29.4283 2.99476 29.4284Z" fill="#0D0D0D"/>
<path id="Vector_68" d="M15.851 21.9839C15.833 21.983 15.8158 21.9763 15.8022 21.9648C15.7887 21.9534 15.7796 21.9379 15.7764 21.9208C15.7699 21.8992 15.7713 21.8761 15.7803 21.8553C15.7894 21.8345 15.8055 21.8174 15.8261 21.8066C17.0712 21.3386 18.4546 21.3386 19.6997 21.8066C19.7209 21.8168 19.7376 21.8339 19.7471 21.8548C19.7565 21.8756 19.7579 21.899 19.7513 21.9208C19.7499 21.9312 19.7462 21.9412 19.7404 21.95C19.7347 21.9589 19.7269 21.9664 19.7178 21.9721C19.7086 21.9778 19.6983 21.9815 19.6875 21.983C19.6767 21.9844 19.6657 21.9836 19.6553 21.9805C18.4396 21.5252 17.0898 21.5252 15.8741 21.9805L15.851 21.9839Z" fill="#0D0D0D"/>
<path id="Vector_69" d="M15.8666 24.962C15.8482 24.9607 15.8308 24.9534 15.8172 24.9413C15.8037 24.9292 15.7948 24.9131 15.792 24.8955C15.7856 24.8738 15.7874 24.8505 15.7971 24.8299C15.8069 24.8093 15.824 24.7927 15.8453 24.783C17.0961 24.3539 18.4579 24.324 19.7278 24.6978C19.7491 24.7071 19.7663 24.7233 19.7764 24.7436C19.7865 24.7638 19.7888 24.7869 19.7829 24.8086C19.7821 24.8191 19.779 24.8293 19.7738 24.8385C19.7685 24.8477 19.7613 24.8558 19.7525 24.8621C19.7438 24.8684 19.7337 24.8728 19.723 24.8751C19.7123 24.8773 19.7012 24.8773 19.6905 24.8751C18.4468 24.5084 17.1128 24.5377 15.888 24.9586L15.8666 24.962Z" fill="#0D0D0D"/>
<path id="Vector_70" d="M21.7513 21.0547C21.7392 21.0547 21.7274 21.0511 21.7175 21.0445C20.7442 20.4828 19.6407 20.162 18.5062 20.1108C17.3716 20.0596 16.2416 20.2797 15.2177 20.7512C15.2028 20.7575 15.1861 20.7585 15.1705 20.7541C15.1549 20.7498 15.1414 20.7403 15.1324 20.7274C14.7839 20.2781 14.6339 19.7153 14.7148 19.1607C14.7155 19.1444 14.7209 19.1287 14.7303 19.1151C14.7397 19.1016 14.7528 19.0908 14.7681 19.0839C15.5985 18.7841 16.484 18.6505 17.3701 18.6912C18.2563 18.732 19.1245 18.9463 19.9211 19.3209C20.8095 19.7267 21.4172 20.2466 21.8081 20.9115C21.8186 20.9282 21.8242 20.9474 21.8242 20.9669C21.8242 20.9864 21.8186 21.0056 21.8081 21.0223C21.8021 21.0317 21.7938 21.0396 21.7839 21.0452C21.774 21.0509 21.7628 21.0541 21.7513 21.0547ZM18.1709 19.921C19.3304 19.9226 20.4717 20.1984 21.4936 20.724C21.0694 20.1877 20.5108 19.7631 19.8696 19.4897C19.0957 19.1258 18.2531 18.9162 17.3925 18.8734C16.5319 18.8307 15.6712 18.9556 14.8623 19.2408C14.8045 19.7073 14.9314 20.1775 15.2177 20.5586C16.1409 20.1393 17.1495 19.9216 18.1709 19.921Z" fill="#0D0D0D"/>
<path id="Vector_71" d="M17.7595 26.1675C17.6867 26.1675 17.6138 26.1675 17.5392 26.1555C17.2128 26.1111 16.9005 25.9986 16.6242 25.826C16.3479 25.6535 16.1144 25.4249 15.94 25.1565C15.5282 24.5513 15.3404 23.8307 15.4069 23.1108C15.5277 21.5764 16.6827 20.4445 17.9816 20.5877C19.2805 20.7309 20.2383 22.0947 20.1139 23.629C20.0002 25.0781 18.966 26.1675 17.7595 26.1675ZM17.7595 20.7616C16.6312 20.7616 15.6646 21.7844 15.5579 23.1312C15.4442 24.565 16.3415 25.8401 17.5552 25.9731C18.7688 26.1061 19.8491 25.0491 19.9628 23.6154C20.0766 22.1816 19.1792 20.9065 17.9656 20.7735C17.8967 20.7652 17.8272 20.7613 17.7577 20.7616H17.7595Z" fill="#0D0D0D"/>
<path id="Vector_72" d="M10.1339 21.4448C10.1263 21.4464 10.1185 21.4464 10.1108 21.4448C8.89465 20.9887 7.54406 20.9887 6.32787 21.4448C6.31745 21.4479 6.30645 21.4487 6.29566 21.4473C6.28487 21.4459 6.27453 21.4422 6.26538 21.4365C6.25623 21.4308 6.2485 21.4232 6.24271 21.4144C6.23693 21.4055 6.23325 21.3955 6.23191 21.3852C6.22521 21.3634 6.2267 21.34 6.23612 21.3191C6.24553 21.2982 6.26229 21.2812 6.28345 21.271C7.52857 20.8029 8.91191 20.8029 10.157 21.271C10.1779 21.2815 10.1942 21.2986 10.2033 21.3195C10.2124 21.3403 10.2136 21.3636 10.2068 21.3852C10.2027 21.4012 10.1935 21.4156 10.1804 21.4263C10.1674 21.437 10.1511 21.4435 10.1339 21.4448Z" fill="#0D0D0D"/>
<path id="Vector_73" d="M10.1112 24.4231H10.0898C8.86495 24.0022 7.53101 23.9729 6.28732 24.3396C6.27652 24.3418 6.26535 24.3418 6.25455 24.3396C6.24375 24.3373 6.23356 24.3329 6.22466 24.3267C6.21576 24.3204 6.20836 24.3123 6.20293 24.3031C6.19749 24.2939 6.19416 24.2837 6.19314 24.2731C6.18702 24.2512 6.18941 24.2278 6.19987 24.2075C6.21033 24.1871 6.22813 24.171 6.24999 24.1623C7.51992 23.7886 8.88169 23.8185 10.1325 24.2475C10.1537 24.2572 10.1707 24.2739 10.1802 24.2946C10.1896 24.3152 10.191 24.3385 10.184 24.3601C10.1812 24.377 10.1725 24.3924 10.1592 24.4039C10.1459 24.4154 10.129 24.4222 10.1112 24.4231Z" fill="#0D0D0D"/>
<path id="Vector_74" d="M4.22605 20.5158C4.21427 20.5154 4.20279 20.5122 4.19258 20.5066C4.18237 20.5009 4.17373 20.493 4.16742 20.4834C4.15692 20.4667 4.15137 20.4476 4.15137 20.428C4.15137 20.4085 4.15692 20.3893 4.16742 20.3726C4.56011 19.7077 5.17669 19.1878 6.05624 18.7803C6.85308 18.4062 7.72124 18.1923 8.60739 18.1518C9.49354 18.1114 10.3789 18.2452 11.2092 18.5451C11.2249 18.5517 11.2384 18.5624 11.2481 18.5759C11.2578 18.5895 11.2634 18.6054 11.2643 18.6218C11.3443 19.1766 11.1937 19.7394 10.8449 20.1885C10.8362 20.2013 10.823 20.2107 10.8077 20.2151C10.7924 20.2195 10.776 20.2185 10.7614 20.2124C9.73749 19.7408 8.60747 19.5207 7.47294 19.5719C6.3384 19.6231 5.2349 19.9439 4.2616 20.5056C4.25111 20.5124 4.2387 20.516 4.22605 20.5158ZM8.92058 18.3252C7.94579 18.3274 6.98418 18.5413 6.10778 18.9508C5.46707 19.2242 4.90896 19.6489 4.48549 20.1851C5.44556 19.6871 6.51402 19.4123 7.60497 19.3827C8.69591 19.3531 9.77889 19.5695 10.7668 20.0146C11.0531 19.6336 11.1799 19.1633 11.1221 18.6968C10.4167 18.4499 9.67148 18.3241 8.92058 18.3252Z" fill="#0D0D0D"/>
<path id="Vector_75" d="M8.20997 25.6284C7.00347 25.6284 5.96932 24.5391 5.8556 23.0934C5.79049 22.3735 5.97812 21.6534 6.38867 21.0476C6.56381 20.78 6.79758 20.5521 7.07374 20.3799C7.3499 20.2077 7.66183 20.0952 7.98786 20.0503C9.28676 19.9071 10.4417 21.0391 10.5626 22.5734C10.6834 24.1077 9.72387 25.4716 8.4303 25.6131C8.35725 25.6224 8.28367 25.6276 8.20997 25.6284ZM8.20997 20.2225C8.14107 20.2222 8.07221 20.2262 8.00385 20.2344C7.69817 20.275 7.40553 20.3795 7.14666 20.5407C6.8878 20.7018 6.66906 20.9156 6.50595 21.1669C6.12134 21.7318 5.9455 22.4042 6.00663 23.0763C6.11858 24.5101 7.19893 25.567 8.41254 25.4341C9.62615 25.3011 10.5235 24.0259 10.4098 22.5922C10.3138 21.2403 9.34896 20.2225 8.22064 20.2225H8.20997Z" fill="#0D0D0D"/>
<path id="Vector_76" d="M12.7997 31.4421C12.7339 31.4425 12.6685 31.4327 12.606 31.4131C12.4451 31.3487 12.2998 31.2529 12.1796 31.1318C12.0745 31.0241 11.9475 30.9382 11.8064 30.8795C11.6576 30.8446 11.5021 30.8446 11.3533 30.8795C11.2698 30.8935 11.1856 30.9032 11.101 30.9085C10.8708 30.9067 10.6455 30.845 10.449 30.73C10.2525 30.615 10.0922 30.451 9.98511 30.2555C9.86083 30.0335 9.78394 29.79 9.75892 29.5391C9.7339 29.2882 9.76127 29.0351 9.83942 28.7945C9.90562 28.574 10.0277 28.3726 10.1949 28.2084C10.362 28.0442 10.5689 27.9222 10.7972 27.8535C10.8081 27.8518 10.8193 27.8523 10.8301 27.8551C10.8408 27.8579 10.8507 27.8628 10.8593 27.8696C10.8679 27.8764 10.8749 27.8848 10.8798 27.8944C10.8847 27.904 10.8874 27.9144 10.8878 27.9251C10.8931 27.947 10.8899 27.97 10.8788 27.9898C10.8676 28.0095 10.8494 28.0247 10.8274 28.0325C10.6259 28.0928 10.4433 28.2003 10.296 28.3453C10.1487 28.4902 10.0412 28.668 9.98333 28.8627C9.91431 29.0749 9.89007 29.2982 9.91204 29.5195C9.934 29.7408 10.0017 29.9556 10.1113 30.1515C10.2059 30.3239 10.3473 30.4684 10.5206 30.5699C10.694 30.6713 10.8927 30.7259 11.0957 30.7278C11.1755 30.722 11.255 30.7123 11.3338 30.6988C11.5023 30.6579 11.6788 30.6579 11.8473 30.6988C12.0071 30.7642 12.1515 30.8599 12.272 30.9801C12.3793 31.088 12.5088 31.1733 12.6522 31.2307C12.8779 31.3023 13.1053 31.1983 13.347 31.0875C13.4941 31.0121 13.6505 30.9548 13.8125 30.917C14.0063 30.8907 14.2032 30.8953 14.3953 30.9306C14.6195 30.9817 14.8542 30.9711 15.0723 30.8999C15.3353 30.7891 15.5503 30.4959 15.7102 30.0339C15.8361 29.6945 15.8934 29.3352 15.879 28.9752C15.8701 28.6329 15.7369 28.3042 15.5023 28.0461C15.4034 27.9383 15.2699 27.8652 15.1228 27.8383C14.9758 27.8115 14.8236 27.8324 14.6903 27.8978C14.6808 27.9028 14.6703 27.9057 14.6594 27.9062C14.6486 27.9067 14.6379 27.9048 14.6279 27.9007C14.618 27.8966 14.6091 27.8903 14.6021 27.8824C14.595 27.8746 14.59 27.8652 14.5872 27.8552C14.5786 27.834 14.5774 27.8108 14.5838 27.7889C14.5902 27.7671 14.6039 27.7478 14.6228 27.7341C14.7821 27.6525 14.9655 27.625 15.1432 27.6559C15.3209 27.6869 15.4825 27.7745 15.6018 27.9046C15.8689 28.1969 16.021 28.5696 16.0318 28.9582C16.0496 29.3463 15.9893 29.7341 15.8542 30.1004C15.6765 30.6118 15.433 30.9392 15.1274 31.0704C14.8868 31.1506 14.6276 31.1641 14.3793 31.1096C14.2036 31.0774 14.0237 31.0722 13.8463 31.0943C13.6949 31.1306 13.5488 31.1844 13.4109 31.2545C13.2246 31.3605 13.0156 31.4246 12.7997 31.4421Z" fill="#0D0D0D"/>
<path id="Vector_77" d="M12.7672 31.3074C12.3922 31.3074 11.9978 31.067 11.5909 30.5914C11.5678 30.5658 11.5447 30.5385 11.5233 30.5113C11.4155 30.371 11.2895 30.2443 11.1484 30.1345C11.0802 30.0758 10.9955 30.0376 10.9049 30.0246C10.8142 30.0116 10.7216 30.0243 10.6385 30.0612C10.5938 30.0876 10.555 30.1224 10.5245 30.1633C10.494 30.2043 10.4723 30.2507 10.4608 30.2999C10.4389 30.375 10.4446 30.455 10.4768 30.5266C10.4878 30.547 10.4913 30.5704 10.4868 30.593C10.4823 30.6155 10.47 30.636 10.4519 30.651C10.4432 30.6573 10.4331 30.6614 10.4225 30.6632C10.4118 30.665 10.4009 30.6644 10.3905 30.6614C10.3801 30.6585 10.3707 30.6532 10.3628 30.6461C10.355 30.6389 10.3489 30.6301 10.3453 30.6204C10.2886 30.4935 10.28 30.3516 10.3209 30.2193C10.3618 30.087 10.4496 29.9726 10.5692 29.8958C10.6744 29.8471 10.7921 29.829 10.9079 29.8435C11.0237 29.858 11.1326 29.9046 11.2213 29.9777C11.3743 30.0953 11.5105 30.2317 11.6264 30.3834C11.6495 30.409 11.6708 30.4362 11.6939 30.4635C12.1026 30.9392 12.4899 31.1608 12.8435 31.1199C13.1971 31.0789 13.4353 30.8437 13.7142 30.588C13.8916 30.4146 14.0896 30.2618 14.3042 30.1328C14.4961 30.0271 14.7573 29.9862 14.9101 30.1839C14.9606 30.2635 14.9915 30.3531 15.0004 30.4459C15.0093 30.5386 14.996 30.6321 14.9616 30.7192C14.9011 30.8601 14.8157 30.9898 14.7093 31.1028L14.6986 31.1148C14.6923 31.1222 14.6843 31.1283 14.6752 31.1324C14.6662 31.1366 14.6562 31.1387 14.6462 31.1387C14.6362 31.1387 14.6262 31.1366 14.6172 31.1324C14.6081 31.1283 14.6001 31.1222 14.5938 31.1148C14.5787 31.0977 14.5696 31.0765 14.5677 31.0542C14.5657 31.0319 14.5712 31.0095 14.5831 30.9903L14.5938 30.975C14.5995 30.9659 14.6067 30.9578 14.6151 30.9511C14.7013 30.8597 14.7704 30.7548 14.8194 30.6408C14.8429 30.5861 14.8532 30.527 14.8495 30.468C14.8458 30.4089 14.8282 30.3515 14.7981 30.2999C14.7004 30.1737 14.5067 30.2163 14.3699 30.2913C14.1662 30.4147 13.9783 30.5606 13.8102 30.7261C13.5259 30.9852 13.2309 31.2528 12.8613 31.2955L12.7672 31.3074Z" fill="#0D0D0D"/>
<path id="Vector_78" d="M12.6859 35.7601C12.5121 35.7601 12.3383 35.7515 12.1653 35.7345C11.315 35.6541 10.5035 35.3529 9.81807 34.8634C9.05068 34.2686 8.48021 33.4725 8.17623 32.5721C8.16792 32.5507 8.16742 32.5273 8.17485 32.5056C8.18227 32.4839 8.19718 32.4653 8.2171 32.4528C8.22707 32.4488 8.23782 32.4469 8.24862 32.4473C8.25941 32.4477 8.27 32.4503 8.27963 32.455C8.28926 32.4597 8.29771 32.4664 8.3044 32.4745C8.31109 32.4827 8.31586 32.4921 8.31837 32.5022C8.61488 33.367 9.16298 34.1325 9.89802 34.7082C10.5636 35.1862 11.3524 35.4809 12.1795 35.5606C14.2034 35.7635 16.3357 34.7253 17.6079 32.9148C17.6132 32.9059 17.6205 32.8983 17.6294 32.8927C17.6383 32.8871 17.6484 32.8835 17.659 32.8824C17.6695 32.8812 17.6802 32.8825 17.6902 32.886C17.7002 32.8896 17.7091 32.8953 17.7163 32.9028C17.7324 32.9201 17.7422 32.9419 17.7442 32.965C17.7461 32.9881 17.7401 33.0112 17.727 33.0307C16.5311 34.7253 14.5961 35.7601 12.6859 35.7601Z" fill="#0D0D0D"/>
<path id="Vector_79" d="M17.7447 24.1421C18.2599 24.1421 18.6776 23.649 18.6776 23.0408C18.6776 22.4325 18.2599 21.9395 17.7447 21.9395C17.2295 21.9395 16.8118 22.4325 16.8118 23.0408C16.8118 23.649 17.2295 24.1421 17.7447 24.1421Z" fill="#3FA6DB"/>
<path id="Vector_80" d="M17.7445 23.5386C17.9771 23.5386 18.1657 23.3157 18.1657 23.0408C18.1657 22.7658 17.9771 22.543 17.7445 22.543C17.512 22.543 17.3234 22.7658 17.3234 23.0408C17.3234 23.3157 17.512 23.5386 17.7445 23.5386Z" fill="#302113"/>
<path id="Vector_81" d="M17.5809 22.8037C17.6712 22.8037 17.7444 22.7175 17.7444 22.6111C17.7444 22.5047 17.6712 22.4185 17.5809 22.4185C17.4906 22.4185 17.4174 22.5047 17.4174 22.6111C17.4174 22.7175 17.4906 22.8037 17.5809 22.8037Z" fill="#F4F4F4"/>
<path id="Vector_82" d="M7.92737 23.7124C8.44258 23.7124 8.86023 23.2193 8.86023 22.6111C8.86023 22.0028 8.44258 21.5098 7.92737 21.5098C7.41216 21.5098 6.99451 22.0028 6.99451 22.6111C6.99451 23.2193 7.41216 23.7124 7.92737 23.7124Z" fill="#3FA6DB"/>
<path id="Vector_83" d="M11.3429 36.7915C11.3032 36.7909 11.2649 36.7776 11.2341 36.7537C11.2032 36.7298 11.1816 36.6968 11.1726 36.6597C11.1636 36.6227 11.1678 36.5838 11.1845 36.5493C11.2012 36.5148 11.2294 36.4866 11.2647 36.4693C11.7759 36.2234 12.3391 36.0935 12.9109 36.0897C13.4828 36.0858 14.0478 36.2081 14.5626 36.4471C14.5842 36.4565 14.6037 36.4699 14.6199 36.4866C14.6361 36.5033 14.6486 36.5229 14.6567 36.5443C14.6648 36.5657 14.6684 36.5885 14.6672 36.6113C14.666 36.634 14.66 36.6563 14.6497 36.6768C14.6394 36.6973 14.6249 36.7157 14.607 36.7307C14.5892 36.7457 14.5684 36.7572 14.5458 36.7644C14.5233 36.7716 14.4995 36.7744 14.4758 36.7726C14.4521 36.7708 14.4291 36.7645 14.408 36.754C13.9423 36.5369 13.4307 36.4257 12.9129 36.4293C12.3951 36.4328 11.8852 36.551 11.4228 36.7745C11.3979 36.786 11.3705 36.7919 11.3429 36.7915Z" fill="#1F1B1B"/>
<path id="Vector_84" d="M7.92747 23.0885C8.15122 23.0885 8.33261 22.8748 8.33261 22.6111C8.33261 22.3475 8.15122 22.1338 7.92747 22.1338C7.70373 22.1338 7.52234 22.3475 7.52234 22.6111C7.52234 22.8748 7.70373 23.0885 7.92747 23.0885Z" fill="#302113"/>
<path id="Vector_85" d="M7.7323 22.3963C7.801 22.3963 7.85668 22.3306 7.85668 22.2496C7.85668 22.1687 7.801 22.103 7.7323 22.103C7.66361 22.103 7.60791 22.1687 7.60791 22.2496C7.60791 22.3306 7.66361 22.3963 7.7323 22.3963Z" fill="#F4F4F4"/>
</g>
</g>
</svg>
