<svg width="110" height="180" viewBox="0 0 110 180" fill="none" xmlns="http://www.w3.org/2000/svg">
<g id="Group">
<g id="Group 1">
<path id="Vector" d="M97.6688 126.017L99.5727 98.0751C100.032 91.3315 100.491 84.4579 99.2115 77.8587C98.656 75.2294 97.9602 72.6291 97.127 70.0682L94.8241 62.5592C93.3943 57.8878 91.957 52.7471 93.3643 48.0612C91.3926 49.3609 90.5046 52.6316 88.3674 54.2417C89.0785 51.3269 89.4595 48.3469 89.5037 45.3537C89.5701 44.3412 89.4426 43.3256 89.1274 42.3573L88.7662 45.3825C88.4502 48.054 88.0137 50.9276 86.4183 52.8193C87.0211 50.0623 87.2613 47.2438 87.1332 44.4295C85.9743 48.119 84.0628 51.4041 82.1664 54.6388C82.5828 51.5726 82.9114 48.4896 83.1522 45.3898C82.2943 46.4635 81.5029 47.5845 80.7818 48.7471L78.5242 52.2128C79.0408 49.6589 79.3876 47.0761 79.5626 44.48C79.21 45.685 78.6171 46.813 77.8167 47.8013C76.4621 49.7074 74.9797 51.7074 72.9629 52.4149C73.923 49.9674 74.4494 47.383 74.5206 44.7688C73.6637 46.8801 72.689 48.9457 71.6007 50.9565C69.8223 47.7891 69.1998 44.1418 69.8323 40.5956C68.2187 43.3846 67.563 46.5907 67.9584 49.7579C66.6533 46.9578 65.8884 43.9537 65.7008 40.8916C65.0611 43.5342 64.5795 46.4656 64.0904 49.3897C63.71 47.7251 63.4585 46.0358 63.3378 44.3356C63.1798 43.4692 63.1271 43.1515 63.0744 42.8338C62.5853 40.8988 62.2391 39.527 61.9004 38.1479L60.4179 46.5955C59.4798 44.6701 58.6144 42.7159 57.8217 40.7328C58.4087 44.0107 57.3551 47.3897 56.0156 50.3428C56.0939 48.4855 55.7283 46.6358 54.947 44.9349C54.1921 43.3214 53.2774 41.7812 52.2152 40.3357C51.788 42.7018 51.1921 45.0369 50.4317 47.3248C49.9952 45.1587 49.6792 42.9927 49.4309 40.7833C47.0126 43.6673 45.4524 47.1251 44.9156 50.7904L44.3135 43.8807C44.449 45.9818 43.3503 47.8807 42.3043 49.5847L40.9045 51.8662C41.1963 48.8121 41.0723 45.7345 40.5358 42.7111L38.9179 51.5918C37.4563 48.4549 36.3195 45.1877 35.5239 41.8374C34.0124 45.2991 33.6856 49.1319 34.5908 52.7832C32.6737 50.6119 31.6322 47.8526 31.6558 45.0071C31.0673 46.726 30.6712 48.5001 30.4743 50.2995C29.9927 48.35 29.5412 46.545 29.0219 44.7688C27.4372 48.0917 26.8208 51.7646 27.2384 55.3969C25.7498 52.5308 24.9769 49.3717 24.9808 46.1695C24.2492 48.7552 23.9494 51.4359 24.0927 54.1117C23.2181 52.2861 22.6639 50.3345 22.4522 48.3356L21.5191 56.6604C21.1579 54.1117 20.6687 51.6063 20.014 49.1081L20.0667 55.4402C19.1837 53.3271 18.2531 51.2405 17.2748 49.1803C18.4487 52.2272 18.3885 55.7579 17.794 59.0214C17.1995 62.2849 16.0857 65.3895 15.2053 68.5736C13.6024 74.3497 12.752 80.4074 11.9091 86.429C11.6758 88.1041 11.4425 89.7792 11.2769 91.4831C10.9535 94.6862 10.8706 97.9075 11.0286 101.122C8.56028 96.6166 8.93655 90.595 6.69397 85.8803C6.2784 84.867 5.59027 83.9777 4.69972 83.3027C4.29363 83.0012 3.79466 82.8376 3.28117 82.8376C2.76768 82.8376 2.26872 83.0012 1.86262 83.3027C1.15833 84.0088 0.774176 84.9537 0.794071 85.9308C0.803935 86.9342 0.963595 87.9311 1.26818 88.8911C2.35936 92.8622 3.90207 96.6455 5.03089 100.595C6.1597 104.544 6.94983 108.768 6.408 112.869C6.07689 115.396 5.27918 118.082 6.2048 120.393C6.6947 121.607 7.64685 122.598 8.86883 123.165C9.94756 123.601 11.0948 123.859 12.2628 123.93C12.6918 129.88 13.4594 135.894 15.5815 141.317C16.5838 143.774 17.7709 146.158 19.1335 148.45C22.5499 154.397 26.4475 160.077 30.7904 165.439C34.7713 170.349 39.3769 175.063 45.0887 176.269C44.4675 176.177 43.8832 175.928 43.3955 175.547C44.6036 176.867 46.2388 177.76 48.0387 178.081C56.3919 180.154 65.4449 177.973 72.436 172.197C74.1346 170.754 75.7452 169.218 77.2598 167.598C82.3169 162.349 87.2536 156.768 90.7604 150.002C94.6277 142.5 96.9722 134.36 97.6688 126.017Z" fill="#FDC499"/>
<path id="Vector_2" d="M97.99 123.966C99.8111 124.349 101.85 124.688 103.393 123.468C104.695 122.436 105.305 120.508 105.455 118.66C105.606 116.811 105.402 114.948 105.455 113.093C105.508 111.873 105.673 110.667 105.846 109.483C106.527 103.924 107.532 98.4065 108.857 92.9559C109.451 90.6887 110.174 88.3639 109.948 86.0101C109.927 85.5486 109.806 85.0962 109.594 84.6816C109.45 84.4471 109.258 84.2434 109.029 84.0832C108.8 83.9229 108.539 83.8096 108.262 83.7502C107.693 83.6251 107.099 83.6577 106.549 83.8444C105.998 84.031 105.515 84.3639 105.154 84.8043C103.039 88.3494 100.88 92.0245 99.9692 96.1977C99.6458 97.8321 99.4247 99.4837 99.3069 101.143C98.6146 108.818 98.1254 116.544 97.99 123.966Z" fill="#FDC499"/>
<path id="Vector_3" d="M99.8818 94.7459L99.927 88.3994C99.927 83.8868 99.9872 79.2948 98.8735 74.9771C98.1874 72.6076 97.371 70.2747 96.4277 67.988C95.7429 66.1469 95.1183 64.2841 94.4862 62.4141C93.7074 60.2722 93.1036 58.0755 92.68 55.8438C92.2572 53.5759 92.3912 51.2447 93.0714 49.0352C90.8641 50.9944 88.9992 53.281 87.5477 55.8077C88.6916 52.9196 88.985 49.75 89.2559 46.6092C89.4327 45.4296 89.3894 44.2292 89.1281 43.0641C89.1873 45.0655 88.8947 47.0621 88.2626 48.9702C87.6787 50.6326 86.8959 52.2244 85.9298 53.7138C86.7907 50.7446 87.1839 47.6684 87.0961 44.5876L82.2122 55.4178C82.2264 52.0737 82.564 48.7382 83.2206 45.454C81.3468 47.3601 80.361 50.2915 78.4194 52.0965C78.9975 49.5217 79.2976 46.8965 79.3149 44.2627C78.1861 47.8728 75.5522 50.4287 73.0613 52.8402C73.5981 50.2265 74.0321 47.5791 74.3632 44.8981C73.5511 46.9836 72.5436 48.9942 71.353 50.9052C69.8316 47.8214 69.3073 44.3713 69.8479 40.9992C68.0937 43.8194 67.4678 47.1553 68.0869 50.3853C66.462 47.2048 65.6862 43.6867 65.8293 40.1472C65.6556 41.2156 65.4195 42.2739 65.122 43.3168L64.3694 46.0533L63.6621 48.7319C63.6542 47.4342 63.4462 46.1446 63.0449 44.9052C62.8508 44.382 62.6949 43.8464 62.5784 43.3024C62.4951 42.6169 62.4498 41.9276 62.4429 41.2374C62.398 40.4493 62.2566 39.6689 62.0215 38.9125C61.0206 41.0786 61.1184 43.7211 60.4712 46.0821C59.7187 45.1507 59.493 43.8078 59.0264 42.6454C58.7364 41.9663 58.3969 41.3076 58.0105 40.6743C57.6718 43.8583 57.3181 47.1074 56.1216 49.9882C56.3055 47.6507 55.7466 45.3146 54.5187 43.2879C53.7661 42.1544 52.8857 41.2085 52.1707 40.075C51.5336 42.655 50.9867 45.2663 50.5302 47.9088C50.1012 45.8511 49.7777 43.7572 49.5519 41.6562C49.5519 41.7356 49.0703 40.8764 49.0778 40.8909C46.6288 43.7808 45.1607 47.3209 44.871 51.0352L44.1185 43.584C43.9905 46.696 42.7858 49.6785 40.6945 52.0604C41.3864 48.9156 41.3195 45.6605 40.4988 42.5443C40.2247 45.5419 39.6679 48.5094 38.8356 51.4106C37.2256 48.4187 36.1158 45.2026 35.547 41.88C34.1306 45.4381 33.7432 49.2975 34.4257 53.0496C32.6662 50.6573 31.5919 47.8639 31.3102 44.9486C31.3336 46.8807 31.0234 48.8032 30.3921 50.638L28.7967 44.7247C27.4893 48.0294 26.9425 51.5664 27.1938 55.0929C25.8506 52.4792 25.0822 49.6283 24.9362 46.7175C24.3545 49.3431 24.1997 52.0392 24.4772 54.7102L22.1217 48.9341L21.6325 56.6308C21.0154 54.0508 20.5137 51.4347 20.1274 48.7825C19.8864 51.1207 19.9243 53.4777 20.2403 55.8077L17.5387 49.0496C19.0438 54.4431 17.629 60.3058 16.1164 65.6993C13.9717 73.3743 11.6012 81.107 11.3303 89.1863C11.1798 93.4173 11.5937 97.7278 10.7659 101.858L8.01907 89.3308C7.6428 87.6196 7.18373 85.7207 5.93451 84.7676C5.24217 84.2117 4.33911 83.9662 3.84996 83.1575C3.70697 82.9265 3.5339 82.6088 3.29308 82.6738C3.05227 82.7388 3.39093 83.2514 3.40598 82.9626C2.07398 69.9663 2.43524 56.5586 5.97971 44.1616C7.11605 40.1689 8.57599 36.3205 10.0359 32.4722C11.4959 28.6239 13.0461 24.6311 16.3272 22.1546C14.5371 23.753 13.2515 25.8021 12.6171 28.0679C16.7458 19.5966 23.4795 12.5415 31.9123 7.85152C39.8215 3.47612 48.5811 1.53391 57.3106 1.15846C63.0351 0.809756 68.7786 1.4405 74.2729 3.02125C89.4517 7.6638 102.057 22.5156 105.616 40.1544C105.429 38.6821 105.091 37.2311 104.608 35.8223C107.505 43.1724 108.167 51.4539 108.423 59.5549C108.679 67.5404 108.544 75.793 105.842 83.1215C105.055 85.1739 104.158 87.1861 103.155 89.1503C102.14 91.2224 101.086 93.374 99.8818 94.7459Z" fill="#896E56"/>
<path id="Vector_4" d="M61.6455 80.9923C61.5305 82.7797 61.818 84.5699 62.4883 86.2413C62.5482 86.4682 62.6963 86.6645 62.9022 86.79C63.0345 86.8299 63.1763 86.8299 63.3086 86.79C67.869 85.9236 72.3391 84.0608 76.9597 84.2846C78.0374 84.3548 79.1102 84.4825 80.1731 84.6673L83.0854 85.1149C84.2606 85.2492 85.4198 85.491 86.5471 85.8369C88.0217 86.4241 89.4206 87.1728 90.7162 88.068C90.2385 86.7295 89.3457 85.563 88.1575 84.7251C82.8446 80.4868 76.2297 79.1006 69.8181 79.0645C67.0412 79.0861 64.1063 79.375 61.6455 80.9923Z" fill="#896E56"/>
<path id="Vector_5" d="M17.1482 85.7219C19.2252 84.2779 21.7311 83.9891 24.0791 83.2815C25.0047 83.0071 25.9228 82.6533 26.856 82.4151C29.0755 81.9138 31.3747 81.8256 33.6289 82.1552C34.843 82.2948 36.047 82.4897 37.241 82.74C39.2871 83.1702 41.2893 83.7742 43.2238 84.545C43.5643 84.7362 43.968 84.7956 44.3526 84.7111C44.7363 84.5158 45.0351 84.1959 45.1954 83.8086C46.0175 82.2944 46.4995 80.6317 46.6102 78.9278C46.6363 78.8405 46.6363 78.7479 46.6102 78.6606C46.5615 78.5886 46.4862 78.5371 46.3995 78.5162C42.3774 77.1264 38.0779 76.6349 33.8281 77.079C29.5783 77.5232 25.49 78.8913 21.8742 81.0794C19.8631 82.1546 18.2211 83.7676 17.1482 85.7219Z" fill="#896E56"/>
<path id="Vector_6" d="M70.4864 87.9734C68.4847 88.6449 66.9946 90.6304 65.9712 92.7604C65.1965 94.2899 64.7026 95.9361 64.5112 97.6267C64.3049 100.026 64.8277 102.431 66.0163 104.551C67.1075 106.476 68.7362 108.071 70.7197 109.157C71.4004 109.539 72.1356 109.824 72.9021 110.002C74.8387 110.301 76.8229 109.93 78.501 108.955C79.2629 108.584 79.9567 108.096 80.5554 107.511C82.0605 106.067 82.7454 103.771 83.3925 101.612C83.8093 100.416 84.0474 99.1688 84.0999 97.9083C84.0344 96.5105 83.6815 95.1388 83.0614 93.8723C82.1207 91.7062 80.8565 89.6918 79.0579 88.551C78.1359 87.9969 77.1155 87.6102 76.0477 87.4103C74.1754 87.0986 72.2497 87.2936 70.4864 87.9734Z" fill="#D39C76"/>
<path id="Vector_7" d="M31.0453 85.1215C28.735 86.4283 26.2592 88.0095 25.2734 90.7749C24.9197 91.7785 24.7842 92.8759 24.4606 93.894C24.1951 94.5645 23.9788 95.2521 23.8134 95.9517C23.7131 96.735 23.7564 97.5292 23.9414 98.2982C24.4402 101.218 25.9138 103.904 28.1405 105.952C29.1246 106.85 30.3438 107.476 31.6687 107.763C32.9936 108.05 34.3748 107.988 35.6659 107.583C36.9368 107.079 38.1058 106.366 39.1201 105.475C40.244 104.617 41.2018 103.576 41.9496 102.399C42.7923 100.906 43.2758 99.2506 43.3644 97.5546C43.6368 94.353 42.7665 91.1576 40.8962 88.4933C40.0958 87.3277 39.0081 86.3693 37.7296 85.7031C36.4511 85.0369 35.0212 84.6834 33.5663 84.6738C31.9559 84.7244 30.3906 85.2803 31.0453 85.1215Z" fill="#D39C76"/>
<path id="Vector_8" d="M25.17 89.9164C29.5164 89.0537 33.9592 88.7238 38.3921 88.9344C39.6715 88.9922 41.1314 89.2088 41.8689 90.4434C42.0967 90.865 42.2638 91.3144 42.3656 91.7792C43.2987 95.2954 43.6073 99.3242 42.0119 102.494C36.6041 100.573 30.6739 100.487 25.2076 102.248C23.7391 98.2605 23.7259 93.9124 25.17 89.9164Z" fill="#F4F4F4"/>
<path id="Vector_9" d="M66.062 92.0244C68.7054 91.47 71.3952 91.1438 74.0992 91.0497C76.6503 90.9125 79.367 90.8836 81.6247 92.2555C81.73 92.3204 81.8504 92.3926 81.9633 92.3349C82.0761 92.2771 82.0837 92.0389 81.9633 92.0316C82.9159 93.1179 83.478 94.4701 83.5662 95.8872C84.0015 99.0032 83.5598 102.174 82.2869 105.071C82.2248 104.806 82.0859 104.563 81.8862 104.37C81.6865 104.177 81.4341 104.042 81.1581 103.981C79.5759 103.509 77.9223 103.297 76.2666 103.353C72.8952 103.302 69.3808 103.353 66.3631 105.158C65.1515 103.772 64.8128 101.649 64.6397 99.6633C64.5477 98.7027 64.5477 97.7359 64.6397 96.7753C64.887 95.1371 65.3655 93.5388 66.062 92.0244Z" fill="#F4F4F4"/>
<path id="Vector_10" d="M34.6356 138.291C35.5018 141.942 37.6582 145.192 40.7387 147.49C43.5354 149.482 46.8728 150.655 50.3487 150.869C58.9126 151.526 67.6571 147.136 73.2034 139.396C70.4491 141.678 67.0476 142.515 63.7515 143.302C66.8353 142.933 69.7794 141.85 72.3304 140.147C68.1162 141.042 63.7063 141.93 59.62 140.4C58.4686 139.966 57.3624 139.338 56.1207 139.317C55.4589 139.303 54.8146 139.521 54.3069 139.928C53.7992 140.336 53.4624 140.906 53.3588 141.533C53.1255 140.971 52.7266 140.485 52.2108 140.137C51.695 139.788 51.0846 139.591 50.454 139.569C49.2694 139.609 48.0976 139.818 46.9773 140.19C43.3143 141.067 39.4498 140.728 36.0127 139.23C35.3279 138.934 34.5528 138.421 34.6356 138.291Z" fill="#E59466"/>
<g id="Clip path group">
<mask id="mask0_12_2722" style="mask-type:luminance" maskUnits="userSpaceOnUse" x="41" y="87" width="26" height="45">
<g id="clip-path">
<path id="Vector_11" d="M60.1155 87.2085C59.062 94.6597 58.0084 102.27 59.0018 109.735C59.2802 111.808 59.7543 113.988 61.1314 115.353C62.2527 116.479 63.803 116.869 64.9469 117.966C66.0385 119.121 66.6863 120.598 66.783 122.154C66.8982 123.756 66.6571 125.363 66.0757 126.869C65.7041 127.989 65.0651 129.01 64.2094 129.851C63.8337 130.238 63.3542 130.519 62.8234 130.663C62.2925 130.807 61.7307 130.808 61.1992 130.667C61.527 130.482 61.7986 130.218 61.9874 129.901C62.1762 129.585 62.2756 129.226 62.2756 128.861C62.2756 128.497 62.1762 128.138 61.9874 127.822C61.7986 127.505 61.527 127.241 61.1992 127.056C60.3564 126.688 59.4307 127.194 58.6857 127.778C57.5418 128.695 56.5335 129.836 55.352 130.667C54.1705 131.497 52.703 132.002 51.4011 131.482C50.3887 130.955 49.5495 130.168 48.978 129.208C48.4795 128.456 47.8478 127.794 47.1116 127.251C46.2462 126.529 44.7712 125.54 43.8531 126.139C42.935 126.739 42.6114 128.45 43.4091 129.244C41.8655 127.509 41.0976 125.259 41.2719 122.984C41.4676 120.667 42.8221 118.479 44.7035 117.764C46.0581 117.244 47.5255 117.49 48.9554 117.612C50.3852 117.735 51.9204 117.663 53.0642 116.652C54.7198 115.208 54.923 112.436 55.1337 110.017C55.826 102.234 58.1664 94.7535 60.1155 87.2085Z" fill="white"/>
</g>
</mask>
<g mask="url(#mask0_12_2722)">
<g id="Group_2">
<path id="Vector_12" d="M41.0687 125.642L66.926 128.48V132.054H41.0687V125.642Z" fill="#FAA870"/>
<path id="Vector_13" d="M41.0687 124.755L66.926 127.593V128.481L41.0687 125.643V124.755Z" fill="#FAA870"/>
<path id="Vector_14" d="M41.0703 123.873L66.9276 126.71V127.591L41.0703 124.754V123.873Z" fill="#FAAB75"/>
<path id="Vector_15" d="M41.0687 122.986L66.926 125.823V126.711L41.0687 123.874V122.986Z" fill="#FBAE79"/>
<path id="Vector_16" d="M41.0687 122.104L66.926 124.942V125.823L41.0687 122.985V122.104Z" fill="#FBB17D"/>
<path id="Vector_17" d="M41.0703 121.217L66.9276 124.054V124.942L41.0703 122.105V121.217Z" fill="#FBB381"/>
<path id="Vector_18" d="M41.0687 120.335L66.926 123.172V124.053L41.0687 121.216V120.335Z" fill="#FBB684"/>
<path id="Vector_19" d="M41.0687 119.448L66.926 122.286V123.174L41.0687 120.336V119.448Z" fill="#FCB887"/>
<path id="Vector_20" d="M41.0703 118.559L66.9276 121.396V122.284L41.0703 119.447V118.559Z" fill="#FCB989"/>
<path id="Vector_21" d="M41.0687 117.678L66.926 120.515V121.396L41.0687 118.559V117.678Z" fill="#FCBB8B"/>
<path id="Vector_22" d="M41.0687 116.79L66.926 119.628V120.516L41.0687 117.678V116.79Z" fill="#FCBC8D"/>
<path id="Vector_23" d="M41.0687 115.909L66.926 118.747V119.628L41.0687 116.79V115.909Z" fill="#FCBD8F"/>
<path id="Vector_24" d="M41.0687 115.021L66.926 117.858V118.746L41.0687 115.909V115.021Z" fill="#FCBE91"/>
<path id="Vector_25" d="M41.0687 114.141L66.926 116.978V117.859L41.0687 115.022V114.141Z" fill="#FCBF92"/>
<path id="Vector_26" d="M41.0687 113.252L66.926 116.09V116.978L41.0687 114.14V113.252Z" fill="#FDC093"/>
<path id="Vector_27" d="M41.0687 112.365L66.926 115.21V116.091L41.0687 113.253V112.365Z" fill="#FDC194"/>
<path id="Vector_28" d="M41.0687 111.483L66.926 114.32V115.209L41.0687 112.364V111.483Z" fill="#FDC195"/>
<path id="Vector_29" d="M41.0687 111.289L41.1515 110.61L66.926 113.433V114.321L41.0687 111.484V111.289Z" fill="#FDC296"/>
<path id="Vector_30" d="M41.1498 110.61L41.2552 109.737L66.9244 112.553V113.434L41.1498 110.61Z" fill="#FDC296"/>
<path id="Vector_31" d="M41.2548 109.736L41.3527 108.862L66.924 111.664V112.552L41.2548 109.736Z" fill="#FDC397"/>
<path id="Vector_32" d="M41.3567 108.863L41.462 107.99L66.928 110.784V111.665L41.3567 108.863Z" fill="#FDC397"/>
<path id="Vector_33" d="M41.4617 107.989L41.567 107.115L66.9277 109.895V110.783L41.4617 107.989Z" fill="#FDC398"/>
<path id="Vector_34" d="M41.5667 107.116L41.6721 106.242L66.9274 109.014V109.895L41.5667 107.116Z" fill="#FDC398"/>
<path id="Vector_35" d="M41.6685 106.241L41.7739 105.368L66.9239 108.126V109.014L41.6685 106.241Z" fill="#FDC398"/>
<path id="Vector_36" d="M41.7767 105.369L41.8821 104.495L66.9267 107.246V108.127L41.7767 105.369Z" fill="#FDC498"/>
<path id="Vector_37" d="M41.8817 104.494L41.9796 103.621L66.9264 106.357V107.245L41.8817 104.494Z" fill="#FDC499"/>
<path id="Vector_38" d="M41.9804 103.621L42.0858 102.748L66.9272 105.47V106.358L41.9804 103.621Z" fill="#FDC499"/>
<path id="Vector_39" d="M42.0854 102.747L42.1908 101.874L66.9268 104.588V105.469L42.0854 102.747Z" fill="#FDC499"/>
<path id="Vector_40" d="M42.1904 101.874L42.2958 101L66.9265 103.7V104.588L42.1904 101.874Z" fill="#FDC499"/>
<path id="Vector_41" d="M42.2954 101L42.4008 100.126L66.9261 102.82V103.7L42.2954 101Z" fill="#FDC499"/>
<path id="Vector_42" d="M42.4004 100.127L42.5057 99.2529L66.9258 101.932V102.82L42.4004 100.127Z" fill="#FDC499"/>
<path id="Vector_43" d="M42.5054 99.253L42.6033 98.3794L66.9255 101.051V101.932L42.5054 99.253Z" fill="#FDC499"/>
<path id="Vector_44" d="M42.6025 98.3788L42.7079 97.5051L66.9247 100.162V101.05L42.6025 98.3788Z" fill="#FDC499"/>
<path id="Vector_45" d="M42.7091 97.5062L42.8145 96.6326L66.9259 99.2824V100.163L42.7091 97.5062Z" fill="#FDC499"/>
<path id="Vector_46" d="M42.8141 96.6317L42.9195 95.7581L66.9256 98.3934V99.2815L42.8141 96.6317Z" fill="#FDC499"/>
<path id="Vector_47" d="M42.9191 95.7591L43.0245 94.8855L66.9252 97.5064V98.3945L42.9191 95.7591Z" fill="#FDC499"/>
<path id="Vector_48" d="M43.0257 94.8839L43.1311 94.0103L66.9265 96.6239V97.5048L43.0257 94.8839Z" fill="#FDC499"/>
<path id="Vector_49" d="M43.1307 94.0106L43.2361 93.137L66.9261 95.7362V96.6243L43.1307 94.0106Z" fill="#FDC499"/>
<path id="Vector_50" d="M43.2358 93.1371L43.3336 92.2634L66.9258 94.8555V95.7363L43.2358 93.1371Z" fill="#FDC499"/>
<path id="Vector_51" d="M43.3344 92.2635L43.4398 91.3899L66.9266 93.9675V94.8556L43.3344 92.2635Z" fill="#FDC499"/>
<path id="Vector_52" d="M43.4378 91.39L43.5431 90.5164L66.9246 93.0867V93.9676L43.4378 91.39Z" fill="#FDC499"/>
<path id="Vector_53" d="M43.5428 90.5165L43.6482 89.6428L66.9244 92.1988V93.0868L43.5428 90.5165Z" fill="#FDC499"/>
<path id="Vector_54" d="M43.6494 89.6424L43.9354 87.2092H66.9256V92.1983L43.6494 89.6424Z" fill="#FDC499"/>
</g>
</g>
</g>
<path id="Vector_55" d="M60.9447 127.302C58.6676 128.033 56.6965 129.448 55.3232 131.338C56.884 130.893 58.5147 130.717 60.1395 130.818C60.5255 130.878 60.921 130.845 61.2909 130.724C61.5598 130.578 61.7857 130.369 61.9476 130.116C62.1094 129.864 62.202 129.576 62.2166 129.28C62.337 128.334 61.7123 127.323 60.9447 127.302Z" fill="#E59466"/>
<path id="Vector_56" d="M45.0577 126.392C44.6046 126.359 44.1523 126.463 43.7633 126.688C43.5489 126.821 43.3668 126.998 43.2292 127.204C43.0916 127.411 43.0018 127.644 42.9657 127.886C42.919 128.222 42.9637 128.563 43.0956 128.877C43.2275 129.191 43.4421 129.466 43.7182 129.677C44.2413 130.002 44.8693 130.136 45.4867 130.052C46.0887 130.002 46.6832 129.843 47.2928 129.793C47.9109 129.709 48.539 129.851 49.0537 130.19C48.3087 128.132 46.6305 126.457 45.0577 126.392Z" fill="#E59466"/>
<path id="Vector_57" d="M55.3028 145.389C52.5815 145.363 49.8636 145.199 47.1603 144.898C44.4909 144.748 41.8674 144.164 39.4015 143.172C36.6518 141.982 34.4927 139.812 33.3812 137.122C33.3483 137.039 33.3415 136.949 33.3616 136.863C33.3816 136.777 33.4277 136.699 33.4941 136.638C33.525 136.612 33.5615 136.593 33.6009 136.581C33.6402 136.57 33.6817 136.567 33.7224 136.572C33.7631 136.578 33.8021 136.592 33.8368 136.613C33.8714 136.634 33.9009 136.662 33.9231 136.696C34.9297 137.943 36.2354 138.938 37.7291 139.597C39.2228 140.255 40.8602 140.558 42.502 140.479C43.5025 140.371 44.4918 140.182 45.4595 139.916C46.2121 139.735 46.9646 139.548 47.7172 139.432C48.6512 139.241 49.6182 139.255 50.546 139.472C51.4738 139.69 52.3383 140.106 53.0753 140.688C53.5372 140.102 54.1568 139.648 54.8674 139.375C55.5781 139.101 56.353 139.019 57.1089 139.136C58.1199 139.284 59.1081 139.551 60.0513 139.93C60.5029 140.089 60.9694 140.255 61.4209 140.392C66.1619 141.793 70.7073 140.248 73.6874 138.71C73.7251 138.692 73.7663 138.683 73.8083 138.681C73.8503 138.68 73.892 138.687 73.931 138.702C73.97 138.717 74.0052 138.739 74.0346 138.768C74.0639 138.797 74.0867 138.831 74.1013 138.869C74.1421 138.952 74.1552 139.045 74.139 139.135C74.1229 139.226 74.0782 139.309 74.011 139.374C70.3623 142.493 65.806 144.466 60.9544 145.028C59.0816 145.275 57.1931 145.395 55.3028 145.389ZM35.2099 138.948C36.3472 140.465 37.8742 141.674 39.6424 142.457C42.054 143.423 44.6189 143.99 47.228 144.132C51.5927 144.58 56.2586 144.905 60.9243 144.262C64.5697 143.809 68.0622 142.575 71.1438 140.652C68.0113 141.854 64.5509 142.022 61.3081 141.129C60.834 140.992 60.3674 140.826 59.9083 140.66C59.0051 140.298 58.0603 140.041 57.0938 139.894C56.3957 139.786 55.6799 139.874 55.0325 140.147C54.3851 140.419 53.8335 140.866 53.444 141.432C53.4215 141.472 53.3904 141.507 53.3528 141.534C53.3151 141.562 53.2718 141.581 53.2257 141.591C53.1814 141.597 53.1362 141.594 53.0933 141.581C53.0504 141.569 53.0109 141.547 52.9774 141.519C52.2966 140.917 51.4744 140.482 50.5809 140.251C49.6874 140.02 48.7489 139.999 47.8451 140.19C47.0926 140.306 46.3401 140.486 45.5875 140.667C44.6018 140.934 43.5951 141.125 42.5773 141.237C39.9087 141.392 37.2775 140.574 35.2099 138.948Z" fill="#0D0D0D"/>
<path id="Vector_58" d="M99.7087 110.378C99.2904 110.38 98.888 110.224 98.5874 109.945C98.5179 109.873 98.4745 109.782 98.4636 109.684C98.4528 109.586 98.4751 109.488 98.5273 109.404C98.5492 109.366 98.5798 109.334 98.6167 109.31C98.6536 109.285 98.6959 109.269 98.7402 109.263C98.7845 109.257 98.8297 109.26 98.8724 109.274C98.9151 109.287 98.954 109.309 98.9863 109.339C99.1961 109.511 99.463 109.605 99.7388 109.605C100.015 109.605 100.282 109.511 100.491 109.339C101.004 108.911 101.354 108.332 101.485 107.692C101.899 106.118 101.568 104.378 101.274 102.841C101.251 102.749 101.263 102.652 101.309 102.568C101.355 102.485 101.431 102.42 101.522 102.386C101.695 102.335 101.869 102.465 101.906 102.674C102.207 104.22 102.576 106.147 102.109 107.916C101.938 108.727 101.487 109.46 100.83 109.996C100.512 110.241 100.117 110.375 99.7087 110.378Z" fill="#0D0D0D"/>
<path id="Vector_59" d="M101.061 115.555C100.89 115.554 100.722 115.515 100.569 115.441C100.416 115.367 100.283 115.26 100.181 115.129C100.143 115.082 100.116 115.029 100.1 114.972C100.085 114.915 100.081 114.855 100.09 114.797C100.095 114.741 100.113 114.686 100.143 114.637C100.173 114.588 100.214 114.547 100.263 114.515L100.421 114.826L100.602 114.609C100.656 114.667 100.722 114.713 100.794 114.746C100.867 114.778 100.946 114.797 101.027 114.8C101.107 114.804 101.188 114.792 101.263 114.765C101.339 114.739 101.408 114.698 101.467 114.645C101.787 114.344 102.025 113.972 102.16 113.562C103.838 109.613 103.981 104.898 104.109 100.761C104.154 100.177 104.119 99.5892 104.004 99.0138C103.964 98.7855 103.87 98.5692 103.729 98.3814C103.588 98.1936 103.404 98.0394 103.191 97.9307C103.056 97.8977 102.914 97.9011 102.781 97.9406C102.649 97.9801 102.53 98.0542 102.438 98.1546C102.324 98.2641 102.234 98.3949 102.175 98.5389C102.115 98.683 102.087 98.8372 102.092 98.9921C102.105 99.0856 102.081 99.1804 102.023 99.2569C101.966 99.3335 101.88 99.3861 101.783 99.4037C101.688 99.3981 101.599 99.3574 101.535 99.2901C101.47 99.2228 101.435 99.1341 101.437 99.0427C101.424 98.7689 101.471 98.4955 101.573 98.2395C101.675 97.9836 101.831 97.7507 102.032 97.5553C102.197 97.3758 102.413 97.2456 102.653 97.1804C102.893 97.1151 103.148 97.1174 103.386 97.1871C103.714 97.3366 103.999 97.5596 104.218 97.8374C104.437 98.1152 104.583 98.4395 104.643 98.7828C104.78 99.4432 104.826 100.118 104.779 100.79C104.651 105.014 104.5 109.808 102.754 113.909C102.575 114.438 102.259 114.915 101.836 115.295C101.614 115.46 101.342 115.551 101.061 115.555Z" fill="#0D0D0D"/>
<path id="Vector_60" d="M8.57557 113.901C8.53181 113.9 8.48867 113.891 8.44953 113.872C8.41039 113.853 8.37634 113.826 8.34986 113.792C8.28759 113.713 8.25386 113.617 8.25386 113.518C8.25386 113.419 8.28759 113.323 8.34986 113.244C8.81407 112.575 8.99687 111.762 8.86154 110.969C8.7495 110.211 8.55528 109.466 8.28206 108.746L8.16916 108.413C6.57613 103.578 5.96312 98.4953 6.36314 93.4389C6.36106 93.3935 6.3687 93.3481 6.38564 93.3057C6.40259 93.2632 6.42845 93.2245 6.46161 93.192C6.49477 93.1595 6.53447 93.1339 6.57837 93.1168C6.62227 93.0996 6.66943 93.0913 6.71681 93.0924C6.81121 93.1147 6.89359 93.1699 6.94784 93.2474C7.0021 93.3248 7.02436 93.4188 7.01031 93.5111C6.62453 98.4483 7.22475 103.411 8.77877 108.132L8.89167 108.464C9.18531 109.245 9.39212 110.053 9.50871 110.876C9.675 111.888 9.42699 112.923 8.81643 113.764C8.79088 113.804 8.75559 113.837 8.71364 113.861C8.67169 113.885 8.62429 113.898 8.57557 113.901Z" fill="#0D0D0D"/>
<path id="Vector_61" d="M11.878 110.277C11.8148 110.279 11.7532 110.258 11.7049 110.219C10.5458 109.343 9.71406 108.129 9.3344 106.761C8.90151 105.307 8.90151 103.767 9.3344 102.313C9.34252 102.269 9.36055 102.228 9.38722 102.192C9.41389 102.155 9.44853 102.125 9.48873 102.103C9.52893 102.081 9.57376 102.068 9.61991 102.064C9.66606 102.06 9.71247 102.067 9.75587 102.082C9.84201 102.13 9.90832 102.205 9.94391 102.294C9.97951 102.384 9.98216 102.482 9.95144 102.573C9.57524 103.86 9.57524 105.221 9.95144 106.508C10.2962 107.714 11.0315 108.783 12.0511 109.562C12.1291 109.625 12.1827 109.711 12.2032 109.807C12.2237 109.902 12.2098 110.002 12.164 110.089C12.1405 110.144 12.1009 110.191 12.0501 110.224C11.9993 110.257 11.9395 110.276 11.878 110.277Z" fill="#0D0D0D"/>
<path id="Vector_62" d="M11.066 102.269C11.006 102.266 10.9482 102.247 10.899 102.214C10.8498 102.18 10.8112 102.135 10.7876 102.082C9.59856 99.7785 9.22224 97.0782 8.86102 94.4645C8.73309 93.562 8.60521 92.6234 8.43965 91.7281C7.90534 88.7678 6.55829 84.8401 3.17185 82.8907C3.11479 82.8558 3.06765 82.8078 3.03479 82.7511C3.00194 82.6944 2.98441 82.6306 2.98372 82.5657C2.23118 68.9269 2.78802 58.0173 4.73711 48.1762C7.16029 35.9525 11.8863 25.5122 18.3882 17.9888C24.8746 10.6614 33.4391 5.2987 43.0415 2.55218C55.0822 -1.02179 66.8971 -0.689655 77.2972 3.50524C88.8036 8.14779 98.2178 17.6134 103.117 29.4977C106.714 38.2052 107.843 47.9452 108.467 56.3277C109.22 65.8511 109.333 76.7896 105.013 85.6415C104.584 86.5152 104.125 87.3744 103.636 88.2913C102.011 91.3165 100.332 94.4429 100.092 97.9663C100.092 98.154 100.092 98.349 100.092 98.5439C100.095 98.5891 100.088 98.6343 100.073 98.6771C100.057 98.7198 100.033 98.7592 100.002 98.7929C99.9701 98.8265 99.9318 98.8537 99.8891 98.873C99.8464 98.8922 99.8002 98.9031 99.7531 98.9049C99.6592 98.8906 99.5746 98.8421 99.5172 98.7695C99.4597 98.6968 99.4336 98.6056 99.4445 98.515C99.4445 98.3056 99.4445 98.1035 99.4445 97.9085C99.8057 89.9664 100.144 81.0134 97.8792 72.9846C97.2621 70.8186 96.4343 68.6525 95.6216 66.537C94.9443 64.7464 94.2369 62.927 93.6575 61.0281C92.318 56.696 91.9342 52.8188 92.5211 49.4758C90.6323 51.7646 88.9841 54.0173 87.3887 56.2122C87.3658 56.2467 87.3354 56.276 87.2995 56.2981C87.2635 56.3201 87.223 56.3344 87.1808 56.3399C87.1385 56.3454 87.0955 56.342 87.0547 56.3299C87.014 56.3178 86.9764 56.2974 86.9448 56.27C86.8772 56.2034 86.8329 56.1182 86.8181 56.0264C86.8033 55.9345 86.8186 55.8405 86.862 55.7574C88.3909 52.7632 89.1887 49.4743 89.1949 46.1401C88.742 49.126 87.5328 51.9596 85.673 54.3928C85.6504 54.4259 85.6204 54.4538 85.5851 54.4744C85.5499 54.495 85.5102 54.5079 85.4692 54.512C85.4281 54.5162 85.3867 54.5115 85.3477 54.4984C85.3088 54.4852 85.2733 54.464 85.244 54.4361C85.1765 54.3726 85.1314 54.2903 85.1152 54.2009C85.099 54.1115 85.1125 54.0195 85.1537 53.9379C86.3897 51.374 86.9751 48.5658 86.862 45.743L82.3468 55.7862C82.3348 55.823 82.3153 55.8571 82.2894 55.8866C82.2636 55.916 82.2319 55.9402 82.1961 55.9577C82.1603 55.9752 82.1212 55.9856 82.0812 55.9884C82.0411 55.9912 82.001 55.9863 81.963 55.974C81.8842 55.9377 81.8198 55.8782 81.7791 55.804C81.7385 55.7299 81.7237 55.6452 81.7372 55.5624L82.6629 46.6672L78.6668 52.4C78.6276 52.4619 78.5651 52.5069 78.4923 52.5258C78.4194 52.5446 78.3417 52.5357 78.2755 52.5011C78.2052 52.458 78.1499 52.396 78.1164 52.3227C78.0829 52.2494 78.0728 52.1683 78.0873 52.0895L78.8399 46.7755C77.6944 49.3372 75.7105 51.4712 73.1883 52.8549C73.1319 52.8798 73.0688 52.8869 73.008 52.8752C72.9471 52.8635 72.8917 52.8337 72.8497 52.7899C72.8006 52.7394 72.7653 52.678 72.7469 52.6113C72.7285 52.5445 72.7276 52.4744 72.7443 52.4072L73.8054 47.0138L71.909 51.0065C71.8861 51.0613 71.8481 51.1091 71.799 51.1447C71.75 51.1803 71.6917 51.2024 71.6306 51.2087C71.5697 51.2091 71.5099 51.1921 71.4591 51.16C71.4082 51.1278 71.3684 51.082 71.3446 51.0282C69.8863 48.241 69.2859 45.113 69.6137 42.0103C68.3599 44.5964 67.9558 47.4872 68.4549 50.299C68.4734 50.3853 68.4629 50.4751 68.4251 50.5555C68.3873 50.6359 68.3239 50.7028 68.2441 50.7466C68.2056 50.7603 68.1646 50.7665 68.1236 50.7648C68.0826 50.7632 68.0423 50.7536 68.0051 50.7368C67.9679 50.72 67.9347 50.6962 67.9073 50.6669C67.8798 50.6376 67.8587 50.6033 67.8453 50.5661C66.6291 47.8863 65.8987 45.0269 65.6855 42.1113L64.1804 49.2376C64.17 49.3143 64.132 49.3853 64.0729 49.438C64.0138 49.4907 63.9373 49.522 63.8568 49.5264C63.7766 49.5182 63.7019 49.4835 63.6456 49.4281C63.5892 49.3728 63.5548 49.3003 63.5483 49.2232L61.9002 40.1474L60.9144 46.4434C60.9093 46.5168 60.8803 46.5869 60.8318 46.6438C60.7832 46.7007 60.7175 46.7417 60.6435 46.7611C60.5724 46.7695 60.5005 46.7539 60.4401 46.717C60.3797 46.6802 60.3345 46.6243 60.3123 46.5589L58.2278 41.9525C58.264 44.7826 57.6095 47.5817 56.3164 50.1257C56.2878 50.1926 56.234 50.2469 56.1657 50.2776C56.0974 50.3084 56.0196 50.3134 55.9476 50.2917C55.8734 50.2595 55.8113 50.2062 55.7696 50.1391C55.7279 50.072 55.7086 49.9942 55.7143 49.9163C55.7815 46.5585 54.5845 43.29 52.3429 40.7106L50.7475 48.1401C50.7326 48.2157 50.6933 48.2849 50.6353 48.338C50.5772 48.3911 50.5033 48.4254 50.4239 48.4361C50.3436 48.4251 50.2695 48.3885 50.2135 48.3322C50.1576 48.2759 50.1231 48.2032 50.1154 48.1257L48.9565 41.6276C46.721 44.3276 45.4517 47.6467 45.3367 51.0931C45.3393 51.1793 45.3083 51.2632 45.2499 51.3286C45.1915 51.394 45.1098 51.4362 45.0207 51.4469C44.9329 51.4414 44.8505 51.4041 44.7904 51.3424C44.7303 51.2807 44.6969 51.1993 44.6971 51.1148L44.1402 46.1618C43.6565 48.2986 42.6215 50.2847 41.13 51.9379C41.0843 51.991 41.0195 52.0257 40.9484 52.035C40.8773 52.0444 40.8051 52.0278 40.7462 51.9884C40.6847 51.9391 40.6377 51.8751 40.61 51.8029C40.5823 51.7307 40.5748 51.6528 40.5882 51.5769C41.0154 49.1877 41.0154 46.7461 40.5882 44.3568L39.2637 51.5769C39.2554 51.6447 39.2267 51.7087 39.1813 51.7612C39.1359 51.8137 39.0758 51.8525 39.0079 51.8729C38.9422 51.8844 38.8744 51.8751 38.8147 51.8465C38.755 51.8178 38.7066 51.7714 38.6767 51.7141C37.1108 48.9355 36.0544 45.9193 35.5537 42.7972C34.2184 45.9804 33.9553 49.4848 34.8011 52.8188C34.8238 52.9 34.8209 52.9859 34.7928 53.0656C34.7646 53.1452 34.7126 53.2151 34.6431 53.2664C34.6104 53.2871 34.5736 53.3012 34.535 53.3077C34.4964 53.3142 34.4568 53.313 34.4187 53.3042C34.3806 53.2954 34.3447 53.2791 34.3134 53.2565C34.2821 53.2339 34.256 53.2053 34.2367 53.1726C32.907 51.1816 31.9993 48.9588 31.5652 46.6311L30.8127 50.595C30.8062 50.6702 30.7726 50.7408 30.7176 50.7948C30.6627 50.8489 30.5899 50.8829 30.5117 50.891C30.4315 50.8932 30.3535 50.8661 30.2934 50.8151C30.2333 50.7642 30.1956 50.6932 30.188 50.6166L28.9765 45.8297C27.8108 48.6958 27.3723 51.7868 27.6972 54.8476C27.7068 54.9266 27.6927 55.0065 27.6567 55.0781C27.6208 55.1497 27.5643 55.21 27.494 55.252C27.4258 55.2826 27.348 55.287 27.2765 55.2642C27.2051 55.2413 27.1455 55.193 27.1102 55.1292C25.89 53.2259 25.1194 51.0892 24.8525 48.8694C24.5115 50.8121 24.4709 52.7924 24.7321 54.7465C24.7503 54.8334 24.7372 54.9237 24.6948 55.0025C24.6524 55.0812 24.5833 55.1438 24.4989 55.1798C24.4583 55.1905 24.4159 55.1931 24.3742 55.1876C24.3325 55.182 24.2926 55.1683 24.2566 55.1473C24.2207 55.1264 24.1896 55.0986 24.1652 55.0657C24.1409 55.0328 24.1238 54.9954 24.1151 54.9559L22.5046 50.4578L22.0531 56.7898C22.0561 56.8738 22.0273 56.956 21.9719 57.021C21.9165 57.0861 21.8384 57.1297 21.7521 57.1436C21.6677 57.1423 21.5868 57.1116 21.5244 57.0571C21.4621 57.0026 21.4226 56.9281 21.4135 56.8476L20.5104 52.3784V55.6563C20.5148 55.7377 20.4925 55.8185 20.4466 55.8871C20.4007 55.9558 20.3335 56.0089 20.2545 56.039C20.176 56.0528 20.0949 56.0384 20.0269 55.9984C19.9588 55.9584 19.9086 55.8957 19.8858 55.8224L18.2753 51.7935C18.7986 55.117 18.5597 58.5099 17.5754 61.7356C13.3306 74.7375 11.2432 88.2989 11.3896 101.923C11.3953 102.001 11.376 102.079 11.3343 102.146C11.2926 102.213 11.2305 102.266 11.1563 102.298L11.066 102.269ZM3.60076 82.2986C7.12266 84.4141 8.52241 88.4935 9.07929 91.562C9.24485 92.479 9.37273 93.4248 9.50066 94.3418C9.71134 96.349 10.1247 98.3318 10.7348 100.262C10.7561 87.0837 12.8596 73.9844 16.9734 61.4108C18.2377 57.5841 18.1775 52.7466 16.8079 48.0896C16.781 48.0003 16.7848 47.905 16.8187 47.8179C16.8525 47.7308 16.9147 47.6564 16.996 47.6059C17.0362 47.5888 17.0798 47.5804 17.1237 47.5813C17.1677 47.5821 17.2109 47.5922 17.2503 47.6107C17.2898 47.6293 17.3244 47.656 17.352 47.6888C17.3796 47.7216 17.3994 47.7598 17.4099 47.8008L19.8406 53.8512L19.7804 48.8694C19.7737 48.7827 19.7984 48.6964 19.8506 48.6253C19.9028 48.5542 19.979 48.5026 20.0664 48.4795C20.155 48.4735 20.2426 48.5012 20.3102 48.5565C20.3778 48.6119 20.4199 48.6906 20.4276 48.7755L21.5413 54.2845L21.9327 48.7899C21.9314 48.7115 21.9573 48.635 22.0063 48.5722C22.0554 48.5095 22.1248 48.4642 22.2036 48.4434C22.2817 48.434 22.3608 48.4523 22.4259 48.4948C22.491 48.5373 22.5377 48.6012 22.5572 48.6744L23.8742 52.3711C23.8488 50.349 24.1354 48.3345 24.7246 46.3928C24.7393 46.3128 24.7863 46.2415 24.8552 46.1942C24.9242 46.147 25.0097 46.1276 25.0934 46.1401C25.1765 46.1673 25.2477 46.2206 25.2955 46.2913C25.3433 46.362 25.3649 46.4461 25.3568 46.53C25.2829 48.9126 25.7987 51.2781 26.8619 53.4325C26.7576 50.3865 27.3832 47.3582 28.6905 44.5806C28.7134 44.5193 28.7569 44.4669 28.814 44.4317C28.8712 44.3964 28.9389 44.3802 29.0066 44.3857C29.0764 44.3992 29.1403 44.4326 29.1899 44.4816C29.2396 44.5305 29.2728 44.5927 29.285 44.66L30.3686 48.9488L31.219 44.494C31.228 44.4128 31.2672 44.3374 31.3294 44.2817C31.3916 44.226 31.4727 44.1937 31.5577 44.1907C31.6428 44.2056 31.72 44.2482 31.7762 44.3114C31.8324 44.3745 31.8642 44.4543 31.8663 44.5373C32.05 46.8148 32.686 49.0376 33.7401 51.0859C33.3017 47.7767 33.8797 44.4167 35.4032 41.4182C35.4323 41.3563 35.4823 41.3056 35.545 41.2741C35.6078 41.2427 35.6797 41.2324 35.7493 41.2449C35.8206 41.2689 35.8829 41.3125 35.9284 41.3703C35.9739 41.4281 36.0006 41.4975 36.0053 41.5698C36.3846 44.6645 37.3162 47.6735 38.7595 50.465L40.2044 42.5951C40.212 42.5195 40.2457 42.4486 40.3003 42.3936C40.3549 42.3386 40.4271 42.3028 40.5054 42.2918C40.5849 42.2908 40.6619 42.3173 40.7227 42.3663C40.7835 42.4154 40.8239 42.4837 40.8365 42.5589C41.5135 45.1534 41.7021 47.843 41.3934 50.5011C42.8808 48.4753 43.7417 46.0877 43.8768 43.6131C43.874 43.5262 43.9047 43.4413 43.963 43.3747C44.0213 43.3081 44.1031 43.2645 44.1928 43.2521C44.2827 43.2576 44.3669 43.2958 44.4285 43.3588C44.49 43.4219 44.5242 43.5051 44.524 43.5915L45.0507 48.3495C45.559 45.4621 46.9168 42.7742 48.964 40.6023C49.0015 40.5591 49.0525 40.5287 49.1095 40.5157C49.1665 40.5027 49.2263 40.5077 49.28 40.5301C49.3374 40.5557 49.3869 40.5951 49.4238 40.6444C49.4607 40.6938 49.4838 40.7513 49.4908 40.8117L50.4766 46.364L51.8613 39.9381C51.8695 39.879 51.8931 39.8229 51.9299 39.7749C51.9667 39.727 52.0157 39.6887 52.072 39.6637C52.1248 39.6431 52.1831 39.6389 52.2385 39.6519C52.2939 39.6648 52.3435 39.6942 52.3805 39.7359C54.7142 42.1545 56.1092 45.2699 56.3313 48.5589C57.4079 45.9183 57.8055 43.0678 57.4903 40.2485C57.4762 40.1666 57.4898 40.0824 57.529 40.0084C57.5683 39.9344 57.6312 39.8743 57.7085 39.837C57.7854 39.8115 57.8696 39.8162 57.9429 39.85C58.0162 39.8838 58.0726 39.944 58.0999 40.0175L60.4629 45.2449L61.5691 38.1258C61.5757 38.0468 61.6108 37.9725 61.6686 37.9157C61.7263 37.859 61.8029 37.8235 61.8851 37.8153C61.9666 37.8219 62.0431 37.856 62.101 37.9115C62.1588 37.967 62.1944 38.0404 62.2012 38.1186L63.8944 47.4398L65.6253 39.0933C65.6291 39.0515 65.6414 39.0109 65.6617 38.9737C65.6819 38.9365 65.7096 38.9035 65.7432 38.8767C65.7767 38.8498 65.8156 38.8296 65.8573 38.8172C65.8991 38.8048 65.943 38.8005 65.9865 38.8045C66.0738 38.8293 66.1494 38.8825 66.2002 38.955C66.251 39.0274 66.2739 39.1147 66.2649 39.2016C66.1378 42.2419 66.5813 45.2793 67.5744 48.169C67.5143 45.3115 68.3422 42.5015 69.9524 40.0969C69.9718 40.0652 69.9975 40.0375 70.0282 40.0155C70.0589 39.9936 70.0939 39.9777 70.1311 39.969C70.1683 39.9602 70.2069 39.9587 70.2447 39.9646C70.2825 39.9704 70.3187 39.9835 70.3512 40.003C70.4206 40.0529 70.4733 40.1212 70.5028 40.1995C70.5322 40.2778 70.5371 40.3625 70.5168 40.4434C69.8005 43.6839 70.1746 47.0589 71.5854 50.0824L74.3322 44.3062C74.3462 44.2688 74.3681 44.2345 74.3966 44.2056C74.425 44.1766 74.4594 44.1536 74.4975 44.138C74.5357 44.1224 74.5769 44.1146 74.6183 44.1149C74.6598 44.1153 74.7007 44.1239 74.7386 44.1402C74.8167 44.1832 74.878 44.2494 74.9133 44.3289C74.9486 44.4084 74.956 44.4968 74.9342 44.5806L73.5044 51.8513C76.5267 49.8739 78.61 46.8289 79.2989 43.382C79.3045 43.3392 79.3189 43.2979 79.3413 43.2605C79.3637 43.223 79.3935 43.1903 79.4293 43.164C79.465 43.1378 79.5058 43.1187 79.5493 43.1078C79.5929 43.0969 79.6382 43.0944 79.6827 43.1005C79.7714 43.1342 79.8449 43.1969 79.8903 43.2774C79.9357 43.3579 79.9502 43.4512 79.9311 43.5409L78.9227 50.8405L82.866 45.1943C82.9038 45.133 82.9645 45.0878 83.0357 45.0677C83.1069 45.0476 83.1834 45.0541 83.2498 45.086C83.3188 45.1289 83.3737 45.1896 83.4083 45.2611C83.4429 45.3326 83.4558 45.4121 83.4454 45.4903L82.6177 53.6058L86.8018 44.2629C86.8244 44.1948 86.8718 44.1368 86.9354 44.0997C86.999 44.0625 87.0746 44.0487 87.148 44.0607C87.2223 44.0831 87.2876 44.1271 87.3347 44.1866C87.3819 44.2461 87.4087 44.3182 87.4113 44.3929C87.6652 46.6759 87.4918 48.9841 86.8996 51.2087C88.3716 48.1999 89.0068 44.8768 88.7434 41.5626C88.7299 41.4734 88.7496 41.3824 88.7992 41.3058C88.8488 41.2292 88.9249 41.1718 89.0143 41.1438C89.0585 41.1378 89.1036 41.1406 89.1467 41.1521C89.1898 41.1636 89.2299 41.1835 89.2646 41.2107C89.2992 41.2378 89.3277 41.2715 89.3481 41.3097C89.3685 41.3479 89.3803 41.3898 89.383 41.4326C90.1982 45.4073 89.9392 49.5161 88.6305 53.3675C89.9549 51.5841 91.3546 49.7574 92.9199 47.9307C92.9416 47.9011 92.9692 47.876 93.0013 47.8569C93.0334 47.8378 93.0692 47.8252 93.1065 47.8198C93.1438 47.8144 93.1818 47.8164 93.2183 47.8255C93.2548 47.8346 93.289 47.8508 93.3188 47.873C93.3841 47.9272 93.4321 47.9979 93.4574 48.0771C93.4827 48.1563 93.4843 48.2407 93.4618 48.3206C92.5136 51.7646 92.7845 55.9451 94.2745 60.7537C94.8465 62.6021 95.5463 64.436 96.216 66.2121C97.0213 68.3204 97.8491 70.4937 98.4737 72.7102C100.4 79.5405 100.476 86.97 100.242 93.9158C101.005 91.8199 101.949 89.7888 103.064 87.8437C103.553 86.9411 104.012 86.0892 104.434 85.23C108.663 76.5658 108.513 65.7717 107.805 56.3494C107.181 48.0391 106.067 38.3857 102.537 29.7865C97.7136 18.1188 88.4424 8.7976 77.094 4.22003C66.8068 0.0684527 55.0972 -0.24924 43.2296 3.28863C33.3488 6.22722 24.9128 11.4907 18.8473 18.5087C12.4281 25.9238 7.76983 36.2341 5.36922 48.3206C3.42766 58.0462 2.84822 68.833 3.60076 82.2986Z" fill="#0D0D0D"/>
<path id="Vector_63" d="M33.3709 96.8403C34.3559 96.8403 35.1544 95.8964 35.1544 94.7321C35.1544 93.5677 34.3559 92.6238 33.3709 92.6238C32.3858 92.6238 31.5873 93.5677 31.5873 94.7321C31.5873 95.8964 32.3858 96.8403 33.3709 96.8403Z" fill="#302113"/>
<path id="Vector_64" d="M32.6775 93.7353C33.0598 93.7353 33.3698 93.37 33.3698 92.9194C33.3698 92.4688 33.0598 92.1035 32.6775 92.1035C32.2951 92.1035 31.9851 92.4688 31.9851 92.9194C31.9851 93.37 32.2951 93.7353 32.6775 93.7353Z" fill="#F4F4F4"/>
<path id="Vector_65" d="M54.2864 179.316C52.6158 179.318 50.951 179.129 49.3271 178.753C44.4356 177.605 39.5441 174.63 34.8256 169.915C30.6265 165.735 27.0444 160.724 23.5375 155.879C20.3242 151.396 17.0054 146.753 14.9661 141.237C12.287 133.966 12.1214 125.887 11.9559 118.075C11.8355 112.588 11.7151 106.905 10.7292 101.534C10.7066 101.441 10.7202 101.343 10.7674 101.26C10.8145 101.176 10.892 101.111 10.9852 101.079C11.031 101.071 11.0779 101.074 11.1228 101.085C11.1677 101.096 11.2096 101.117 11.2458 101.145C11.282 101.173 11.3117 101.207 11.3329 101.247C11.3541 101.287 11.3663 101.33 11.3689 101.375C12.3698 106.819 12.4902 112.53 12.6031 118.053C12.7686 125.793 12.9417 133.8 15.5681 140.927C17.5624 146.349 20.8359 150.941 24.0342 155.367C27.4884 160.19 31.0554 165.172 35.2019 169.309C39.8526 173.944 44.6313 176.861 49.4174 177.973C55.8818 179.497 63.1513 177.85 69.8941 173.345C75.2748 169.735 80.3394 164.457 85.833 156.681C88.7592 152.707 91.1961 148.421 93.095 143.909C96.7825 134.638 97.3393 125.179 97.9263 115.158C98.2423 109.801 98.566 104.263 99.3787 98.4288C99.3806 98.3839 99.3919 98.3398 99.4121 98.2992C99.4322 98.2586 99.4608 98.2224 99.4959 98.1927C99.5311 98.163 99.5722 98.1404 99.6167 98.1264C99.6613 98.1124 99.7083 98.1072 99.755 98.1111C99.8494 98.141 99.9291 98.2031 99.979 98.2856C100.029 98.3681 100.046 98.4653 100.026 98.5588C99.2207 104.335 98.897 109.873 98.581 115.216C97.9865 125.324 97.4296 134.833 93.6819 144.241C91.7604 148.808 89.2958 153.147 86.3371 157.172C80.7909 165.02 75.6661 170.37 70.2102 174.016C65.0477 177.511 59.5316 179.316 54.2864 179.316Z" fill="#0D0D0D"/>
<path id="Vector_66" d="M100.881 124.868C99.8094 124.825 98.7533 124.608 97.7577 124.226C97.6673 124.185 97.595 124.115 97.5536 124.027C97.5123 123.94 97.5046 123.842 97.5319 123.749C97.537 123.705 97.5519 123.663 97.5754 123.625C97.5989 123.587 97.6306 123.554 97.6683 123.529C97.7061 123.504 97.749 123.487 97.7943 123.478C97.8396 123.47 97.8861 123.472 97.9308 123.482C99.0203 123.929 100.202 124.129 101.385 124.067C101.975 124.013 102.542 123.818 103.032 123.498C103.523 123.179 103.922 122.746 104.192 122.24C104.636 121.154 104.836 119.99 104.779 118.825C105.085 109.274 106.422 99.7798 108.767 90.4934V90.3851C109.146 89.1878 109.316 87.9388 109.272 86.6884C109.166 85.5548 108.519 84.2985 107.533 84.0963C106.547 83.8942 105.735 84.6379 105.148 85.2805C105.121 85.3162 105.086 85.3454 105.046 85.3655C105.005 85.3856 104.96 85.3961 104.914 85.3961C104.869 85.3961 104.824 85.3856 104.783 85.3655C104.743 85.3454 104.708 85.3162 104.681 85.2805C104.619 85.2026 104.586 85.1075 104.586 85.0097C104.586 84.9119 104.619 84.8168 104.681 84.739C105.674 83.6415 106.69 83.1649 107.624 83.3527C108.933 83.6198 109.761 85.201 109.881 86.6234C109.932 87.9781 109.752 89.3317 109.347 90.6306V90.7389C107.017 99.9515 105.69 109.371 105.389 118.847C105.446 120.152 105.213 121.454 104.704 122.666C104.387 123.264 103.918 123.776 103.34 124.154C102.763 124.533 102.096 124.766 101.4 124.832C101.228 124.853 101.054 124.866 100.881 124.868Z" fill="#0D0D0D"/>
<path id="Vector_67" d="M11.6152 124.161C10.5902 124.199 9.57471 123.961 8.68361 123.473C7.79252 122.986 7.06139 122.269 6.57315 121.403C5.93312 120.097 5.64835 118.656 5.74537 117.215C5.74537 116.277 5.88833 115.345 6.00121 114.45C6.06142 113.988 6.12169 113.533 6.16684 113.078C6.73125 107.432 5.55726 101.143 2.65997 94.3998C2.56214 94.1615 2.45676 93.9233 2.3514 93.6778C1.46179 91.8858 0.860449 89.9748 0.567882 88.0099C0.342119 85.8439 1.01188 83.158 3.01364 82.1111C3.05453 82.0914 3.09962 82.0809 3.14537 82.0803C3.19113 82.0798 3.23639 82.0894 3.27775 82.1081C3.3191 82.1269 3.35546 82.1545 3.38403 82.1888C3.41261 82.2231 3.43265 82.2632 3.44264 82.3061C3.48051 82.3968 3.48473 82.4972 3.45459 82.5905C3.42444 82.6839 3.3617 82.7644 3.27701 82.8187C1.58379 83.6995 1.0194 86.0172 1.21506 87.9233C1.50754 89.7955 2.08835 91.6156 2.93841 93.3239C3.03624 93.5622 3.14161 93.8005 3.23944 94.046C6.19693 100.934 7.401 107.367 6.81402 113.165C6.76886 113.634 6.70868 114.096 6.64848 114.558C6.5356 115.439 6.42265 116.349 6.39255 117.237C6.30925 118.527 6.56817 119.816 7.14509 120.984C7.66439 121.849 8.44878 122.538 9.39142 122.96C10.3341 123.381 11.3891 123.513 12.4129 123.338C12.46 123.337 12.5068 123.345 12.5506 123.362C12.5944 123.378 12.6343 123.403 12.6679 123.435C12.7015 123.466 12.7283 123.504 12.7465 123.546C12.7648 123.588 12.7741 123.632 12.7741 123.677C12.7902 123.771 12.7689 123.867 12.7145 123.946C12.66 124.025 12.5766 124.081 12.4807 124.103C12.1939 124.141 11.9047 124.16 11.6152 124.161Z" fill="#0D0D0D"/>
<path id="Vector_68" d="M66.0653 92.6314C65.9889 92.6277 65.9161 92.5992 65.8587 92.5507C65.8013 92.5022 65.7627 92.4365 65.7492 92.3643C65.7217 92.2727 65.7276 92.1748 65.7659 92.0868C65.8042 91.9988 65.8727 91.9261 65.96 91.8805C71.2333 89.8982 77.0921 89.8982 82.3654 91.8805C82.455 91.9239 82.526 91.9961 82.5658 92.0845C82.6057 92.1729 82.6119 92.2719 82.5836 92.3643C82.5779 92.4082 82.5623 92.4504 82.5378 92.488C82.5133 92.5255 82.4806 92.5574 82.4418 92.5815C82.4031 92.6056 82.3593 92.6213 82.3136 92.6274C82.2679 92.6335 82.2214 92.6299 82.1773 92.6169C77.0284 90.6886 71.312 90.6886 66.1632 92.6169L66.0653 92.6314Z" fill="#0D0D0D"/>
<path id="Vector_69" d="M66.1295 105.244C66.0514 105.239 65.9777 105.208 65.9203 105.157C65.8629 105.105 65.8252 105.037 65.8135 104.963C65.7862 104.871 65.7938 104.772 65.8351 104.685C65.8765 104.597 65.9488 104.527 66.0392 104.486C71.3364 102.669 77.104 102.542 82.4823 104.125C82.5725 104.165 82.6454 104.233 82.688 104.319C82.7307 104.405 82.7404 104.503 82.7156 104.595C82.7123 104.639 82.6991 104.682 82.6769 104.721C82.6547 104.76 82.6241 104.794 82.587 104.821C82.5499 104.848 82.5072 104.867 82.4619 104.876C82.4166 104.886 82.3696 104.886 82.3243 104.876C77.057 103.323 71.4075 103.447 66.2198 105.23L66.1295 105.244Z" fill="#0D0D0D"/>
<path id="Vector_70" d="M91.0541 88.6965C91.0029 88.6965 90.953 88.6814 90.9111 88.6531C86.789 86.2744 82.1155 84.9156 77.3106 84.6988C72.5056 84.482 67.7197 85.4141 63.3831 87.4113C63.3201 87.4377 63.2494 87.4421 63.1834 87.4236C63.1174 87.4051 63.0602 87.365 63.0219 87.3102C61.5459 85.4076 60.9106 83.0237 61.2534 80.6749C61.2564 80.6061 61.279 80.5394 61.3189 80.482C61.3587 80.4247 61.4142 80.3791 61.4792 80.35C64.9959 79.0802 68.7461 78.5142 72.4992 78.6868C76.2524 78.8594 79.929 79.7669 83.303 81.3536C87.0657 83.072 89.6394 85.2741 91.295 88.0899C91.3394 88.1608 91.3629 88.2419 91.3629 88.3246C91.3629 88.4073 91.3394 88.4884 91.295 88.5593C91.2694 88.5991 91.2341 88.6325 91.1922 88.6564C91.1502 88.6802 91.1028 88.694 91.0541 88.6965ZM75.8904 83.895C80.8013 83.9017 85.6347 85.0697 89.9629 87.2957C88.1664 85.0246 85.8003 83.2264 83.0847 82.0684C79.8074 80.5275 76.2386 79.6396 72.5938 79.4584C68.9491 79.2773 65.3038 79.8065 61.878 81.0142C61.6334 82.9898 62.1705 84.9816 63.3831 86.5954C67.293 84.8197 71.5646 83.8975 75.8904 83.895Z" fill="#0D0D0D"/>
<path id="Vector_71" d="M74.1475 110.349C73.839 110.349 73.5305 110.349 73.2144 110.299C71.832 110.111 70.5094 109.634 69.3393 108.903C68.1693 108.172 67.1802 107.205 66.4415 106.068C64.6974 103.504 63.9022 100.453 64.1839 97.4036C64.6956 90.9054 69.5871 86.1113 75.0882 86.7178C80.5893 87.3243 84.6455 93.1003 84.1187 99.5985C83.6371 105.736 79.2573 110.349 74.1475 110.349ZM74.1475 87.4542C69.3689 87.4542 65.2751 91.7863 64.8235 97.4902C64.3419 103.562 68.1422 108.963 73.2821 109.526C78.422 110.089 82.9974 105.613 83.4791 99.5407C83.9607 93.4686 80.1604 88.0679 75.0205 87.5047C74.7285 87.4698 74.4343 87.453 74.14 87.4542H74.1475Z" fill="#0D0D0D"/>
<path id="Vector_72" d="M41.8522 90.3496C41.8199 90.3562 41.7866 90.3562 41.7543 90.3496C36.6035 88.4179 30.8836 88.4179 25.7328 90.3496C25.6886 90.3625 25.6421 90.3661 25.5963 90.36C25.5506 90.3539 25.5068 90.3382 25.4681 90.3141C25.4294 90.29 25.3966 90.2581 25.3721 90.2206C25.3476 90.183 25.332 90.1408 25.3264 90.0969C25.298 90.0045 25.3043 89.9055 25.3442 89.8171C25.3841 89.7287 25.455 89.6565 25.5446 89.6131C30.818 87.6309 36.6767 87.6309 41.95 89.6131C42.0382 89.6577 42.1076 89.7303 42.146 89.8186C42.1845 89.9069 42.1897 90.0053 42.1607 90.0969C42.1435 90.1648 42.1045 90.2257 42.0491 90.2711C41.9937 90.3165 41.9248 90.3439 41.8522 90.3496Z" fill="#0D0D0D"/>
<path id="Vector_73" d="M41.7542 102.962H41.6639C36.4762 101.18 30.8268 101.056 25.5595 102.608C25.5138 102.618 25.4665 102.618 25.4207 102.608C25.375 102.599 25.3318 102.58 25.2941 102.554C25.2565 102.527 25.2251 102.493 25.2021 102.454C25.1791 102.415 25.165 102.372 25.1607 102.327C25.1347 102.234 25.1449 102.135 25.1891 102.049C25.2334 101.962 25.3089 101.894 25.4014 101.858C30.7798 100.275 36.5472 100.402 41.8445 102.219C41.9345 102.259 42.0063 102.33 42.0464 102.418C42.0865 102.505 42.0922 102.604 42.0627 102.695C42.0508 102.767 42.0138 102.832 41.9576 102.881C41.9015 102.929 41.8297 102.958 41.7542 102.962Z" fill="#0D0D0D"/>
<path id="Vector_74" d="M16.8296 86.4141C16.7797 86.4123 16.7311 86.3988 16.6879 86.3749C16.6446 86.351 16.608 86.3174 16.5813 86.277C16.5368 86.2061 16.5133 86.125 16.5133 86.0423C16.5133 85.9596 16.5368 85.8785 16.5813 85.8076C18.2444 82.9918 20.8557 80.7896 24.5808 79.064C27.9556 77.4793 31.6324 76.5735 35.3854 76.4022C39.1384 76.2309 42.8882 76.7976 46.4045 78.0677C46.471 78.0957 46.5281 78.141 46.5693 78.1983C46.6105 78.2557 46.6342 78.323 46.6378 78.3925C46.9769 80.7423 46.339 83.1256 44.8618 85.0278C44.8248 85.0821 44.769 85.122 44.7043 85.1405C44.6395 85.159 44.57 85.1549 44.5081 85.1289C40.1716 83.1318 35.3857 82.1997 30.5808 82.4165C25.7758 82.6333 21.1023 83.9921 16.9802 86.3708C16.9358 86.3996 16.8832 86.4147 16.8296 86.4141ZM36.7118 77.1362C32.5834 77.146 28.5108 78.0518 24.7991 79.786C22.0856 80.944 19.7219 82.7424 17.9284 85.0134C21.9945 82.9045 26.5196 81.7404 31.1399 81.615C35.7603 81.4896 40.3469 82.4064 44.5307 84.2914C45.7433 82.6776 46.2804 80.6858 46.0358 78.7102C43.0482 77.6646 39.892 77.1318 36.7118 77.1362Z" fill="#0D0D0D"/>
<path id="Vector_75" d="M33.7043 108.068C28.5946 108.068 24.2148 103.454 23.7332 97.3313C23.4574 94.2825 24.2521 91.2328 25.9908 88.6672C26.7325 87.5337 27.7226 86.5687 28.8922 85.8394C30.0618 85.11 31.3829 84.6336 32.7637 84.4434C38.2647 83.8369 43.1563 88.631 43.668 95.1292C44.1797 101.627 40.116 107.403 34.6375 108.003C34.3281 108.042 34.0165 108.064 33.7043 108.068ZM33.7043 85.1726C33.4125 85.1714 33.1209 85.1883 32.8314 85.2231C31.5368 85.3948 30.2974 85.8375 29.201 86.5201C28.1047 87.2026 27.1783 88.1081 26.4875 89.1725C24.8586 91.5648 24.1139 94.4124 24.3728 97.2591C24.8469 103.331 29.4224 107.808 34.5623 107.245C39.7021 106.681 43.5024 101.281 43.0208 95.2086C42.6144 89.483 38.5282 85.1726 33.7495 85.1726H33.7043Z" fill="#0D0D0D"/>
<path id="Vector_76" d="M53.14 132.688C52.8615 132.69 52.5845 132.648 52.3198 132.566C51.6381 132.293 51.023 131.887 50.5136 131.374C50.0687 130.918 49.5308 130.554 48.9333 130.306C48.3029 130.158 47.6447 130.158 47.0143 130.306C46.6607 130.365 46.304 130.406 45.9458 130.428C44.971 130.421 44.0166 130.159 43.1844 129.672C42.3521 129.185 41.6731 128.491 41.2198 127.663C40.6934 126.723 40.3678 125.691 40.2618 124.629C40.1559 123.566 40.2718 122.494 40.6027 121.475C40.8831 120.541 41.4003 119.688 42.1081 118.993C42.8159 118.297 43.6923 117.781 44.6589 117.49C44.7054 117.483 44.7529 117.485 44.7983 117.497C44.8437 117.509 44.8859 117.53 44.9222 117.558C44.9585 117.587 44.9881 117.623 45.0088 117.663C45.0296 117.704 45.0411 117.748 45.0427 117.793C45.0653 117.886 45.0518 117.983 45.0046 118.067C44.9575 118.151 44.88 118.215 44.7868 118.248C43.9338 118.504 43.1604 118.959 42.5364 119.573C41.9124 120.187 41.4574 120.94 41.2122 121.764C40.9199 122.663 40.8173 123.609 40.9103 124.546C41.0033 125.483 41.2902 126.393 41.754 127.223C42.1547 127.952 42.7539 128.565 43.4879 128.994C44.2219 129.424 45.0634 129.655 45.9232 129.663C46.2612 129.639 46.5978 129.598 46.9315 129.54C47.6452 129.367 48.3927 129.367 49.1064 129.54C49.7832 129.817 50.3949 130.223 50.905 130.732C51.3595 131.189 51.9078 131.55 52.5154 131.793C53.4712 132.096 54.4344 131.656 55.4579 131.186C56.0808 130.867 56.7433 130.624 57.4296 130.464C58.25 130.353 59.0841 130.373 59.8979 130.522C60.8473 130.739 61.8411 130.694 62.765 130.392C63.8788 129.923 64.7894 128.681 65.4666 126.724C65.9997 125.287 66.2424 123.765 66.1816 122.241C66.144 120.791 65.5797 119.399 64.5862 118.306C64.1673 117.849 63.6017 117.54 62.9789 117.426C62.3561 117.312 61.7115 117.401 61.1471 117.678C61.1069 117.699 61.0622 117.711 61.0164 117.713C60.9706 117.715 60.925 117.707 60.8829 117.69C60.8408 117.672 60.8033 117.646 60.7735 117.613C60.7436 117.579 60.7221 117.54 60.7106 117.497C60.6739 117.408 60.6687 117.309 60.6959 117.216C60.7231 117.124 60.7811 117.042 60.8611 116.984C61.5359 116.639 62.3127 116.522 63.0653 116.653C63.818 116.784 64.5024 117.155 65.0076 117.706C66.1387 118.944 66.783 120.523 66.8288 122.168C66.904 123.812 66.6485 125.455 66.0763 127.006C65.3237 129.172 64.2928 130.558 62.9984 131.114C61.9795 131.454 60.8815 131.511 59.8301 131.28C59.086 131.144 58.3238 131.122 57.5725 131.215C56.9315 131.369 56.3125 131.597 55.7288 131.894C54.9394 132.343 54.0543 132.614 53.14 132.688Z" fill="#0D0D0D"/>
<path id="Vector_77" d="M53.0037 132.118C51.4158 132.118 49.7452 131.1 48.0218 129.086C47.924 128.977 47.8262 128.862 47.7359 128.746C47.2791 128.152 46.7456 127.616 46.148 127.151C45.859 126.902 45.5004 126.74 45.1166 126.685C44.7328 126.63 44.3405 126.684 43.9882 126.84C43.799 126.952 43.6349 127.099 43.5057 127.273C43.3764 127.446 43.2847 127.643 43.2357 127.851C43.1431 128.169 43.167 128.508 43.3034 128.811C43.3501 128.898 43.3651 128.997 43.346 129.092C43.3269 129.188 43.2748 129.274 43.198 129.338C43.1613 129.364 43.1187 129.382 43.0735 129.39C43.0284 129.398 42.982 129.395 42.9381 129.382C42.8942 129.37 42.8541 129.347 42.8208 129.317C42.7875 129.287 42.7621 129.25 42.7465 129.208C42.5067 128.671 42.4702 128.07 42.6433 127.51C42.8165 126.949 43.1884 126.465 43.6947 126.14C44.1403 125.934 44.6389 125.857 45.1294 125.918C45.62 125.98 46.0811 126.177 46.4565 126.486C47.1046 126.984 47.6815 127.562 48.1723 128.205C48.2701 128.313 48.3604 128.428 48.4583 128.544C50.1891 130.558 51.8296 131.497 53.3272 131.324C54.8248 131.15 55.8332 130.154 57.0147 129.071C57.7658 128.337 58.6044 127.69 59.5132 127.143C60.3259 126.696 61.4321 126.522 62.0793 127.36C62.2931 127.697 62.424 128.076 62.4618 128.469C62.4996 128.862 62.4434 129.258 62.2975 129.627C62.0413 130.223 61.6798 130.773 61.2289 131.252L61.1838 131.302C61.157 131.334 61.1232 131.359 61.0848 131.377C61.0464 131.394 61.0043 131.404 60.9618 131.404C60.9192 131.404 60.8772 131.394 60.8388 131.377C60.8004 131.359 60.7666 131.334 60.7398 131.302C60.676 131.23 60.6372 131.14 60.6291 131.046C60.621 130.951 60.6439 130.856 60.6946 130.775L60.7398 130.71C60.7638 130.672 60.7943 130.638 60.8301 130.609C61.1953 130.222 61.488 129.777 61.6955 129.295C61.7949 129.063 61.8385 128.813 61.8229 128.563C61.8072 128.313 61.7328 128.069 61.6052 127.851C61.1913 127.317 60.3711 127.497 59.7916 127.815C58.9289 128.337 58.1332 128.955 57.4211 129.656C56.217 130.753 54.9678 131.887 53.4025 132.067L53.0037 132.118Z" fill="#0D0D0D"/>
<path id="Vector_78" d="M52.6591 150.977C51.9227 150.977 51.1868 150.941 50.4542 150.869C46.8527 150.528 43.416 149.253 40.5132 147.179C37.2631 144.661 34.8471 141.289 33.5597 137.476C33.5245 137.385 33.5223 137.286 33.5538 137.194C33.5852 137.102 33.6484 137.023 33.7327 136.97C33.775 136.953 33.8205 136.945 33.8662 136.947C33.912 136.949 33.9568 136.96 33.9976 136.98C34.0384 137 34.0742 137.028 34.1025 137.062C34.1308 137.097 34.151 137.137 34.1616 137.179C35.4174 140.842 37.7387 144.084 40.8518 146.522C43.6705 148.546 47.0112 149.795 50.5144 150.132C59.0858 150.992 68.1164 146.595 73.5046 138.927C73.5268 138.889 73.5579 138.857 73.5955 138.833C73.6331 138.809 73.676 138.794 73.7207 138.79C73.7655 138.785 73.8108 138.79 73.853 138.805C73.8952 138.82 73.9331 138.844 73.9636 138.876C74.032 138.949 74.0734 139.042 74.0816 139.14C74.0897 139.238 74.0642 139.335 74.0088 139.418C68.9442 146.595 60.7489 150.977 52.6591 150.977Z" fill="#0D0D0D"/>
<path id="Vector_79" d="M74.084 101.772C76.266 101.772 78.0348 99.6833 78.0348 97.1073C78.0348 94.5314 76.266 92.4431 74.084 92.4431C71.902 92.4431 70.1331 94.5314 70.1331 97.1073C70.1331 99.6833 71.902 101.772 74.084 101.772Z" fill="#3FA6DB"/>
<path id="Vector_80" d="M74.0837 99.2158C75.0687 99.2158 75.8672 98.2719 75.8672 97.1076C75.8672 95.9432 75.0687 94.9993 74.0837 94.9993C73.0987 94.9993 72.3002 95.9432 72.3002 97.1076C72.3002 98.2719 73.0987 99.2158 74.0837 99.2158Z" fill="#302113"/>
<path id="Vector_81" d="M73.3903 96.1037C73.7727 96.1037 74.0827 95.7384 74.0827 95.2878C74.0827 94.8372 73.7727 94.4719 73.3903 94.4719C73.008 94.4719 72.698 94.8372 72.698 95.2878C72.698 95.7384 73.008 96.1037 73.3903 96.1037Z" fill="#F4F4F4"/>
<path id="Vector_82" d="M32.5056 99.9522C34.6875 99.9522 36.4564 97.864 36.4564 95.288C36.4564 92.712 34.6875 90.6238 32.5056 90.6238C30.3236 90.6238 28.5547 92.712 28.5547 95.288C28.5547 97.864 30.3236 99.9522 32.5056 99.9522Z" fill="#3FA6DB"/>
<path id="Vector_83" d="M46.9709 155.345C46.803 155.343 46.6408 155.286 46.5102 155.185C46.3795 155.084 46.2878 154.944 46.2497 154.787C46.2117 154.63 46.2294 154.466 46.3001 154.319C46.3708 154.173 46.4903 154.054 46.6397 153.981C48.8047 152.939 51.1902 152.389 53.6119 152.373C56.0337 152.357 58.427 152.875 60.6069 153.887C60.6987 153.926 60.7812 153.983 60.8497 154.054C60.9182 154.125 60.9712 154.208 61.0056 154.298C61.04 154.389 61.0551 154.486 61.05 154.582C61.0449 154.678 61.0197 154.773 60.9759 154.86C60.9322 154.946 60.8707 155.024 60.7952 155.088C60.7196 155.151 60.6314 155.2 60.536 155.23C60.4406 155.261 60.3398 155.273 60.2395 155.265C60.1392 155.258 60.0415 155.231 59.9522 155.186C57.9799 154.267 55.8131 153.796 53.6203 153.811C51.4275 153.826 49.2679 154.327 47.3095 155.273C47.204 155.322 47.0881 155.347 46.9709 155.345Z" fill="#1F1B1B"/>
<path id="Vector_84" d="M32.506 97.3099C33.4536 97.3099 34.2218 96.4048 34.2218 95.2882C34.2218 94.1717 33.4536 93.2666 32.506 93.2666C31.5584 93.2666 30.7902 94.1717 30.7902 95.2882C30.7902 96.4048 31.5584 97.3099 32.506 97.3099Z" fill="#302113"/>
<path id="Vector_85" d="M31.6798 94.3781C31.9707 94.3781 32.2065 94.1001 32.2065 93.7572C32.2065 93.4142 31.9707 93.1362 31.6798 93.1362C31.3889 93.1362 31.153 93.4142 31.153 93.7572C31.153 94.1001 31.3889 94.3781 31.6798 94.3781Z" fill="#F4F4F4"/>
</g>
</g>
</svg>
