<svg width="80" height="82" viewBox="0 0 80 82" fill="none" xmlns="http://www.w3.org/2000/svg">
<path d="M40.2752 77.8508C61.4756 77.8508 78.6618 60.8371 78.6618 39.8496C78.6618 18.8621 61.4756 1.84839 40.2752 1.84839C19.0749 1.84839 1.88867 18.8621 1.88867 39.8496C1.88867 60.8371 19.0749 77.8508 40.2752 77.8508Z" fill="#FFBB1E"/>
<path d="M40.2752 73.4804C59.0372 73.4804 74.2467 58.4235 74.2467 39.8499C74.2467 21.2763 59.0372 6.21948 40.2752 6.21948C21.5133 6.21948 6.30371 21.2763 6.30371 39.8499C6.30371 58.4235 21.5133 73.4804 40.2752 73.4804Z" fill="#FFE779"/>
<mask id="mask0_12_541" style="mask-type:luminance" maskUnits="userSpaceOnUse" x="6" y="6" width="69" height="68">
<path d="M40.2742 73.4826C59.0362 73.4826 74.2457 58.4257 74.2457 39.8521C74.2457 21.2785 59.0362 6.22168 40.2742 6.22168C21.5123 6.22168 6.30273 21.2785 6.30273 39.8521C6.30273 58.4257 21.5123 73.4826 40.2742 73.4826Z" fill="white"/>
</mask>
<g mask="url(#mask0_12_541)">
<path d="M36.6016 64.7935C36.6058 64.8088 36.6124 64.82 36.6165 64.826C36.6242 64.8374 36.6323 64.8448 36.6363 64.8482C36.6489 64.859 36.6624 64.8653 36.6651 64.8666L36.6655 64.8668C36.6709 64.8694 36.6766 64.8717 36.6818 64.8738C36.7201 64.8892 36.8087 64.9179 36.926 64.9528C37.1639 65.0235 37.5386 65.1245 37.9145 65.2016L37.9146 65.2016C39.7728 65.5804 41.6285 65.3689 43.469 64.9438C44.3894 64.7312 45.3077 64.4647 46.2215 64.191C46.3945 64.1392 46.5674 64.0871 46.7401 64.035C47.4184 63.8306 48.094 63.6271 48.768 63.4426C47.8116 66.969 47.931 70.7887 48.0925 74.4929L47.9986 74.5568L48.1142 74.8572L48.2187 74.8354C48.3616 75.0726 48.4323 75.3748 48.4342 75.6962C48.4367 76.1372 48.3093 76.596 48.0841 76.9348C47.6296 77.6189 46.889 77.9411 46.1716 78.1638C44.8006 78.5438 43.3936 78.7821 41.9731 78.8749L41.9731 78.8749L41.9703 78.8752C41.5005 78.9181 41.0477 78.9581 40.5719 78.9582C38.5787 78.9333 36.6542 78.2345 35.1177 76.9778C33.4575 75.6053 32.2002 73.818 31.4752 71.8027C31.524 71.7588 31.5728 71.6857 31.5736 71.599C31.6621 68.8462 31.6868 66.0934 31.6477 63.3406C33.3584 63.5998 35.0797 63.8845 36.6016 64.7935ZM36.8086 64.8027C36.8066 64.8021 36.8046 64.8015 36.8027 64.8008L36.7865 64.8384C36.7951 64.8291 36.8031 64.8173 36.8086 64.8027Z" fill="#FDC499" stroke="black" stroke-width="0.217568"/>
<path d="M53.8481 52.833L54.4575 43.6058C54.6044 41.3789 54.7513 39.1091 54.3419 36.9298C54.1641 36.0616 53.9414 35.2029 53.6747 34.3572L52.9377 31.8775C52.4801 30.3349 52.0201 28.6373 52.4705 27.0899C51.8395 27.5191 51.5553 28.5991 50.8713 29.1308C51.0989 28.1683 51.2208 27.1842 51.2349 26.1958C51.2562 25.8614 51.2154 25.5261 51.1145 25.2063L50.9989 26.2053C50.8978 27.0875 50.7581 28.0364 50.2475 28.6611C50.4404 27.7507 50.5173 26.8199 50.4763 25.8906C50.1054 27.109 49.4936 28.1938 48.8867 29.262C49.02 28.2494 49.1251 27.2314 49.2022 26.2077C48.9276 26.5623 48.6743 26.9325 48.4435 27.3164L47.721 28.4609C47.8863 27.6175 47.9973 26.7646 48.0533 25.9073C47.9405 26.3052 47.7507 26.6777 47.4946 27.004C47.0611 27.6335 46.5866 28.2939 45.9411 28.5276C46.2484 27.7194 46.4169 26.8659 46.4397 26.0026C46.1654 26.6999 45.8535 27.382 45.5052 28.046C44.936 27 44.7368 25.7956 44.9392 24.6245C44.4228 25.5455 44.2129 26.6043 44.3395 27.6502C43.9218 26.7255 43.677 25.7335 43.617 24.7223C43.4122 25.5949 43.2581 26.563 43.1015 27.5286C42.9798 26.9789 42.8993 26.421 42.8607 25.8596C42.8101 25.5735 42.7933 25.4686 42.7764 25.3637C42.6199 24.7247 42.509 24.2717 42.4007 23.8163L41.9262 26.6059C41.626 25.9701 41.349 25.3247 41.0953 24.6698C41.2832 25.7523 40.946 26.8681 40.5173 27.8433C40.5423 27.23 40.4253 26.6192 40.1752 26.0575C39.9337 25.5247 39.6409 25.0161 39.301 24.5387C39.1642 25.32 38.9735 26.0912 38.7302 26.8467C38.5905 26.1314 38.4893 25.4161 38.4099 24.6865C37.6359 25.6389 37.1366 26.7807 36.9648 27.9911L36.7721 25.7094C36.8154 26.4032 36.4638 27.0303 36.129 27.593L35.681 28.3464C35.7744 27.3378 35.7348 26.3215 35.563 25.3231L35.0452 28.2558C34.5775 27.2199 34.2136 26.141 33.959 25.0346C33.4753 26.1778 33.3707 27.4434 33.6604 28.6492C33.0468 27.9322 32.7135 27.021 32.7211 26.0813C32.5327 26.6489 32.4059 27.2348 32.3429 27.829C32.1888 27.1853 32.0443 26.5892 31.8781 26.0026C31.3709 27.1 31.1736 28.3129 31.3073 29.5123C30.8309 28.5659 30.5835 27.5226 30.5847 26.4652C30.3506 27.3191 30.2547 28.2043 30.3005 29.0879C30.0206 28.4851 29.8432 27.8406 29.7755 27.1805L29.4769 29.9296C29.3612 29.0879 29.2047 28.2606 28.9952 27.4356L29.012 29.5266C28.7294 28.8288 28.4316 28.1398 28.1185 27.4595C28.4942 28.4656 28.4749 29.6315 28.2846 30.7092C28.0944 31.7869 27.7379 32.8122 27.4561 33.8636C26.9431 35.7711 26.671 37.7715 26.4012 39.76C26.3266 40.3131 26.2519 40.8663 26.1989 41.429C26.0954 42.4867 26.0688 43.5505 26.1194 44.612C25.3295 43.1242 25.4499 41.1357 24.7322 39.5788C24.5992 39.2442 24.3789 38.9505 24.0939 38.7276C23.9639 38.628 23.8042 38.574 23.6399 38.574C23.4756 38.574 23.3159 38.628 23.1859 38.7276C22.9605 38.9608 22.8376 39.2728 22.8439 39.5955C22.8471 39.9268 22.8982 40.256 22.9957 40.573C23.3449 41.8844 23.8386 43.1338 24.1999 44.438C24.5612 45.7422 24.814 47.137 24.6406 48.4912C24.5347 49.3258 24.2794 50.2127 24.5756 50.9757C24.7324 51.3768 25.0371 51.704 25.4282 51.8912C25.7734 52.0351 26.1406 52.1205 26.5144 52.144C26.6517 54.1086 26.8974 56.0947 27.5766 57.8853C27.8973 58.6968 28.2773 59.4841 28.7134 60.241C29.8068 62.2048 31.0542 64.0807 32.4441 65.8512C33.7182 67.4726 35.1921 69.0295 37.0202 69.4277C36.8214 69.3972 36.6343 69.3149 36.4783 69.1893C36.8649 69.6251 37.3882 69.9198 37.9643 70.0261C40.6377 70.7104 43.5351 69.9904 45.7725 68.083C46.3161 67.6064 46.8316 67.0993 47.3164 66.5642C48.9348 64.8308 50.5148 62.9877 51.6371 60.7536C52.8748 58.2761 53.6252 55.5882 53.8481 52.833Z" fill="#FDC499"/>
<path d="M53.9512 52.1556C54.5341 52.282 55.1868 52.3941 55.6805 51.9911C56.0972 51.6502 56.2922 51.0136 56.3404 50.4032C56.3886 49.7928 56.3236 49.1777 56.3404 48.5649C56.3573 48.162 56.4103 47.7638 56.4657 47.3728C56.6834 45.5372 57.0051 43.7151 57.429 41.9151C57.6193 41.1665 57.8505 40.3987 57.7783 39.6215C57.7716 39.4691 57.733 39.3197 57.6651 39.1827C57.6191 39.1053 57.5575 39.038 57.4842 38.9851C57.4109 38.9322 57.3273 38.8948 57.2388 38.8752C57.0567 38.8339 56.8665 38.8446 56.6904 38.9063C56.5143 38.9679 56.3595 39.0779 56.2441 39.2233C55.5673 40.394 54.8761 41.6076 54.5847 42.9857C54.4812 43.5254 54.4104 44.0708 54.3727 44.6189C54.1511 47.1534 53.9946 49.7046 53.9512 52.1556Z" fill="#FDC499"/>
<path d="M54.5576 42.5063L54.5721 40.4105C54.5721 38.9204 54.5914 37.4039 54.2349 35.9781C54.0153 35.1957 53.7541 34.4253 53.4522 33.6701C53.233 33.0622 53.0331 32.447 52.8308 31.8295C52.5816 31.1222 52.3883 30.3968 52.2527 29.6598C52.1174 28.9109 52.1603 28.141 52.378 27.4114C51.6716 28.0584 51.0747 28.8135 50.6102 29.6479C50.9763 28.6941 51.0702 27.6474 51.1569 26.6103C51.2135 26.2207 51.1996 25.8243 51.116 25.4396C51.1349 26.1005 51.0413 26.7598 50.839 27.3899C50.6521 27.9389 50.4016 28.4646 50.0924 28.9564C50.3679 27.9759 50.4937 26.96 50.4657 25.9427L48.9026 29.5191C48.9071 28.4148 49.0152 27.3133 49.2253 26.2288C48.6256 26.8582 48.3101 27.8263 47.6887 28.4223C47.8737 27.572 47.9698 26.7052 47.9753 25.8354C47.614 27.0275 46.7711 27.8716 45.9739 28.6679C46.1457 27.8048 46.2846 26.9306 46.3905 26.0452C46.1307 26.7339 45.8082 27.3979 45.4272 28.0289C44.9402 27.0106 44.7724 25.8712 44.9455 24.7577C44.384 25.689 44.1837 26.7906 44.3819 27.8573C43.8618 26.8069 43.6135 25.6452 43.6593 24.4763C43.6037 24.8292 43.5282 25.1786 43.4329 25.523L43.1921 26.4267L42.9657 27.3113C42.9632 26.8827 42.8966 26.4568 42.7682 26.0476C42.7061 25.8748 42.6562 25.6979 42.6189 25.5183C42.5922 25.2919 42.5777 25.0643 42.5755 24.8364C42.5611 24.5761 42.5159 24.3184 42.4407 24.0686C42.1203 24.7839 42.1516 25.6565 41.9445 26.4362C41.7036 26.1286 41.6314 25.6852 41.4821 25.3013C41.3893 25.077 41.2806 24.8595 41.1569 24.6504C41.0486 25.7019 40.9354 26.7748 40.5524 27.7261C40.6113 26.9542 40.4324 26.1827 40.0394 25.5135C39.7986 25.1392 39.5168 24.8268 39.288 24.4525C39.0841 25.3045 38.909 26.1668 38.7629 27.0394C38.6256 26.3599 38.5221 25.6685 38.4498 24.9746C38.4498 25.0009 38.2957 24.7171 38.2981 24.7219C37.5143 25.6763 37.0445 26.8453 36.9517 28.0718L36.7109 25.6113C36.6699 26.6389 36.2844 27.6238 35.6151 28.4104C35.8365 27.3719 35.8151 26.297 35.5524 25.2679C35.4647 26.2578 35.2865 27.2378 35.0201 28.1958C34.5049 27.2078 34.1497 26.1458 33.9676 25.0486C33.5143 26.2235 33.3904 27.498 33.6088 28.7371C33.0457 27.9471 32.7018 27.0246 32.6117 26.0619C32.6192 26.6999 32.5199 27.3348 32.3179 27.9407L31.8073 25.988C31.3888 27.0793 31.2138 28.2473 31.2943 29.4118C30.8644 28.5487 30.6184 27.6072 30.5717 26.646C30.3856 27.5131 30.336 28.4034 30.4248 29.2854L29.671 27.378L29.5144 29.9197C29.3169 29.0677 29.1563 28.2038 29.0327 27.3279C28.9556 28.1001 28.9677 28.8784 29.0688 29.6479L28.2042 27.4162C28.6859 29.1972 28.2331 31.1333 27.749 32.9143C27.0626 35.4488 26.3039 38.0024 26.2172 40.6704C26.169 42.0676 26.3015 43.491 26.0366 44.8548L25.1575 40.7181C25.0371 40.153 24.8901 39.526 24.4903 39.2112C24.2688 39.0276 23.9797 38.9466 23.8232 38.6795C23.7774 38.6032 23.722 38.4983 23.645 38.5198C23.5679 38.5412 23.6763 38.7105 23.6811 38.6152C23.2548 34.3234 23.3704 29.8958 24.5048 25.802C24.8685 24.4835 25.3357 23.2127 25.803 21.9418C26.2702 20.671 26.7664 19.3525 27.8164 18.5347C27.2436 19.0625 26.8321 19.7392 26.6291 20.4874C27.9504 17.6899 30.1055 15.3602 32.8044 13.8114C35.3357 12.3665 38.1391 11.7252 40.9329 11.6012C42.765 11.486 44.6032 11.6943 46.3616 12.2163C51.2195 13.7494 55.2537 18.6539 56.3929 24.4787C56.333 23.9925 56.2249 23.5134 56.0702 23.0481C56.9974 25.4754 57.2094 28.2101 57.2913 30.8853C57.3732 33.5223 57.3298 36.2476 56.4652 38.6676C56.2132 39.3454 55.9262 40.0099 55.6053 40.6585C55.2802 41.3428 54.943 42.0533 54.5576 42.5063Z" fill="#896E56"/>
<path d="M42.3184 37.9645C42.2817 38.5548 42.3737 39.1459 42.5882 39.6979C42.6074 39.7728 42.6548 39.8376 42.7207 39.8791C42.763 39.8923 42.8084 39.8923 42.8507 39.8791C44.3102 39.593 45.7409 38.9778 47.2197 39.0517C47.5646 39.0749 47.9079 39.1171 48.2481 39.1781L49.1802 39.3259C49.5563 39.3703 49.9273 39.4501 50.2881 39.5643C50.76 39.7582 51.2077 40.0055 51.6224 40.3011C51.4695 39.8591 51.1837 39.4739 50.8035 39.1972C49.1031 37.7976 46.9861 37.3398 44.934 37.3279C44.0453 37.335 43.106 37.4304 42.3184 37.9645Z" fill="#896E56"/>
<path d="M28.0774 39.5261C28.7421 39.0492 29.5441 38.9539 30.2956 38.7202C30.5918 38.6296 30.8857 38.5128 31.1843 38.4341C31.8947 38.2686 32.6305 38.2394 33.3519 38.3483C33.7405 38.3944 34.1258 38.4587 34.508 38.5414C35.1628 38.6834 35.8036 38.8829 36.4227 39.1375C36.5317 39.2006 36.6609 39.2202 36.784 39.1923C36.9068 39.1278 37.0024 39.0222 37.0538 38.8943C37.3169 38.3942 37.4711 37.8452 37.5065 37.2825C37.5149 37.2537 37.5149 37.2231 37.5065 37.1943C37.491 37.1705 37.4669 37.1535 37.4391 37.1466C36.1519 36.6876 34.7758 36.5253 33.4157 36.672C32.0556 36.8187 30.7471 37.2704 29.5899 37.993C28.9463 38.3481 28.4208 38.8807 28.0774 39.5261Z" fill="#896E56"/>
<path d="M45.148 40.2701C44.5074 40.4918 44.0305 41.1475 43.7029 41.8508C43.455 42.3559 43.2969 42.8996 43.2357 43.4579C43.1697 44.2501 43.337 45.0443 43.7174 45.7444C44.0666 46.3801 44.5879 46.9068 45.2227 47.2656C45.4405 47.3917 45.6758 47.4857 45.9211 47.5445C46.5409 47.6431 47.176 47.5206 47.713 47.1988C47.9569 47.0762 48.1789 46.9151 48.3706 46.7219C48.8522 46.2451 49.0714 45.4869 49.2786 44.774C49.4119 44.3789 49.4881 43.9671 49.5049 43.5508C49.484 43.0892 49.371 42.6363 49.1726 42.218C48.8715 41.5027 48.4669 40.8375 47.8913 40.4608C47.5962 40.2778 47.2696 40.1501 46.9279 40.0841C46.3287 39.9812 45.7123 40.0456 45.148 40.2701Z" fill="#D39C76"/>
<path d="M32.5267 39.3282C31.7873 39.7598 30.9949 40.282 30.6794 41.1951C30.5662 41.5266 30.5229 41.889 30.4193 42.2252C30.3343 42.4466 30.2651 42.6737 30.2122 42.9047C30.18 43.1634 30.1939 43.4256 30.2531 43.6796C30.4128 44.6439 30.8844 45.5308 31.597 46.2069C31.912 46.5036 32.3022 46.7103 32.7262 46.8051C33.1502 46.9 33.5923 46.8795 34.0055 46.7458C34.4122 46.5794 34.7864 46.3437 35.111 46.0496C35.4707 45.7662 35.7772 45.4224 36.0166 45.0338C36.2863 44.5407 36.441 43.9941 36.4694 43.434C36.5565 42.3767 36.278 41.3216 35.6794 40.4417C35.4232 40.0568 35.0751 39.7403 34.666 39.5203C34.2568 39.3003 33.7991 39.1836 33.3335 39.1804C32.8181 39.1971 32.3172 39.3807 32.5267 39.3282Z" fill="#D39C76"/>
<path d="M30.6453 40.9113C32.0364 40.6264 33.4583 40.5174 34.877 40.587C35.2864 40.6061 35.7537 40.6776 35.9897 41.0853C36.0626 41.2245 36.1161 41.3729 36.1487 41.5264C36.4473 42.6876 36.5461 44.018 36.0355 45.0647C34.3047 44.4305 32.4068 44.4019 30.6574 44.9836C30.1874 43.6667 30.1831 42.2309 30.6453 40.9113Z" fill="#F4F4F4"/>
<path d="M43.7339 41.6074C44.5799 41.4244 45.4408 41.3166 46.3062 41.2856C47.1226 41.2403 47.9921 41.2307 48.7146 41.6837C48.7483 41.7052 48.7869 41.729 48.823 41.71C48.8591 41.6909 48.8615 41.6122 48.823 41.6098C49.1279 41.9685 49.3078 42.4151 49.336 42.883C49.4753 43.912 49.334 44.9592 48.9266 45.9158C48.9067 45.8283 48.8622 45.748 48.7983 45.6843C48.7344 45.6206 48.6536 45.5761 48.5653 45.5558C48.0589 45.4001 47.5297 45.33 46.9998 45.3484C45.9208 45.3317 44.796 45.3484 43.8302 45.9445C43.4425 45.4867 43.3341 44.7857 43.2787 44.13C43.2492 43.8128 43.2492 43.4935 43.2787 43.1763C43.3578 42.6353 43.511 42.1075 43.7339 41.6074Z" fill="#F4F4F4"/>
<path d="M33.6748 56.8862C33.952 58.0917 34.6422 59.165 35.6281 59.9238C36.5231 60.5816 37.5912 60.9691 38.7037 61.0397C41.4445 61.2566 44.2432 59.807 46.0182 57.251C45.1367 58.0045 44.0481 58.281 42.9932 58.5409C43.9801 58.4189 44.9224 58.0614 45.7388 57.499C44.3901 57.7946 42.9787 58.0879 41.6709 57.5824C41.3024 57.4394 40.9484 57.2319 40.551 57.2248C40.3392 57.2205 40.133 57.2923 39.9705 57.4268C39.808 57.5614 39.7002 57.7496 39.6671 57.9568C39.5924 57.771 39.4647 57.6108 39.2997 57.4956C39.1346 57.3805 38.9392 57.3154 38.7374 57.3083C38.3583 57.3214 37.9832 57.3905 37.6247 57.5133C36.4524 57.8028 35.2156 57.691 34.1155 57.1962C33.8964 57.0984 33.6483 56.9291 33.6748 56.8862Z" fill="#E59466"/>
<mask id="mask1_12_541" style="mask-type:luminance" maskUnits="userSpaceOnUse" x="35" y="40" width="9" height="15">
<path d="M41.8298 40.017C41.4926 42.4776 41.1555 44.9906 41.4734 47.456C41.5625 48.1403 41.7142 48.8603 42.155 49.3109C42.5138 49.6829 43.01 49.8116 43.3761 50.1741C43.7255 50.5552 43.9328 51.0432 43.9637 51.557C44.0006 52.086 43.9234 52.6167 43.7373 53.1139C43.6184 53.4837 43.4139 53.8209 43.14 54.0986C43.0198 54.2266 42.8664 54.3194 42.6965 54.3669C42.5266 54.4144 42.3468 54.4148 42.1767 54.368C42.2816 54.307 42.3685 54.2199 42.4289 54.1153C42.4893 54.0108 42.5211 53.8924 42.5211 53.772C42.5211 53.6515 42.4893 53.5331 42.4289 53.4286C42.3685 53.324 42.2816 53.2369 42.1767 53.1759C41.9069 53.0543 41.6107 53.2212 41.3722 53.4143C41.0061 53.7171 40.6834 54.0938 40.3053 54.368C39.9272 54.6422 39.4575 54.8091 39.0408 54.6375C38.7168 54.4634 38.4482 54.2033 38.2653 53.8864C38.1058 53.6382 37.9036 53.4195 37.668 53.2403C37.391 53.0018 36.919 52.6752 36.6251 52.8731C36.3313 53.071 36.2277 53.636 36.483 53.8983C35.989 53.3253 35.7432 52.5825 35.799 51.8311C35.8617 51.0658 36.2952 50.3434 36.8973 50.1073C37.3308 49.9356 37.8005 50.0167 38.2581 50.0572C38.7157 50.0978 39.207 50.0739 39.5731 49.7401C40.103 49.2633 40.168 48.3477 40.2354 47.549C40.457 44.9787 41.206 42.5086 41.8298 40.017Z" fill="white"/>
</mask>
<g mask="url(#mask1_12_541)">
<path d="M35.7336 52.7086L44.0091 53.6457V54.8259H35.7336V52.7086Z" fill="#FAA870"/>
<path d="M35.7336 52.4157L44.0091 53.3527V53.646L35.7336 52.7089V52.4157Z" fill="#FAA870"/>
<path d="M35.7336 52.1247L44.0091 53.0617V53.3526L35.7336 52.4155V52.1247Z" fill="#FAAB75"/>
<path d="M35.7336 51.8317L44.0091 52.7687V53.062L35.7336 52.125V51.8317Z" fill="#FBAE79"/>
<path d="M35.7336 51.5407L44.0091 52.4777V52.7686L35.7336 51.8316V51.5407Z" fill="#FBB17D"/>
<path d="M35.7336 51.247L44.0091 52.184V52.4773L35.7336 51.5402V51.247Z" fill="#FBB381"/>
<path d="M35.7336 50.956L44.0091 51.893V52.1839L35.7336 51.2468V50.956Z" fill="#FBB684"/>
<path d="M35.7336 50.663L44.0091 51.6V51.8933L35.7336 50.9563V50.663Z" fill="#FCB887"/>
<path d="M35.7336 50.3695L44.0091 51.3066V51.5998L35.7336 50.6628V50.3695Z" fill="#FCB989"/>
<path d="M35.7336 50.079L44.0091 51.016V51.3069L35.7336 50.3699V50.079Z" fill="#FCBB8B"/>
<path d="M35.7336 49.7856L44.0091 50.7226V51.0158L35.7336 50.0788V49.7856Z" fill="#FCBC8D"/>
<path d="M35.7336 49.4945L44.0091 50.4316V50.7224L35.7336 49.7854V49.4945Z" fill="#FCBD8F"/>
<path d="M35.7336 49.2016L44.0091 50.1386V50.4319L35.7336 49.4948V49.2016Z" fill="#FCBE91"/>
<path d="M35.7336 48.9106L44.0091 49.8476V50.1385L35.7336 49.2014V48.9106Z" fill="#FCBF92"/>
<path d="M35.7336 48.6176L44.0091 49.5546V49.8479L35.7336 48.9109V48.6176Z" fill="#FDC093"/>
<path d="M35.7336 48.3241L44.0091 49.2635V49.5544L35.7336 48.6174V48.3241Z" fill="#FDC194"/>
<path d="M35.7336 48.0329L44.0091 48.9699V49.2632L35.7336 48.3238V48.0329Z" fill="#FDC195"/>
<path d="M35.7336 47.9691L35.7601 47.745L44.0091 48.6773V48.9705L35.7336 48.0335V47.9691Z" fill="#FDC296"/>
<path d="M35.759 47.745L35.7928 47.4565L44.008 48.3863V48.6772L35.759 47.745Z" fill="#FDC296"/>
<path d="M35.7942 47.4564L35.8255 47.1679L44.0095 48.093V48.3862L35.7942 47.4564Z" fill="#FDC397"/>
<path d="M35.8264 47.1676L35.8601 46.8791L44.0104 47.8018V48.0927L35.8264 47.1676Z" fill="#FDC397"/>
<path d="M35.8586 46.879L35.8923 46.5905L44.0089 47.5084V47.8017L35.8586 46.879Z" fill="#FDC398"/>
<path d="M35.8938 46.5904L35.9275 46.3019L44.0104 47.2175V47.5084L35.8938 46.5904Z" fill="#FDC398"/>
<path d="M35.926 46.3018L35.9597 46.0133L44.0089 46.9241V47.2174L35.926 46.3018Z" fill="#FDC398"/>
<path d="M35.9612 46.014L35.9949 45.7255L44.0103 46.6339V46.9248L35.9612 46.014Z" fill="#FDC498"/>
<path d="M35.9934 45.7254L36.0247 45.4369L44.0088 46.3406V46.6338L35.9934 45.7254Z" fill="#FDC499"/>
<path d="M36.0256 45.4366L36.0594 45.1481L44.0097 46.047V46.3402L36.0256 45.4366Z" fill="#FDC499"/>
<path d="M36.0588 45.148L36.0926 44.8595L44.0092 45.756V46.0469L36.0588 45.148Z" fill="#FDC499"/>
<path d="M36.093 44.8602L36.1267 44.5717L44.0096 45.4634V45.7567L36.093 44.8602Z" fill="#FDC499"/>
<path d="M36.1262 44.5709L36.1599 44.2824L44.0091 45.1717V45.4626L36.1262 44.5709Z" fill="#FDC499"/>
<path d="M36.1604 44.283L36.1941 43.9945L44.0096 44.8791V45.1724L36.1604 44.283Z" fill="#FDC499"/>
<path d="M36.1936 43.9942L36.2249 43.7057L44.0091 44.5879V44.8788L36.1936 43.9942Z" fill="#FDC499"/>
<path d="M36.2258 43.7056L36.2596 43.4171L44.01 44.2946V44.5878L36.2258 43.7056Z" fill="#FDC499"/>
<path d="M36.2581 43.4171L36.2918 43.1286L44.0085 44.0036V44.2945L36.2581 43.4171Z" fill="#FDC499"/>
<path d="M36.2932 43.1285L36.3269 42.84L44.01 43.7103V44.0035L36.2932 43.1285Z" fill="#FDC499"/>
<path d="M36.3254 42.8407L36.3592 42.5522L44.0085 43.4176V43.7109L36.3254 42.8407Z" fill="#FDC499"/>
<path d="M36.3606 42.5521L36.3943 42.2636L44.0099 43.1267V43.4176L36.3606 42.5521Z" fill="#FDC499"/>
<path d="M36.3928 42.2633L36.4265 41.9748L44.0084 42.8331V43.1264L36.3928 42.2633Z" fill="#FDC499"/>
<path d="M36.428 41.9747L36.4593 41.6862L44.0098 42.5421V42.833L36.428 41.9747Z" fill="#FDC499"/>
<path d="M36.4583 41.6861L36.492 41.3976L44.0088 42.2488V42.5421L36.4583 41.6861Z" fill="#FDC499"/>
<path d="M36.4924 41.3975L36.5261 41.109L44.0092 41.9578V42.2487L36.4924 41.3975Z" fill="#FDC499"/>
<path d="M36.5256 41.109L36.5594 40.8205L44.0088 41.6645V41.9578L36.5256 41.109Z" fill="#FDC499"/>
<path d="M36.5598 40.8205L36.6513 40.017H44.0092V41.6645L36.5598 40.8205Z" fill="#FDC499"/>
</g>
<path d="M42.0943 53.2569C41.3655 53.4983 40.7347 53.9656 40.2952 54.5897C40.7947 54.4427 41.3166 54.3846 41.8366 54.418C41.9601 54.4378 42.0867 54.4271 42.2051 54.387C42.2911 54.3388 42.3634 54.2698 42.4152 54.1864C42.4671 54.103 42.4967 54.008 42.5013 53.9102C42.5399 53.5978 42.3399 53.264 42.0943 53.2569Z" fill="#E59466"/>
<path d="M37.0102 52.9566C36.8652 52.9459 36.7205 52.98 36.596 53.0544C36.5274 53.0985 36.4691 53.1566 36.425 53.2249C36.381 53.2932 36.3523 53.37 36.3407 53.4502C36.3258 53.5609 36.3401 53.6736 36.3823 53.7773C36.4245 53.8809 36.4932 53.9719 36.5815 54.0415C36.749 54.1489 36.9499 54.1929 37.1475 54.1655C37.3402 54.1488 37.5305 54.0963 37.7256 54.0796C37.9234 54.0521 38.1244 54.0989 38.2891 54.2108C38.0507 53.5312 37.5136 52.9781 37.0102 52.9566Z" fill="#E59466"/>
<path d="M40.2894 59.23C39.4185 59.2214 38.5486 59.1673 37.6834 59.0679C36.8291 59.0184 35.9895 58.8257 35.2003 58.498C34.3203 58.105 33.6292 57.3885 33.2735 56.5C33.263 56.4728 33.2608 56.4431 33.2672 56.4147C33.2737 56.3863 33.2884 56.3604 33.3096 56.3402C33.3195 56.3316 33.3312 56.3253 33.3438 56.3215C33.3564 56.3178 33.3697 56.3168 33.3827 56.3186C33.3957 56.3204 33.4082 56.325 33.4193 56.332C33.4304 56.339 33.4398 56.3483 33.4469 56.3593C33.7691 56.7711 34.187 57.0997 34.665 57.3173C35.1431 57.5348 35.6671 57.6348 36.1926 57.6087C36.5128 57.5729 36.8294 57.5107 37.1391 57.4227C37.38 57.3631 37.6208 57.3011 37.8617 57.2629C38.1606 57.1999 38.4701 57.2044 38.767 57.2762C39.0639 57.3481 39.3406 57.4853 39.5765 57.6778C39.7243 57.4843 39.9226 57.3344 40.1501 57.244C40.3775 57.1537 40.6255 57.1265 40.8674 57.1652C41.191 57.2141 41.5073 57.3022 41.8091 57.4275C41.9536 57.4799 42.103 57.5347 42.2475 57.58C43.7648 58.0426 45.2195 57.5324 46.1733 57.0245C46.1854 57.0187 46.1985 57.0154 46.212 57.0149C46.2254 57.0145 46.2388 57.0168 46.2513 57.0217C46.2637 57.0266 46.275 57.0341 46.2844 57.0436C46.2938 57.0531 46.3011 57.0645 46.3058 57.077C46.3188 57.1044 46.323 57.1351 46.3178 57.1649C46.3126 57.1948 46.2984 57.2223 46.2769 57.2439C45.1091 58.2738 43.6509 58.9253 42.0981 59.1108C41.4988 59.1924 40.8944 59.2322 40.2894 59.23ZM33.8588 57.1032C34.2228 57.6041 34.7115 58.0033 35.2774 58.262C36.0492 58.581 36.8701 58.768 37.7051 58.8151C39.102 58.9629 40.5953 59.0702 42.0885 58.858C43.2552 58.7082 44.373 58.3008 45.3592 57.6659C44.3567 58.0629 43.2492 58.1182 42.2114 57.8232C42.0596 57.7779 41.9103 57.7231 41.7634 57.6683C41.4743 57.549 41.1719 57.4641 40.8626 57.4155C40.6392 57.3799 40.4101 57.4088 40.2029 57.4989C39.9957 57.589 39.8191 57.7364 39.6945 57.9234C39.6873 57.9366 39.6774 57.9481 39.6653 57.9571C39.6533 57.9661 39.6394 57.9725 39.6246 57.9758C39.6104 57.9778 39.596 57.9767 39.5822 57.9726C39.5685 57.9685 39.5559 57.9614 39.5452 57.952C39.3273 57.7534 39.0642 57.6098 38.7782 57.5334C38.4922 57.4571 38.1919 57.4501 37.9026 57.5133C37.6618 57.5514 37.4209 57.611 37.1801 57.6706C36.8646 57.7591 36.5424 57.8221 36.2167 57.859C35.3626 57.9101 34.5205 57.6402 33.8588 57.1032Z" fill="#0D0D0D"/>
<path d="M54.5029 47.6684C54.369 47.6689 54.2402 47.6176 54.144 47.5253C54.1217 47.5016 54.1078 47.4713 54.1044 47.4391C54.1009 47.4069 54.108 47.3744 54.1247 47.3465C54.1318 47.3341 54.1416 47.3235 54.1534 47.3155C54.1652 47.3075 54.1787 47.3022 54.1929 47.3001C54.2071 47.2981 54.2215 47.2992 54.2352 47.3036C54.2489 47.3079 54.2613 47.3152 54.2717 47.3251C54.3388 47.3818 54.4242 47.413 54.5125 47.413C54.6008 47.413 54.6862 47.3818 54.7534 47.3251C54.9176 47.184 55.0294 46.9927 55.0713 46.7814C55.2037 46.2617 55.0978 45.6871 55.0038 45.1792C54.9965 45.1489 55.0005 45.1169 55.0151 45.0893C55.0297 45.0617 55.0539 45.0403 55.0833 45.029C55.1387 45.0123 55.1941 45.0552 55.2061 45.1244C55.3025 45.6346 55.4205 46.2712 55.2712 46.8554C55.2164 47.1232 55.0721 47.3651 54.8617 47.542C54.7599 47.6229 54.6334 47.6674 54.5029 47.6684Z" fill="#0D0D0D"/>
<path d="M54.9352 49.3779C54.8804 49.3774 54.8266 49.3645 54.7777 49.3401C54.7288 49.3157 54.6863 49.2805 54.6534 49.2372C54.6414 49.2218 54.6327 49.2041 54.6277 49.1853C54.6227 49.1664 54.6216 49.1468 54.6245 49.1275C54.626 49.1089 54.6318 49.0908 54.6414 49.0747C54.651 49.0586 54.6641 49.0449 54.6799 49.0345L54.7305 49.1371L54.7883 49.0655C54.8056 49.0844 54.8265 49.0997 54.8498 49.1106C54.8732 49.1214 54.8985 49.1276 54.9242 49.1287C54.95 49.1298 54.9757 49.1258 54.9999 49.117C55.0241 49.1082 55.0463 49.0948 55.0652 49.0775C55.1675 48.978 55.2436 48.8552 55.2868 48.7198C55.8239 47.4156 55.8697 45.8587 55.9106 44.4925C55.9251 44.2995 55.9138 44.1055 55.8769 43.9155C55.8641 43.8401 55.834 43.7687 55.7889 43.7066C55.7438 43.6446 55.6849 43.5937 55.6167 43.5578C55.5736 43.5469 55.5283 43.548 55.4858 43.5611C55.4433 43.5741 55.4052 43.5986 55.3759 43.6317C55.3393 43.6679 55.3106 43.7111 55.2916 43.7587C55.2725 43.8062 55.2635 43.8572 55.2651 43.9083C55.2694 43.9392 55.2615 43.9705 55.2431 43.9958C55.2248 44.0211 55.1973 44.0384 55.1664 44.0442C55.1359 44.0424 55.1074 44.0289 55.0867 44.0067C55.0661 43.9845 55.0549 43.9552 55.0556 43.925C55.0515 43.8346 55.0662 43.7443 55.099 43.6598C55.1317 43.5753 55.1817 43.4984 55.2459 43.4338C55.2987 43.3746 55.3677 43.3316 55.4446 43.31C55.5214 43.2885 55.6029 43.2892 55.6794 43.3122C55.7843 43.3616 55.8756 43.4353 55.9456 43.527C56.0156 43.6187 56.0623 43.7258 56.0816 43.8392C56.1255 44.0573 56.1401 44.2801 56.1249 44.502C56.084 45.8968 56.0358 47.48 55.4771 48.8343C55.4198 49.009 55.3187 49.1665 55.1832 49.292C55.1121 49.3464 55.025 49.3765 54.9352 49.3779Z" fill="#0D0D0D"/>
<path d="M25.3352 48.8317C25.3212 48.8316 25.3074 48.8284 25.2948 48.8222C25.2823 48.816 25.2714 48.807 25.2629 48.796C25.243 48.7699 25.2322 48.7381 25.2322 48.7054C25.2322 48.6727 25.243 48.6409 25.2629 48.6148C25.4115 48.3939 25.47 48.1256 25.4267 47.8637C25.3908 47.6132 25.3287 47.3671 25.2412 47.1294L25.2051 47.0197C24.6953 45.423 24.4991 43.7444 24.6271 42.0747C24.6264 42.0597 24.6289 42.0447 24.6343 42.0307C24.6397 42.0166 24.648 42.0039 24.6586 41.9931C24.6692 41.9824 24.6819 41.974 24.696 41.9683C24.71 41.9626 24.7251 41.9599 24.7403 41.9602C24.7705 41.9676 24.7969 41.9859 24.8142 42.0114C24.8316 42.037 24.8387 42.068 24.8342 42.0985C24.7108 43.7289 24.9029 45.3676 25.4002 46.9267L25.4363 47.0364C25.5303 47.2942 25.5965 47.5611 25.6338 47.8327C25.687 48.167 25.6077 48.5088 25.4123 48.7865C25.4041 48.7996 25.3928 48.8106 25.3794 48.8185C25.3659 48.8264 25.3508 48.8309 25.3352 48.8317Z" fill="#0D0D0D"/>
<path d="M26.3906 47.6353C26.3704 47.6359 26.3507 47.6291 26.3352 47.6162C25.9643 47.3268 25.6981 46.926 25.5766 46.4742C25.438 45.9942 25.438 45.4854 25.5766 45.0054C25.5792 44.991 25.5849 44.9773 25.5935 44.9653C25.602 44.9533 25.6131 44.9433 25.626 44.936C25.6388 44.9288 25.6532 44.9244 25.6679 44.9232C25.6827 44.922 25.6976 44.924 25.7115 44.9291C25.739 44.945 25.7602 44.9698 25.7716 44.9993C25.783 45.0288 25.7839 45.0612 25.774 45.0913C25.6536 45.5162 25.6536 45.9658 25.774 46.3907C25.8844 46.7889 26.1197 47.1421 26.446 47.3993C26.471 47.42 26.4881 47.4485 26.4947 47.4801C26.5013 47.5117 26.4968 47.5445 26.4821 47.5733C26.4746 47.5914 26.462 47.6068 26.4457 47.6178C26.4295 47.6288 26.4103 47.6349 26.3906 47.6353Z" fill="#0D0D0D"/>
<path d="M26.1332 44.9909C26.114 44.9898 26.0955 44.9834 26.0798 44.9725C26.0641 44.9615 26.0517 44.9464 26.0441 44.9289C25.6636 44.1683 25.5432 43.2766 25.4276 42.4135C25.3866 42.1155 25.3457 41.8055 25.2927 41.5099C25.1217 40.5323 24.6906 39.2353 23.6068 38.5915C23.5885 38.58 23.5734 38.5641 23.5629 38.5454C23.5524 38.5267 23.5468 38.5056 23.5466 38.4842C23.3057 33.9803 23.4839 30.3776 24.1077 27.1278C24.8832 23.0912 26.3958 19.6436 28.4767 17.1591C30.5526 14.7394 33.2936 12.9685 36.3668 12.0615C40.2204 10.8813 44.0017 10.991 47.3302 12.3762C51.0127 13.9093 54.0257 17.0351 55.5936 20.9597C56.7449 23.8351 57.1061 27.0515 57.306 29.8197C57.5469 32.9646 57.583 36.5768 56.2005 39.4999C56.0633 39.7884 55.9164 40.0721 55.7598 40.3749C55.2396 41.374 54.7025 42.4064 54.6254 43.5699C54.6254 43.6319 54.6254 43.6963 54.6254 43.7606C54.6264 43.7756 54.6243 43.7905 54.6194 43.8046C54.6144 43.8187 54.6067 43.8317 54.5966 43.8428C54.5865 43.854 54.5742 43.8629 54.5606 43.8693C54.5469 43.8757 54.5321 43.8792 54.517 43.8799C54.487 43.8751 54.4599 43.8591 54.4415 43.8351C54.4231 43.8111 54.4148 43.781 54.4183 43.7511C54.4183 43.6819 54.4183 43.6152 54.4183 43.5508C54.5339 40.9281 54.6423 37.9716 53.9173 35.3202C53.7198 34.605 53.4549 33.8897 53.1948 33.1911C52.978 32.5998 52.7516 31.9989 52.5662 31.3719C52.1375 29.9413 52.0146 28.6609 52.2025 27.557C51.598 28.3128 51.0705 29.0567 50.5599 29.7816C50.5526 29.7929 50.5428 29.8026 50.5313 29.8099C50.5198 29.8172 50.5069 29.8219 50.4933 29.8237C50.4798 29.8255 50.466 29.8244 50.453 29.8204C50.44 29.8164 50.428 29.8097 50.4178 29.8006C50.3962 29.7786 50.382 29.7505 50.3773 29.7202C50.3725 29.6898 50.3774 29.6588 50.3913 29.6313C50.8806 28.6426 51.136 27.5565 51.1379 26.4555C50.993 27.4415 50.606 28.3772 50.0108 29.1807C50.0036 29.1916 49.9939 29.2009 49.9827 29.2077C49.9714 29.2145 49.9587 29.2187 49.9456 29.2201C49.9324 29.2215 49.9192 29.2199 49.9067 29.2156C49.8942 29.2113 49.8829 29.2042 49.8735 29.195C49.8519 29.174 49.8375 29.1469 49.8323 29.1174C49.8271 29.0878 49.8314 29.0575 49.8446 29.0305C50.2402 28.1838 50.4275 27.2565 50.3913 26.3243L48.9462 29.6409C48.9424 29.653 48.9362 29.6643 48.9279 29.674C48.9196 29.6837 48.9095 29.6917 48.898 29.6975C48.8866 29.7033 48.8741 29.7067 48.8612 29.7076C48.8484 29.7086 48.8356 29.7069 48.8234 29.7029C48.7982 29.6909 48.7776 29.6712 48.7646 29.6468C48.7516 29.6223 48.7468 29.5943 48.7511 29.567L49.0474 26.6295L47.7685 28.5226C47.756 28.5431 47.736 28.558 47.7126 28.5642C47.6893 28.5704 47.6645 28.5675 47.6433 28.556C47.6208 28.5418 47.6031 28.5213 47.5923 28.4971C47.5816 28.4729 47.5784 28.4461 47.583 28.4201L47.8239 26.6653C47.4573 27.5112 46.8223 28.2159 46.0151 28.6729C45.9971 28.6811 45.9769 28.6834 45.9574 28.6796C45.9379 28.6757 45.9202 28.6659 45.9068 28.6514C45.891 28.6347 45.8797 28.6145 45.8739 28.5924C45.868 28.5704 45.8677 28.5472 45.873 28.525L46.2126 26.744L45.6057 28.0625C45.5984 28.0806 45.5862 28.0963 45.5705 28.1081C45.5548 28.1199 45.5362 28.1272 45.5166 28.1292C45.4971 28.1294 45.478 28.1238 45.4617 28.1131C45.4454 28.1025 45.4327 28.0874 45.4251 28.0696C44.9583 27.1492 44.7662 26.1163 44.8711 25.0917C44.4698 25.9457 44.3405 26.9003 44.5002 27.8288C44.5061 27.8574 44.5028 27.887 44.4907 27.9135C44.4786 27.9401 44.4583 27.9622 44.4328 27.9766C44.4205 27.9812 44.4073 27.9832 44.3942 27.9827C44.3811 27.9821 44.3682 27.979 44.3563 27.9734C44.3444 27.9679 44.3338 27.96 44.325 27.9503C44.3162 27.9407 44.3094 27.9293 44.3051 27.917C43.9159 27.0321 43.6821 26.0879 43.6139 25.125L43.1322 27.4783C43.1289 27.5037 43.1167 27.5271 43.0978 27.5445C43.0789 27.5619 43.0544 27.5722 43.0286 27.5737C43.003 27.571 42.9791 27.5595 42.961 27.5412C42.943 27.523 42.932 27.499 42.9299 27.4736L42.4024 24.4765L42.0869 26.5556C42.0853 26.5798 42.076 26.603 42.0605 26.6218C42.045 26.6406 42.0239 26.6541 42.0002 26.6605C41.9775 26.6633 41.9545 26.6582 41.9351 26.646C41.9158 26.6338 41.9013 26.6153 41.8942 26.5938L41.2271 25.0726C41.2387 26.0072 41.0292 26.9315 40.6154 27.7716C40.6062 27.7937 40.589 27.8116 40.5671 27.8218C40.5453 27.8319 40.5204 27.8336 40.4974 27.8264C40.4736 27.8158 40.4537 27.7982 40.4404 27.776C40.427 27.7539 40.4208 27.7282 40.4227 27.7024C40.4442 26.5936 40.0611 25.5143 39.3437 24.6625L38.8331 27.1159C38.8283 27.1409 38.8157 27.1637 38.7972 27.1813C38.7786 27.1988 38.7549 27.2101 38.7295 27.2137C38.7038 27.21 38.6801 27.198 38.6622 27.1794C38.6443 27.1608 38.6332 27.1367 38.6308 27.1111L38.2599 24.9653C37.5444 25.8569 37.1382 26.953 37.1014 28.0911C37.1022 28.1195 37.0923 28.1472 37.0736 28.1688C37.0549 28.1904 37.0288 28.2044 37.0002 28.2079C36.9721 28.2061 36.9458 28.1938 36.9265 28.1734C36.9073 28.153 36.8966 28.1261 36.8967 28.0982L36.7184 26.4626C36.5637 27.1682 36.2324 27.8241 35.7551 28.3701C35.7404 28.3876 35.7197 28.399 35.6969 28.4021C35.6742 28.4052 35.6511 28.3997 35.6322 28.3867C35.6125 28.3704 35.5975 28.3493 35.5886 28.3255C35.5798 28.3016 35.5774 28.2759 35.5817 28.2508C35.7184 27.4618 35.7184 26.6556 35.5817 25.8666L35.1578 28.2508C35.1551 28.2732 35.1459 28.2943 35.1314 28.3117C35.1169 28.329 35.0976 28.3419 35.0759 28.3486C35.0549 28.3524 35.0332 28.3493 35.0141 28.3398C34.995 28.3304 34.9795 28.3151 34.9699 28.2961C34.4687 27.3786 34.1306 26.3825 33.9704 25.3515C33.5431 26.4027 33.4588 27.56 33.7295 28.6609C33.7368 28.6878 33.7359 28.7161 33.7269 28.7424C33.7179 28.7687 33.7012 28.7918 33.679 28.8088C33.6685 28.8156 33.6567 28.8202 33.6444 28.8224C33.632 28.8245 33.6193 28.8241 33.6071 28.8212C33.5949 28.8183 33.5835 28.813 33.5734 28.8055C33.5634 28.798 33.5551 28.7886 33.5489 28.7778C33.1233 28.1203 32.8328 27.3863 32.6939 26.6176L32.4531 27.9266C32.451 27.9514 32.4402 27.9747 32.4226 27.9926C32.4051 28.0104 32.3817 28.0217 32.3567 28.0243C32.3311 28.0251 32.3061 28.0161 32.2869 27.9993C32.2676 27.9825 32.2556 27.959 32.2531 27.9337L31.8654 26.3529C31.4923 27.2994 31.352 28.3202 31.456 29.3309C31.459 29.357 31.4545 29.3834 31.443 29.407C31.4315 29.4307 31.4134 29.4506 31.3909 29.4644C31.3691 29.4746 31.3442 29.476 31.3213 29.4685C31.2985 29.4609 31.2794 29.445 31.2681 29.4239C30.8776 28.7954 30.6309 28.0898 30.5455 27.3567C30.4364 27.9983 30.4234 28.6522 30.507 29.2975C30.5128 29.3262 30.5086 29.3561 30.4951 29.3821C30.4815 29.4081 30.4594 29.4287 30.4324 29.4406C30.4194 29.4441 30.4058 29.445 30.3925 29.4432C30.3791 29.4413 30.3663 29.4368 30.3548 29.4299C30.3433 29.423 30.3334 29.4138 30.3256 29.4029C30.3178 29.3921 30.3123 29.3797 30.3095 29.3667L29.7941 27.8813L29.6496 29.9723C29.6506 30 29.6413 30.0271 29.6236 30.0486C29.6059 30.0701 29.5809 30.0845 29.5533 30.0891C29.5263 30.0887 29.5004 30.0785 29.4804 30.0605C29.4604 30.0425 29.4478 30.0179 29.4449 29.9914L29.1559 28.5155V29.598C29.1573 29.6249 29.1501 29.6515 29.1355 29.6742C29.1208 29.6969 29.0993 29.7144 29.074 29.7243C29.0489 29.7289 29.0229 29.7241 29.0011 29.7109C28.9793 29.6977 28.9633 29.677 28.956 29.6528L28.4405 28.3224C28.608 29.4199 28.5316 30.5403 28.2165 31.6055C26.858 35.8991 26.1899 40.3774 26.2368 44.8765C26.2386 44.9022 26.2325 44.9279 26.2191 44.9501C26.2058 44.9722 26.1859 44.9898 26.1621 45.0005L26.1332 44.9909ZM23.744 38.396C24.8712 39.0946 25.3192 40.4417 25.4974 41.455C25.5504 41.7578 25.5913 42.0702 25.6323 42.373C25.6997 43.0358 25.832 43.6906 26.0273 44.3281C26.0341 39.9762 26.7073 35.6504 28.0239 31.4982C28.4285 30.2346 28.4092 28.6371 27.9709 27.0992C27.9623 27.0697 27.9635 27.0383 27.9743 27.0095C27.9852 26.9807 28.0051 26.9562 28.0311 26.9395C28.044 26.9339 28.0579 26.9311 28.072 26.9314C28.086 26.9316 28.0999 26.935 28.1125 26.9411C28.1251 26.9472 28.1362 26.956 28.145 26.9669C28.1539 26.9777 28.1602 26.9903 28.1636 27.0039L28.9415 29.0019L28.9222 27.3567C28.9201 27.3281 28.928 27.2996 28.9447 27.2761C28.9614 27.2526 28.9858 27.2356 29.0138 27.228C29.0421 27.226 29.0702 27.2351 29.0918 27.2534C29.1134 27.2717 29.1269 27.2977 29.1294 27.3257L29.4858 29.145L29.6111 27.3305C29.6107 27.3046 29.6189 27.2793 29.6346 27.2586C29.6503 27.2379 29.6725 27.2229 29.6978 27.2161C29.7228 27.213 29.7481 27.219 29.7689 27.233C29.7897 27.2471 29.8047 27.2682 29.811 27.2924L30.2324 28.5131C30.2243 27.8454 30.316 27.1801 30.5046 26.5389C30.5093 26.5125 30.5243 26.4889 30.5464 26.4733C30.5685 26.4577 30.5958 26.4513 30.6226 26.4555C30.6492 26.4644 30.672 26.482 30.6873 26.5054C30.7026 26.5287 30.7095 26.5565 30.7069 26.5842C30.6833 27.371 30.8484 28.1522 31.1886 28.8636C31.1553 27.8577 31.3555 26.8577 31.7739 25.9405C31.7812 25.9202 31.7951 25.9029 31.8134 25.8913C31.8317 25.8796 31.8534 25.8743 31.875 25.8761C31.8974 25.8806 31.9178 25.8916 31.9337 25.9078C31.9496 25.9239 31.9602 25.9445 31.9641 25.9667L32.3109 27.383L32.5831 25.9119C32.586 25.8851 32.5985 25.8602 32.6184 25.8418C32.6383 25.8234 32.6643 25.8127 32.6915 25.8117C32.7187 25.8166 32.7434 25.8307 32.7614 25.8516C32.7794 25.8724 32.7896 25.8988 32.7903 25.9262C32.849 26.6783 33.0526 27.4123 33.39 28.0887C33.2497 26.9959 33.4346 25.8863 33.9222 24.8961C33.9315 24.8757 33.9475 24.859 33.9676 24.8486C33.9877 24.8382 34.0107 24.8348 34.033 24.8389C34.0558 24.8469 34.0757 24.8613 34.0903 24.8803C34.1049 24.8994 34.1134 24.9223 34.1149 24.9462C34.2363 25.9682 34.5345 26.9618 34.9964 27.8837L35.4588 25.2848C35.4613 25.2598 35.4721 25.2364 35.4895 25.2183C35.507 25.2001 35.5301 25.1883 35.5552 25.1846C35.5806 25.1843 35.6052 25.1931 35.6247 25.2092C35.6442 25.2254 35.6571 25.248 35.6611 25.2729C35.8778 26.1296 35.9381 27.0178 35.8394 27.8956C36.3154 27.2266 36.5909 26.4381 36.6342 25.621C36.6333 25.5923 36.6431 25.5642 36.6617 25.5423C36.6804 25.5203 36.7066 25.5058 36.7353 25.5018C36.764 25.5036 36.791 25.5162 36.8107 25.537C36.8304 25.5578 36.8413 25.5853 36.8413 25.6138L37.0099 27.1851C37.1725 26.2316 37.6071 25.3439 38.2623 24.6267C38.2743 24.6125 38.2906 24.6024 38.3089 24.5981C38.3271 24.5938 38.3462 24.5955 38.3634 24.6029C38.3818 24.6113 38.3976 24.6244 38.4094 24.6406C38.4212 24.6569 38.4286 24.6759 38.4309 24.6959L38.7464 26.5294L39.1895 24.4074C39.1922 24.3879 39.1997 24.3693 39.2115 24.3535C39.2233 24.3377 39.2389 24.325 39.257 24.3168C39.2739 24.3099 39.2925 24.3086 39.3103 24.3129C39.328 24.3171 39.3439 24.3268 39.3557 24.3406C40.1026 25.1393 40.5491 26.1681 40.6202 27.2542C40.9647 26.3822 41.0919 25.4409 40.9911 24.5099C40.9866 24.4828 40.9909 24.455 41.0035 24.4306C41.016 24.4062 41.0362 24.3863 41.0609 24.374C41.0855 24.3656 41.1125 24.3671 41.1359 24.3783C41.1594 24.3895 41.1774 24.4093 41.1862 24.4336L41.9424 26.1598L42.2965 23.8089C42.2986 23.7828 42.3098 23.7583 42.3283 23.7395C42.3468 23.7208 42.3713 23.7091 42.3976 23.7064C42.4237 23.7086 42.4482 23.7198 42.4667 23.7381C42.4852 23.7565 42.4966 23.7807 42.4988 23.8065L43.0407 26.8846L43.5946 24.1284C43.5958 24.1146 43.5998 24.1012 43.6063 24.0889C43.6128 24.0766 43.6216 24.0657 43.6324 24.0569C43.6431 24.048 43.6555 24.0413 43.6689 24.0372C43.6823 24.0332 43.6963 24.0317 43.7102 24.033C43.7382 24.0412 43.7624 24.0588 43.7786 24.0827C43.7949 24.1067 43.8022 24.1355 43.7993 24.1642C43.7586 25.1682 43.9006 26.1712 44.2184 27.1255C44.1992 26.1818 44.4642 25.2539 44.9795 24.4598C44.9857 24.4493 44.9939 24.4402 45.0038 24.433C45.0136 24.4257 45.0248 24.4205 45.0367 24.4176C45.0486 24.4147 45.061 24.4142 45.0731 24.4161C45.0852 24.4181 45.0967 24.4224 45.1071 24.4288C45.1293 24.4453 45.1462 24.4679 45.1556 24.4937C45.1651 24.5195 45.1666 24.5475 45.1601 24.5743C44.9309 25.6444 45.0506 26.7589 45.5021 27.7573L46.3812 25.8499C46.3857 25.8375 46.3927 25.8262 46.4018 25.8166C46.4109 25.8071 46.4219 25.7995 46.4341 25.7943C46.4464 25.7892 46.4595 25.7866 46.4728 25.7867C46.4861 25.7868 46.4992 25.7896 46.5113 25.795C46.5363 25.8092 46.5559 25.8311 46.5672 25.8573C46.5785 25.8836 46.5809 25.9128 46.5739 25.9405L46.1163 28.3414C47.0836 27.6885 47.7503 26.6829 47.9708 25.5447C47.9726 25.5305 47.9772 25.5169 47.9844 25.5045C47.9915 25.4922 48.0011 25.4813 48.0125 25.4727C48.024 25.464 48.037 25.4577 48.0509 25.4541C48.0649 25.4505 48.0794 25.4497 48.0936 25.4517C48.122 25.4628 48.1455 25.4835 48.1601 25.5101C48.1746 25.5367 48.1792 25.5675 48.1731 25.5971L47.8504 28.0076L49.1124 26.1431C49.1245 26.1229 49.144 26.108 49.1667 26.1013C49.1895 26.0947 49.214 26.0968 49.2352 26.1074C49.2573 26.1215 49.2749 26.1416 49.286 26.1652C49.2971 26.1888 49.3012 26.215 49.2979 26.2409L49.0329 28.9208L50.3721 25.8356C50.3793 25.8131 50.3945 25.7939 50.4148 25.7816C50.4352 25.7694 50.4594 25.7648 50.4828 25.7688C50.5066 25.7762 50.5275 25.7907 50.5426 25.8104C50.5577 25.83 50.5663 25.8538 50.5671 25.8785C50.6484 26.6324 50.5929 27.3946 50.4033 28.1292C50.8744 27.1356 51.0777 26.0383 50.9934 24.9438C50.9891 24.9144 50.9955 24.8843 51.0113 24.859C51.0272 24.8337 51.0515 24.8148 51.0801 24.8055C51.0943 24.8035 51.1087 24.8045 51.1225 24.8083C51.1363 24.8121 51.1492 24.8187 51.1603 24.8276C51.1713 24.8366 51.1805 24.8477 51.187 24.8603C51.1935 24.873 51.1973 24.8868 51.1982 24.9009C51.4591 26.2135 51.3762 27.5703 50.9573 28.8421C51.3812 28.2532 51.8292 27.65 52.3301 27.0468C52.337 27.037 52.3459 27.0287 52.3562 27.0224C52.3664 27.0161 52.3779 27.0119 52.3898 27.0102C52.4018 27.0084 52.4139 27.009 52.4256 27.012C52.4373 27.015 52.4482 27.0204 52.4578 27.0277C52.4787 27.0456 52.494 27.0689 52.5021 27.0951C52.5102 27.1212 52.5107 27.1491 52.5036 27.1755C52.2001 28.3128 52.2868 29.6933 52.7637 31.2813C52.9467 31.8916 53.1707 32.4973 53.385 33.0838C53.6427 33.78 53.9077 34.4977 54.1076 35.2296C54.7241 37.4852 54.7482 39.9386 54.6736 42.2323C54.9177 41.5402 55.2198 40.8694 55.5768 40.2271C55.7333 39.9291 55.8802 39.6477 56.0151 39.364C57.3686 36.5029 57.3205 32.9384 57.0941 29.8269C56.8942 27.0825 56.5377 23.8947 55.4082 21.055C53.8643 17.202 50.8971 14.1239 47.2651 12.6123C43.9728 11.2413 40.2252 11.1364 36.427 12.3047C33.2647 13.2751 30.5648 15.0133 28.6236 17.3308C26.5692 19.7795 25.0783 23.1842 24.31 27.1755C23.6886 30.3872 23.5032 33.9493 23.744 38.396Z" fill="#0D0D0D"/>
<path d="M33.2701 43.1981C33.5854 43.1981 33.841 42.8864 33.841 42.5019C33.841 42.1174 33.5854 41.8057 33.2701 41.8057C32.9549 41.8057 32.6993 42.1174 32.6993 42.5019C32.6993 42.8864 32.9549 43.1981 33.2701 43.1981Z" fill="#302113"/>
<path d="M33.0478 42.1726C33.1701 42.1726 33.2694 42.052 33.2694 41.9032C33.2694 41.7544 33.1701 41.6338 33.0478 41.6338C32.9254 41.6338 32.8262 41.7544 32.8262 41.9032C32.8262 42.052 32.9254 42.1726 33.0478 42.1726Z" fill="#F4F4F4"/>
<path d="M39.9632 70.4335C39.4285 70.4342 38.8957 70.3718 38.376 70.2475C36.8105 69.8684 35.245 68.8861 33.7349 67.3291C32.3909 65.9486 31.2445 64.2939 30.1222 62.6941C29.0937 61.2134 28.0316 59.6803 27.3789 57.8587C26.5215 55.4577 26.4685 52.7897 26.4155 50.2099C26.377 48.3979 26.3385 46.5214 26.0229 44.7475C26.0157 44.7169 26.0201 44.6847 26.0351 44.6571C26.0502 44.6294 26.075 44.6081 26.1049 44.5973C26.1195 44.595 26.1345 44.5957 26.1489 44.5994C26.1633 44.6032 26.1767 44.6099 26.1883 44.6191C26.1998 44.6283 26.2093 44.6398 26.2161 44.6529C26.2229 44.666 26.2268 44.6804 26.2277 44.6951C26.548 46.4928 26.5865 48.3788 26.6227 50.2028C26.6756 52.7587 26.731 55.4029 27.5716 57.7562C28.2098 59.5468 29.2575 61.0632 30.2811 62.5248C31.3866 64.1175 32.5282 65.7626 33.8553 67.1288C35.3437 68.6596 36.8731 69.6228 38.4049 69.99C40.4738 70.4931 42.8003 69.9494 44.9583 68.4616C46.6804 67.2695 48.3013 65.5266 50.0595 62.9587C50.996 61.6463 51.7759 60.2309 52.3836 58.7409C53.5638 55.6795 53.742 52.5561 53.9299 49.2467C54.031 47.4775 54.1346 45.6488 54.3947 43.7223C54.3953 43.7074 54.3989 43.6929 54.4054 43.6795C54.4118 43.6661 54.421 43.6541 54.4322 43.6443C54.4435 43.6345 54.4566 43.627 54.4709 43.6224C54.4851 43.6178 54.5002 43.6161 54.5151 43.6174C54.5453 43.6272 54.5709 43.6477 54.5868 43.675C54.6028 43.7022 54.6081 43.7343 54.6018 43.7652C54.3441 45.6726 54.2405 47.5014 54.1394 49.2657C53.9491 52.6037 53.7709 55.7439 52.5715 58.8506C51.9565 60.3588 51.1677 61.7917 50.2208 63.1209C48.4458 65.7126 46.8056 67.4793 45.0595 68.6834C43.4073 69.8374 41.6419 70.4335 39.9632 70.4335Z" fill="#0D0D0D"/>
<path d="M54.8758 52.4535C54.5329 52.4392 54.1949 52.3675 53.8763 52.2413C53.8474 52.2278 53.8242 52.2045 53.811 52.1757C53.7977 52.1469 53.7953 52.1143 53.804 52.0839C53.8057 52.0694 53.8104 52.0554 53.818 52.0429C53.8255 52.0303 53.8356 52.0195 53.8477 52.0112C53.8598 52.0028 53.8735 51.9971 53.888 51.9945C53.9025 51.9918 53.9174 51.9922 53.9317 51.9957C54.2804 52.1431 54.6586 52.2092 55.0372 52.1888C55.226 52.171 55.4073 52.1065 55.5644 52.001C55.7214 51.8956 55.849 51.7527 55.9356 51.5856C56.0776 51.2269 56.1416 50.8426 56.1234 50.4578C56.2214 47.3039 56.6492 44.1685 57.3999 41.1019V41.0661C57.521 40.6707 57.5755 40.2583 57.5613 39.8454C57.5276 39.471 57.3204 39.0561 57.0049 38.9894C56.6894 38.9226 56.4293 39.1682 56.2414 39.3804C56.233 39.3922 56.2218 39.4019 56.2088 39.4085C56.1958 39.4151 56.1814 39.4186 56.1668 39.4186C56.1521 39.4186 56.1377 39.4151 56.1248 39.4085C56.1118 39.4019 56.1005 39.3922 56.0921 39.3804C56.0724 39.3547 56.0617 39.3233 56.0617 39.291C56.0617 39.2587 56.0724 39.2273 56.0921 39.2016C56.41 38.8392 56.7352 38.6818 57.0338 38.7438C57.4529 38.832 57.7178 39.3542 57.7563 39.8239C57.7726 40.2713 57.7149 40.7183 57.5854 41.1472V41.1829C56.8396 44.2252 56.4151 47.3359 56.3185 50.465C56.3369 50.896 56.2622 51.326 56.0993 51.7263C55.9978 51.9237 55.8478 52.0927 55.663 52.2177C55.4783 52.3427 55.2647 52.4197 55.042 52.4415C54.9869 52.4485 54.9314 52.4525 54.8758 52.4535Z" fill="#0D0D0D"/>
<path d="M26.3078 52.2202C25.9798 52.2327 25.6548 52.154 25.3696 51.993C25.0844 51.8321 24.8504 51.5952 24.6941 51.3094C24.4893 50.878 24.3982 50.4023 24.4292 49.9265C24.4292 49.6166 24.475 49.309 24.5111 49.0134C24.5304 48.8608 24.5496 48.7106 24.5641 48.5604C24.7447 46.6958 24.369 44.6191 23.4417 42.3922C23.4104 42.3135 23.3767 42.2348 23.343 42.1538C23.0583 41.562 22.8658 40.931 22.7722 40.2821C22.6999 39.5668 22.9143 38.6799 23.5549 38.3341C23.568 38.3276 23.5825 38.3242 23.5971 38.324C23.6117 38.3238 23.6262 38.327 23.6395 38.3332C23.6527 38.3394 23.6643 38.3485 23.6735 38.3598C23.6826 38.3711 23.689 38.3844 23.6922 38.3985C23.7044 38.4285 23.7057 38.4616 23.6961 38.4925C23.6864 38.5233 23.6663 38.5499 23.6392 38.5678C23.0973 38.8587 22.9167 39.624 22.9793 40.2535C23.0729 40.8717 23.2588 41.4728 23.5309 42.0369C23.5622 42.1156 23.5959 42.1943 23.6272 42.2754C24.5737 44.55 24.9591 46.6744 24.7712 48.589C24.7568 48.7439 24.7375 48.8965 24.7182 49.0491C24.6821 49.34 24.646 49.6404 24.6363 49.9337C24.6097 50.3597 24.6925 50.7854 24.8772 51.1712C25.0434 51.4566 25.2944 51.6843 25.5961 51.8234C25.8978 51.9625 26.2355 52.0062 26.5631 51.9484C26.5782 51.9481 26.5932 51.9508 26.6072 51.9563C26.6212 51.9617 26.634 51.9699 26.6447 51.9804C26.6555 51.9908 26.6641 52.0033 26.6699 52.017C26.6757 52.0308 26.6787 52.0456 26.6787 52.0605C26.6839 52.0913 26.677 52.123 26.6596 52.1491C26.6422 52.1752 26.6155 52.1938 26.5848 52.2011C26.493 52.2136 26.4005 52.22 26.3078 52.2202Z" fill="#0D0D0D"/>
<path d="M43.7328 41.808C43.7083 41.8067 43.685 41.7974 43.6667 41.7813C43.6483 41.7653 43.6359 41.7436 43.6316 41.7198C43.6228 41.6895 43.6247 41.6572 43.637 41.6281C43.6492 41.5991 43.6711 41.5751 43.6991 41.56C45.3868 40.9054 47.2618 40.9054 48.9495 41.56C48.9782 41.5743 49.0009 41.5982 49.0137 41.6274C49.0264 41.6566 49.0284 41.6892 49.0194 41.7198C49.0175 41.7343 49.0126 41.7482 49.0047 41.7606C48.9969 41.773 48.9864 41.7835 48.974 41.7915C48.9616 41.7995 48.9476 41.8046 48.933 41.8067C48.9183 41.8087 48.9034 41.8075 48.8893 41.8032C47.2415 41.1664 45.412 41.1664 43.7641 41.8032L43.7328 41.808Z" fill="#0D0D0D"/>
<path d="M43.7549 45.9731C43.7299 45.9712 43.7063 45.961 43.6879 45.9441C43.6696 45.9272 43.6575 45.9046 43.6538 45.8801C43.645 45.8496 43.6475 45.8171 43.6607 45.7882C43.6739 45.7594 43.6971 45.7362 43.726 45.7227C45.4214 45.1225 47.2672 45.0807 48.9885 45.6035C49.0174 45.6165 49.0407 45.6392 49.0544 45.6675C49.068 45.6959 49.0711 45.7281 49.0632 45.7585C49.0621 45.7731 49.0579 45.7874 49.0508 45.8003C49.0437 45.8132 49.0339 45.8245 49.022 45.8333C49.0102 45.8421 48.9965 45.8483 48.982 45.8514C48.9675 45.8546 48.9525 45.8546 48.9379 45.8515C47.2522 45.3387 45.4441 45.3797 43.7838 45.9683L43.7549 45.9731Z" fill="#0D0D0D"/>
<path d="M51.7317 40.5086C51.7153 40.5086 51.6993 40.5036 51.6859 40.4943C50.3667 39.7088 48.8709 39.26 47.3331 39.1885C45.7953 39.1169 44.2636 39.4247 42.8757 40.0842C42.8555 40.0929 42.8329 40.0944 42.8118 40.0883C42.7907 40.0822 42.7724 40.0689 42.7601 40.0508C42.2877 39.4225 42.0844 38.6353 42.1941 37.8596C42.1951 37.8369 42.2023 37.8149 42.2151 37.796C42.2278 37.777 42.2456 37.762 42.2664 37.7523C43.3919 37.333 44.5921 37.1461 45.7933 37.2031C46.9944 37.2601 48.1711 37.5598 49.251 38.0838C50.4552 38.6512 51.2789 39.3784 51.8087 40.3083C51.823 40.3317 51.8305 40.3585 51.8305 40.3858C51.8305 40.4131 51.823 40.4399 51.8087 40.4633C51.8006 40.4765 51.7893 40.4875 51.7758 40.4953C51.7624 40.5032 51.7472 40.5078 51.7317 40.5086ZM46.8786 38.923C48.4503 38.9252 49.9972 39.3109 51.3824 40.046C50.8075 39.296 50.0502 38.7022 49.1811 38.3198C48.1322 37.811 46.9901 37.5178 45.8236 37.4579C44.6571 37.3981 43.4904 37.5729 42.394 37.9717C42.3157 38.6241 42.4876 39.2818 42.8757 39.8148C44.1271 39.2284 45.4942 38.9238 46.8786 38.923Z" fill="#0D0D0D"/>
<path d="M46.3208 47.6589C46.2221 47.6589 46.1234 47.6589 46.0222 47.6422C45.5798 47.5801 45.1565 47.4228 44.782 47.1814C44.4075 46.94 44.091 46.6204 43.8546 46.245C43.2964 45.3985 43.0419 44.3908 43.132 43.3839C43.2958 41.238 44.8613 39.6549 46.6219 39.8551C48.3825 40.0554 49.6807 41.9628 49.5121 44.1087C49.3579 46.1353 47.9562 47.6589 46.3208 47.6589ZM46.3208 40.0983C44.7915 40.0983 43.4813 41.5289 43.3367 43.4125C43.1826 45.4177 44.3989 47.2011 46.0439 47.3871C47.6888 47.5731 49.1532 46.0948 49.3073 44.0896C49.4615 42.0844 48.2452 40.301 46.6002 40.115C46.5068 40.1035 46.4126 40.0979 46.3184 40.0983H46.3208Z" fill="#0D0D0D"/>
<path d="M35.9838 41.0542C35.9735 41.0564 35.9628 41.0564 35.9525 41.0542C34.304 40.4163 32.4734 40.4163 30.8249 41.0542C30.8107 41.0585 30.7958 41.0597 30.7812 41.0576C30.7666 41.0556 30.7526 41.0504 30.7402 41.0425C30.7278 41.0345 30.7173 41.024 30.7094 41.0116C30.7016 40.9992 30.6966 40.9853 30.6948 40.9708C30.6857 40.9402 30.6877 40.9075 30.7005 40.8784C30.7133 40.8492 30.736 40.8253 30.7647 40.811C32.4524 40.1564 34.3274 40.1564 36.0151 40.811C36.0433 40.8257 36.0655 40.8497 36.0778 40.8789C36.0901 40.908 36.0918 40.9405 36.0825 40.9708C36.077 40.9932 36.0646 41.0133 36.0468 41.0283C36.0291 41.0433 36.007 41.0523 35.9838 41.0542Z" fill="#0D0D0D"/>
<path d="M35.9548 45.2198H35.9259C34.2656 44.6312 32.4576 44.5902 30.7718 45.103C30.7572 45.1061 30.742 45.1061 30.7274 45.1029C30.7127 45.0998 30.6989 45.0937 30.6869 45.0849C30.6748 45.0761 30.6648 45.0649 30.6574 45.052C30.65 45.0391 30.6455 45.0248 30.6442 45.01C30.6359 44.9793 30.6391 44.9467 30.6533 44.9182C30.6674 44.8897 30.6916 44.8672 30.7212 44.855C32.4425 44.3324 34.2883 44.3742 35.9837 44.9742C36.0125 44.9877 36.0355 45.0111 36.0483 45.04C36.0612 45.0689 36.063 45.1014 36.0536 45.1316C36.0498 45.1553 36.0379 45.1769 36.0199 45.1929C36.002 45.209 35.979 45.2185 35.9548 45.2198Z" fill="#0D0D0D"/>
<path d="M27.9763 39.7552C27.9604 39.7546 27.9448 39.7502 27.931 39.7423C27.9171 39.7344 27.9054 39.7233 27.8969 39.7099C27.8826 39.6865 27.8751 39.6597 27.8751 39.6324C27.8751 39.6051 27.8826 39.5783 27.8969 39.555C28.4291 38.6251 29.2649 37.8979 30.4571 37.328C31.5371 36.8047 32.7139 36.5056 33.915 36.449C35.1161 36.3924 36.3163 36.5796 37.4416 36.999C37.4629 37.0083 37.4812 37.0232 37.4944 37.0421C37.5075 37.0611 37.5151 37.0833 37.5163 37.1063C37.6248 37.8822 37.4206 38.6693 36.9479 39.2974C36.936 39.3153 36.9182 39.3285 36.8975 39.3346C36.8767 39.3407 36.8545 39.3394 36.8347 39.3308C35.4468 38.6713 33.9151 38.3635 32.3773 38.4351C30.8395 38.5067 29.3438 38.9554 28.0245 39.7409C28.0103 39.7504 27.9935 39.7554 27.9763 39.7552ZM34.3395 36.6914C33.0183 36.6946 31.7148 36.9938 30.5269 37.5664C29.6585 37.9488 28.902 38.5427 28.328 39.2927C29.6293 38.5962 31.0776 38.2118 32.5563 38.1704C34.035 38.129 35.5029 38.4318 36.8419 39.0543C37.23 38.5213 37.4019 37.8636 37.3236 37.2112C36.3675 36.8659 35.3573 36.6899 34.3395 36.6914Z" fill="#0D0D0D"/>
<path d="M33.3754 46.9052C31.74 46.9052 30.3383 45.3816 30.1841 43.3597C30.0959 42.3529 30.3502 41.3458 30.9067 40.4986C31.1441 40.1243 31.4609 39.8056 31.8353 39.5648C32.2096 39.3239 32.6324 39.1666 33.0743 39.1038C34.8349 38.9035 36.4004 40.4866 36.5642 42.6325C36.7279 44.7784 35.4274 46.6858 33.674 46.8837C33.575 46.8968 33.4752 46.904 33.3754 46.9052ZM33.3754 39.3446C33.282 39.3442 33.1886 39.3498 33.096 39.3613C32.6816 39.4179 32.285 39.5642 31.9341 39.7895C31.5832 40.0149 31.2867 40.314 31.0656 40.6655C30.5443 41.4555 30.306 42.3958 30.3888 43.3359C30.5406 45.3411 32.0049 46.8193 33.6499 46.6333C35.2949 46.4474 36.5112 44.6639 36.357 42.6587C36.227 40.768 34.9192 39.3446 33.3898 39.3446H33.3754Z" fill="#0D0D0D"/>
<path d="M39.5976 55.0359C39.5085 55.0364 39.4199 55.0228 39.3351 54.9954C39.1169 54.9054 38.9201 54.7714 38.7571 54.6019C38.6147 54.4513 38.4425 54.3312 38.2513 54.2491C38.0496 54.2003 37.8389 54.2003 37.6371 54.2491C37.524 54.2687 37.4098 54.2823 37.2952 54.2896C36.9832 54.2871 36.6777 54.2008 36.4114 54.04C36.145 53.8792 35.9277 53.6499 35.7826 53.3764C35.6142 53.0659 35.51 52.7253 35.476 52.3745C35.4421 52.0236 35.4792 51.6696 35.5851 51.3331C35.6749 51.0246 35.8404 50.743 36.0669 50.5133C36.2935 50.2837 36.574 50.1131 36.8833 50.017C36.8982 50.0146 36.9134 50.0154 36.9279 50.0193C36.9424 50.0232 36.956 50.0301 36.9676 50.0396C36.9792 50.049 36.9887 50.0608 36.9953 50.0742C37.0019 50.0876 37.0056 50.1022 37.0061 50.1171C37.0134 50.1477 37.009 50.1799 36.9939 50.2076C36.9789 50.2352 36.9541 50.2565 36.9242 50.2673C36.6512 50.3518 36.4037 50.5021 36.204 50.7048C36.0043 50.9075 35.8587 51.1562 35.7802 51.4285C35.6867 51.7252 35.6538 52.0375 35.6836 52.347C35.7134 52.6565 35.8052 52.957 35.9536 53.231C36.0819 53.472 36.2736 53.6742 36.5085 53.8161C36.7434 53.958 37.0128 54.0343 37.2879 54.0369C37.3961 54.0288 37.5038 54.0153 37.6106 53.9963C37.8391 53.9391 38.0783 53.9391 38.3067 53.9963C38.5233 54.0879 38.7191 54.2217 38.8823 54.3898C39.0278 54.5406 39.2033 54.66 39.3977 54.7402C39.7036 54.8404 40.0119 54.6949 40.3395 54.54C40.5388 54.4345 40.7508 54.3544 40.9705 54.3015C41.2331 54.2648 41.5 54.2712 41.7605 54.3206C42.0643 54.3921 42.3824 54.3772 42.6781 54.2777C43.0345 54.1227 43.3259 53.7126 43.5427 53.0665C43.7133 52.5918 43.791 52.0893 43.7715 51.5858C43.7595 51.107 43.5789 50.6474 43.2609 50.2864C43.1269 50.1356 42.9458 50.0334 42.7465 49.9958C42.5472 49.9583 42.3409 49.9875 42.1602 50.079C42.1474 50.086 42.1331 50.09 42.1184 50.0907C42.1038 50.0914 42.0892 50.0887 42.0757 50.083C42.0622 50.0772 42.0502 50.0685 42.0407 50.0575C42.0311 50.0465 42.0243 50.0334 42.0206 50.0194C42.0088 49.9898 42.0072 49.9573 42.0159 49.9267C42.0246 49.8961 42.0431 49.8692 42.0687 49.8501C42.2847 49.7359 42.5333 49.6974 42.7742 49.7407C43.0151 49.784 43.2341 49.9065 43.3958 50.0885C43.7578 50.4973 43.964 51.0185 43.9787 51.562C44.0027 52.1048 43.9209 52.6472 43.7378 53.1595C43.497 53.8747 43.167 54.3325 42.7527 54.5161C42.4266 54.6282 42.0753 54.6472 41.7388 54.571C41.5006 54.5258 41.2567 54.5186 41.0162 54.5495C40.8111 54.6003 40.613 54.6755 40.4262 54.7736C40.1735 54.9218 39.8903 55.0115 39.5976 55.0359Z" fill="#0D0D0D"/>
<path d="M39.5553 54.8476C39.0471 54.8476 38.5124 54.5114 37.9609 53.8462C37.9296 53.8104 37.8983 53.7723 37.8694 53.7341C37.7232 53.5379 37.5524 53.3608 37.3612 53.2072C37.2687 53.1251 37.1539 53.0717 37.0311 53.0535C36.9083 53.0353 36.7827 53.0531 36.67 53.1047C36.6094 53.1416 36.5569 53.1902 36.5155 53.2475C36.4742 53.3049 36.4448 53.3698 36.4291 53.4385C36.3995 53.5435 36.4071 53.6554 36.4508 53.7556C36.4657 53.7841 36.4706 53.8168 36.4644 53.8484C36.4583 53.88 36.4416 53.9086 36.4171 53.9296C36.4053 53.9383 36.3917 53.9442 36.3772 53.9467C36.3628 53.9492 36.3479 53.9483 36.3339 53.9442C36.3199 53.94 36.307 53.9326 36.2964 53.9227C36.2857 53.9127 36.2776 53.9004 36.2726 53.8867C36.1958 53.7093 36.1841 53.5109 36.2396 53.3258C36.295 53.1408 36.414 52.9807 36.576 52.8734C36.7187 52.8053 36.8782 52.7799 37.0352 52.8002C37.1922 52.8205 37.3398 52.8857 37.4599 52.9878C37.6673 53.1523 37.852 53.3431 38.0091 53.5553C38.0404 53.5911 38.0693 53.6292 38.1006 53.6674C38.6545 54.3326 39.1796 54.6425 39.6589 54.5853C40.1381 54.5281 40.4609 54.1991 40.839 53.8414C41.0794 53.5989 41.3478 53.3852 41.6386 53.2048C41.8988 53.057 42.2528 52.9998 42.4599 53.2763C42.5283 53.3876 42.5702 53.5129 42.5823 53.6427C42.5944 53.7724 42.5764 53.9032 42.5298 54.025C42.4478 54.222 42.3321 54.4034 42.1877 54.5615L42.1733 54.5782C42.1647 54.5886 42.1539 54.5971 42.1416 54.6029C42.1293 54.6086 42.1159 54.6116 42.1023 54.6116C42.0886 54.6116 42.0752 54.6086 42.0629 54.6029C42.0506 54.5971 42.0398 54.5886 42.0312 54.5782C42.0108 54.5543 41.9984 54.5246 41.9958 54.4934C41.9932 54.4622 42.0005 54.431 42.0168 54.4041L42.0312 54.3826C42.0389 54.37 42.0487 54.3587 42.0601 54.3493C42.177 54.2215 42.2707 54.0747 42.3371 53.9153C42.3689 53.8388 42.3829 53.7562 42.3779 53.6736C42.3728 53.591 42.349 53.5106 42.3082 53.4385C42.1757 53.262 41.9132 53.3216 41.7278 53.4265C41.4516 53.599 41.197 53.8031 40.9691 54.0345C40.5837 54.3969 40.1839 54.7713 39.683 54.8309L39.5553 54.8476Z" fill="#0D0D0D"/>
<path d="M39.4427 61.0752C39.207 61.0752 38.9715 61.0632 38.737 61.0394C37.5844 60.9269 36.4845 60.5057 35.5554 59.821C34.5153 58.9893 33.742 57.8758 33.33 56.6166C33.3187 56.5866 33.3181 56.5538 33.3281 56.5235C33.3382 56.4932 33.3584 56.4671 33.3854 56.4497C33.3989 56.4441 33.4135 56.4415 33.4281 56.442C33.4428 56.4426 33.4571 56.4463 33.4702 56.4528C33.4832 56.4594 33.4947 56.4687 33.5037 56.4801C33.5128 56.4915 33.5193 56.5047 33.5227 56.5188C33.9246 57.7283 34.6675 58.7988 35.6638 59.6041C36.5659 60.2725 37.6351 60.6847 38.7563 60.7962C41.4995 61.08 44.3897 59.6279 46.1141 57.0958C46.1213 57.0834 46.1312 57.0728 46.1433 57.0649C46.1553 57.0571 46.169 57.0521 46.1833 57.0505C46.1976 57.0489 46.2122 57.0506 46.2257 57.0556C46.2392 57.0606 46.2513 57.0686 46.2611 57.0791C46.2829 57.1032 46.2962 57.1338 46.2988 57.1661C46.3014 57.1984 46.2933 57.2307 46.2755 57.2579C44.6546 59.6279 42.0318 61.0752 39.4427 61.0752Z" fill="#0D0D0D"/>
<path d="M46.3014 44.8263C46.9997 44.8263 47.5658 44.1367 47.5658 43.286C47.5658 42.4354 46.9997 41.7458 46.3014 41.7458C45.603 41.7458 45.0369 42.4354 45.0369 43.286C45.0369 44.1367 45.603 44.8263 46.3014 44.8263Z" fill="#3FA6DB"/>
<path d="M46.2994 43.9823C46.6147 43.9823 46.8702 43.6706 46.8702 43.2861C46.8702 42.9016 46.6147 42.5899 46.2994 42.5899C45.9842 42.5899 45.7286 42.9016 45.7286 43.2861C45.7286 43.6706 45.9842 43.9823 46.2994 43.9823Z" fill="#302113"/>
<path d="M46.08 42.9551C46.2024 42.9551 46.3016 42.8345 46.3016 42.6857C46.3016 42.5369 46.2024 42.4163 46.08 42.4163C45.9577 42.4163 45.8585 42.5369 45.8585 42.6857C45.8585 42.8345 45.9577 42.9551 46.08 42.9551Z" fill="#F4F4F4"/>
<path d="M32.992 44.2255C33.6903 44.2255 34.2564 43.5359 34.2564 42.6853C34.2564 41.8346 33.6903 41.145 32.992 41.145C32.2937 41.145 31.7275 41.8346 31.7275 42.6853C31.7275 43.5359 32.2937 44.2255 32.992 44.2255Z" fill="#3FA6DB"/>
<path d="M37.6228 62.5176C37.5691 62.5167 37.5172 62.4981 37.4754 62.4647C37.4335 62.4313 37.4042 62.385 37.392 62.3332C37.3798 62.2814 37.3855 62.2271 37.4081 62.1788C37.4307 62.1306 37.469 62.0912 37.5168 62.0669C38.2097 61.723 38.9732 61.5414 39.7482 61.536C40.5233 61.5306 41.2893 61.7017 41.9869 62.0359C42.0163 62.049 42.0427 62.0678 42.0647 62.0911C42.0866 62.1144 42.1035 62.1419 42.1145 62.1719C42.1256 62.2018 42.1304 62.2336 42.1287 62.2655C42.1271 62.2973 42.1191 62.3285 42.105 62.3572C42.091 62.3859 42.0714 62.4115 42.0472 62.4325C42.023 62.4536 41.9948 62.4696 41.9642 62.4796C41.9337 62.4897 41.9014 62.4936 41.8693 62.4911C41.8373 62.4886 41.806 62.4798 41.7774 62.4651C41.1462 62.1614 40.4527 62.006 39.7509 62.011C39.0491 62.0159 38.3579 62.1811 37.7312 62.4937C37.6974 62.5099 37.6603 62.5181 37.6228 62.5176Z" fill="#1F1B1B"/>
<path d="M31.375 72.31H31.3582C31.3265 72.3076 31.2956 72.299 31.2673 72.2848C31.239 72.2705 31.2138 72.2508 31.1933 72.2269C31.1727 72.203 31.1571 72.1752 31.1473 72.1453C31.1376 72.1154 31.1339 72.0838 31.1366 72.0525C31.3337 69.5462 31.3514 67.0293 31.1896 64.5205C31.1875 64.4892 31.1917 64.4578 31.2019 64.4281C31.2121 64.3984 31.2281 64.371 31.249 64.3474C31.2699 64.3238 31.2954 64.3045 31.3238 64.2907C31.3522 64.2768 31.3831 64.2687 31.4148 64.2666C31.4464 64.2646 31.4781 64.2687 31.5081 64.2788C31.5381 64.2889 31.5658 64.3048 31.5897 64.3255C31.6135 64.3462 31.6329 64.3713 31.6469 64.3995C31.6609 64.4276 31.6692 64.4582 31.6713 64.4895C31.8355 67.0213 31.8178 69.5614 31.6183 72.0907C31.6134 72.1509 31.5855 72.2071 31.5404 72.2479C31.4952 72.2886 31.4361 72.3108 31.375 72.31Z" fill="#1F1B1B"/>
<path d="M48.1651 74.8969C48.1037 74.897 48.0445 74.8738 47.9997 74.8322C47.9549 74.7905 47.928 74.7335 47.9243 74.6727C47.7165 71.5208 47.8457 68.356 48.3096 65.231C48.3144 65.1997 48.3253 65.1696 48.3418 65.1424C48.3583 65.1153 48.38 65.0917 48.4057 65.0729C48.4314 65.054 48.4606 65.0404 48.4917 65.0328C48.5227 65.0251 48.555 65.0236 48.5866 65.0283C48.6182 65.033 48.6486 65.0438 48.676 65.0601C48.7034 65.0765 48.7273 65.098 48.7463 65.1234C48.7653 65.1489 48.7791 65.1778 48.7868 65.2085C48.7945 65.2392 48.7961 65.2712 48.7913 65.3025C48.329 68.3981 48.1998 71.5335 48.406 74.6561C48.4079 74.6874 48.4036 74.7188 48.3933 74.7484C48.3829 74.7781 48.3668 74.8055 48.3458 74.829C48.3247 74.8524 48.2992 74.8716 48.2707 74.8853C48.2422 74.899 48.2112 74.907 48.1795 74.9088L48.1651 74.8969Z" fill="#1F1B1B"/>
<path d="M32.9935 43.3528C33.2967 43.3528 33.5426 43.0539 33.5426 42.6852C33.5426 42.3165 33.2967 42.0176 32.9935 42.0176C32.6902 42.0176 32.4443 42.3165 32.4443 42.6852C32.4443 43.0539 32.6902 43.3528 32.9935 43.3528Z" fill="#302113"/>
<path d="M32.7281 42.3851C32.8212 42.3851 32.8967 42.2933 32.8967 42.1801C32.8967 42.0668 32.8212 41.975 32.7281 41.975C32.635 41.975 32.5595 42.0668 32.5595 42.1801C32.5595 42.2933 32.635 42.3851 32.7281 42.3851Z" fill="#F4F4F4"/>
</g>
<g style="mix-blend-mode:hard-light" opacity="0.36">
<path d="M23.2246 47.4351C38.9079 36.9939 54.5936 26.5333 70.5222 16.4538C70.1952 16.0443 69.8624 15.6396 69.5239 15.2397C48.4297 29.2407 27.0215 42.7682 5.80957 56.5918C6.10881 57.194 6.42768 57.7865 6.75881 58.3717C12.2548 54.7375 17.7433 51.092 23.2246 47.4351Z" fill="#FFF2B7"/>
</g>
<g style="mix-blend-mode:hard-light" opacity="0.36">
<path d="M3.22949 49.8176C3.50175 50.8059 3.80591 51.782 4.15421 52.7315C10.0639 48.8803 15.9833 45.0462 21.9126 41.2291C36.8453 31.6062 51.8051 22.0124 66.6103 12.1977C65.58 11.2366 64.4976 10.332 63.3676 9.48779C52.7175 16.158 12.9402 43.4922 3.22949 49.8176Z" fill="#FFF2B7"/>
</g>
<g style="mix-blend-mode:multiply" opacity="0.37">
<path d="M32.9443 77.1541C38.1207 78.1508 43.4489 78.0811 48.5969 76.9494C53.7448 75.8177 58.602 73.6482 62.8657 70.5763C67.1294 67.5043 70.708 63.5958 73.3786 59.0943C76.0491 54.5928 77.7542 49.595 78.3877 44.4124C63.2636 55.3586 48.169 66.3486 32.9443 77.1541Z" fill="#FFBB1E"/>
</g>
</svg>
